<svg id="sketch-sync" width="100%" xmlns="http://www.w3.org/2000/svg" xmlns:xlink="http://www.w3.org/1999/xlink" class="flowchart" style="max-width: 1277.16px; background-color: transparent;" viewBox="-0.094451904296875 0.04544830322265625 1277.1572265625 192.78173828125" role="graphics-document document" aria-roledescription="flowchart-v2"><style>#sketch-sync{font-family:Excalifont;font-size:16px;fill:#1e1e1e;}@keyframes edge-animation-frame{from{stroke-dashoffset:0;}}@keyframes dash{to{stroke-dashoffset:0;}}#sketch-sync .edge-animation-slow{stroke-dasharray:9,5!important;stroke-dashoffset:900;animation:dash 50s linear infinite;stroke-linecap:round;}#sketch-sync .edge-animation-fast{stroke-dasharray:9,5!important;stroke-dashoffset:900;animation:dash 20s linear infinite;stroke-linecap:round;}#sketch-sync .error-icon{fill:#552222;}#sketch-sync .error-text{fill:#552222;stroke:#552222;}#sketch-sync .edge-thickness-normal{stroke-width:1px;}#sketch-sync .edge-thickness-thick{stroke-width:3.5px;}#sketch-sync .edge-pattern-solid{stroke-dasharray:0;}#sketch-sync .edge-thickness-invisible{stroke-width:0;fill:none;}#sketch-sync .edge-pattern-dashed{stroke-dasharray:3;}#sketch-sync .edge-pattern-dotted{stroke-dasharray:2;}#sketch-sync .marker{fill:#1e1e1e;stroke:#1e1e1e;}#sketch-sync .marker.cross{stroke:#1e1e1e;}#sketch-sync svg{font-family:Excalifont;font-size:16px;}#sketch-sync p{margin:0;}#sketch-sync .label{font-family:Excalifont;color:#1e1e1e;}#sketch-sync .cluster-label text{fill:#333;}#sketch-sync .cluster-label span{color:#333;}#sketch-sync .cluster-label span p{background-color:transparent;}#sketch-sync .label text,#sketch-sync span{fill:#1e1e1e;color:#1e1e1e;}#sketch-sync .node rect,#sketch-sync .node circle,#sketch-sync .node ellipse,#sketch-sync .node polygon,#sketch-sync .node path{fill:#ffec99;stroke:#1e1e1e;stroke-width:1px;}#sketch-sync .rough-node .label text,#sketch-sync .node .label text,#sketch-sync .image-shape .label,#sketch-sync .icon-shape .label{text-anchor:middle;}#sketch-sync .node .katex path{fill:#000;stroke:#000;stroke-width:1px;}#sketch-sync .rough-node .label,#sketch-sync .node .label,#sketch-sync .image-shape .label,#sketch-sync .icon-shape .label{text-align:center;}#sketch-sync .node.clickable{cursor:pointer;}#sketch-sync .root .anchor path{fill:#1e1e1e!important;stroke-width:0;stroke:#1e1e1e;}#sketch-sync .arrowheadPath{fill:#333333;}#sketch-sync .edgePath .path{stroke:#1e1e1e;stroke-width:1px;}#sketch-sync .flowchart-link{stroke:#1e1e1e;fill:none;}#sketch-sync .edgeLabel{background-color:#ffffff;text-align:center;}#sketch-sync .edgeLabel p{background-color:#ffffff;}#sketch-sync .edgeLabel rect{opacity:0.5;background-color:#ffffff;fill:#ffffff;}#sketch-sync .labelBkg{background-color:rgba(255, 255, 255, 0.5);}#sketch-sync .cluster rect{fill:#f5f5f5;stroke:#1e1e1e;stroke-width:1px;}#sketch-sync .cluster text{fill:#333;}#sketch-sync .cluster span{color:#333;}#sketch-sync div.mermaidTooltip{position:absolute;text-align:center;max-width:200px;padding:2px;font-family:Excalifont;font-size:12px;background:#b2f2bb;border:1px solid #707070;border-radius:2px;pointer-events:none;z-index:100;}#sketch-sync .flowchartTitleText{text-anchor:middle;font-size:18px;fill:#1e1e1e;}#sketch-sync rect.text{fill:none;stroke-width:0;}#sketch-sync .icon-shape,#sketch-sync .image-shape{background-color:#ffffff;text-align:center;}#sketch-sync .icon-shape p,#sketch-sync .image-shape p{background-color:#ffffff;padding:2px;}#sketch-sync .icon-shape .label rect,#sketch-sync .image-shape .label rect{opacity:0.5;background-color:#ffffff;fill:#ffffff;}#sketch-sync .label-icon{display:inline-block;height:1em;overflow:visible;vertical-align:-0.125em;}#sketch-sync .node .label-icon path{fill:currentColor;stroke:revert;stroke-width:revert;}#sketch-sync .node .neo-node{stroke:#1e1e1e;}#sketch-sync [data-look="neo"].node rect,#sketch-sync [data-look="neo"].cluster rect,#sketch-sync [data-look="neo"].node polygon{stroke:url(#sketch-sync-gradient);filter:drop-shadow( 1px 2px 2px rgba(185,185,185,1));}#sketch-sync [data-look="neo"].swimlane.cluster rect{filter:none;}#sketch-sync [data-look="neo"].node path{stroke:url(#sketch-sync-gradient);stroke-width:1px;}#sketch-sync [data-look="neo"].node .outer-path{filter:drop-shadow( 1px 2px 2px rgba(185,185,185,1));}#sketch-sync [data-look="neo"].node .neo-line path{stroke:#1e1e1e;filter:none;}#sketch-sync [data-look="neo"].node circle{stroke:url(#sketch-sync-gradient);filter:drop-shadow( 1px 2px 2px rgba(185,185,185,1));}#sketch-sync [data-look="neo"].node circle .state-start{fill:#000000;}#sketch-sync [data-look="neo"].icon-shape .icon{fill:url(#sketch-sync-gradient);filter:drop-shadow( 1px 2px 2px rgba(185,185,185,1));}#sketch-sync [data-look="neo"].icon-shape .icon-neo path{stroke:url(#sketch-sync-gradient);filter:drop-shadow( 1px 2px 2px rgba(185,185,185,1));}#sketch-sync :root{--mermaid-font-family:"trebuchet ms",verdana,arial,sans-serif;}</style><g><marker id="sketch-sync_flowchart-v2-pointEnd" class="marker flowchart-v2" viewBox="0 0 10 10" refX="5" refY="5" markerUnits="userSpaceOnUse" markerWidth="8" markerHeight="8" orient="auto"><path d="M 0 0 L 10 5 L 0 10 z" class="arrowMarkerPath" style="stroke-width: 1; stroke-dasharray: 1, 0;"/></marker><marker id="sketch-sync_flowchart-v2-pointStart" class="marker flowchart-v2" viewBox="0 0 10 10" refX="4.5" refY="5" markerUnits="userSpaceOnUse" markerWidth="8" markerHeight="8" orient="auto"><path d="M 0 5 L 10 10 L 10 0 z" class="arrowMarkerPath" style="stroke-width: 1; stroke-dasharray: 1, 0;"/></marker><marker id="sketch-sync_flowchart-v2-pointEnd-margin" class="marker flowchart-v2" viewBox="0 0 11.5 14" refX="11.5" refY="7" markerUnits="userSpaceOnUse" markerWidth="10.5" markerHeight="14" orient="auto"><path d="M 0 0 L 11.5 7 L 0 14 z" class="arrowMarkerPath" style="stroke-width: 0; stroke-dasharray: 1, 0;"/></marker><marker id="sketch-sync_flowchart-v2-pointStart-margin" class="marker flowchart-v2" viewBox="0 0 11.5 14" refX="1" refY="7" markerUnits="userSpaceOnUse" markerWidth="11.5" markerHeight="14" orient="auto"><polygon points="0,7 11.5,14 11.5,0" class="arrowMarkerPath" style="stroke-width: 0; stroke-dasharray: 1, 0;"/></marker><marker id="sketch-sync_flowchart-v2-circleEnd" class="marker flowchart-v2" viewBox="0 0 10 10" refX="11" refY="5" markerUnits="userSpaceOnUse" markerWidth="11" markerHeight="11" orient="auto"><circle cx="5" cy="5" r="5" class="arrowMarkerPath" style="stroke-width: 1; stroke-dasharray: 1, 0;"/></marker><marker id="sketch-sync_flowchart-v2-circleStart" class="marker flowchart-v2" viewBox="0 0 10 10" refX="-1" refY="5" markerUnits="userSpaceOnUse" markerWidth="11" markerHeight="11" orient="auto"><circle cx="5" cy="5" r="5" class="arrowMarkerPath" style="stroke-width: 1; stroke-dasharray: 1, 0;"/></marker><marker id="sketch-sync_flowchart-v2-circleEnd-margin" class="marker flowchart-v2" viewBox="0 0 10 10" refY="5" refX="12.25" markerUnits="userSpaceOnUse" markerWidth="14" markerHeight="14" orient="auto"><circle cx="5" cy="5" r="5" class="arrowMarkerPath" style="stroke-width: 0; stroke-dasharray: 1, 0;"/></marker><marker id="sketch-sync_flowchart-v2-circleStart-margin" class="marker flowchart-v2" viewBox="0 0 10 10" refX="-2" refY="5" markerUnits="userSpaceOnUse" markerWidth="14" markerHeight="14" orient="auto"><circle cx="5" cy="5" r="5" class="arrowMarkerPath" style="stroke-width: 0; stroke-dasharray: 1, 0;"/></marker><marker id="sketch-sync_flowchart-v2-crossEnd" class="marker cross flowchart-v2" viewBox="0 0 11 11" refX="12" refY="5.2" markerUnits="userSpaceOnUse" markerWidth="11" markerHeight="11" orient="auto"><path d="M 1,1 l 9,9 M 10,1 l -9,9" class="arrowMarkerPath" style="stroke-width: 2; stroke-dasharray: 1, 0;"/></marker><marker id="sketch-sync_flowchart-v2-crossStart" class="marker cross flowchart-v2" viewBox="0 0 11 11" refX="-1" refY="5.2" markerUnits="userSpaceOnUse" markerWidth="11" markerHeight="11" orient="auto"><path d="M 1,1 l 9,9 M 10,1 l -9,9" class="arrowMarkerPath" style="stroke-width: 2; stroke-dasharray: 1, 0;"/></marker><marker id="sketch-sync_flowchart-v2-crossEnd-margin" class="marker cross flowchart-v2" viewBox="0 0 15 15" refX="17.7" refY="7.5" markerUnits="userSpaceOnUse" markerWidth="12" markerHeight="12" orient="auto"><path d="M 1,1 L 14,14 M 1,14 L 14,1" class="arrowMarkerPath" style="stroke-width: 2.5;"/></marker><marker id="sketch-sync_flowchart-v2-crossStart-margin" class="marker cross flowchart-v2" viewBox="0 0 15 15" refX="-3.5" refY="7.5" markerUnits="userSpaceOnUse" markerWidth="12" markerHeight="12" orient="auto"><path d="M 1,1 L 14,14 M 1,14 L 14,1" class="arrowMarkerPath" style="stroke-width: 2.5; stroke-dasharray: 1, 0;"/></marker><g class="root"><g class="clusters"/><g class="edgePaths"><path d="M179.62486403993898 80.97837598285443 C180.94700993534914 80.90601692428073, 182.23914200056535 80.94338281745524, 183.84752994553278 81.00299563451493 M179.58851327447522 80.97062055993455 C180.86578802988572 80.9660925454151, 182.163679969138 81.01936028275237, 183.79994735221956 81.05796007471625 M183.786 81.012 C187.60544610961426 80.67653843265558, 196.04457987634993 81.54041027489437, 204.47110350746433 80.57493801885403 M183.93647608068872 80.87143316267131 C187.64437946182082 81.65918635477334, 196.70601920637185 80.96759666732315, 204.5479275484063 80.58888670755243 M203.953 81.012 C211.1196485685695 81.4781797439061, 218.3763882462615 81.41395542871552, 221.8851228717986 80.692557501254 M203.60133770130884 81.03960647523924 C210.98130402055577 80.9184600127445, 218.94029924338957 81.5571922610148, 222.78946615184353 80.62087025405427 M222.12989246821746 81.05786038077852 C223.08748832396734 81.10609066462305, 223.89081379561395 81.10711473173468, 225.64501933842786 81.10238222071091 M222.13798237093258 80.99214962833771 C223.04106510935745 81.05445498909454, 224.00360932278792 80.98768346251146, 225.6307898025803 80.992252510698" stroke="#000" stroke-width="1" fill="none" id="sketch-sync-L_change_push_0" class="edge-thickness-normal edge-pattern-solid transition edge-thickness-normal edge-pattern-solid flowchart-link" style="" data-edge="true" data-et="edge" data-id="L_change_push_0" data-points="W3sieCI6MTc5LjYxOTI0NzQzNjUyMzQ0LCJ5Ijo4MS4wMTE5MjY2NTEwMDA5OH0seyJ4IjoyMDQuNjE5MjQ3NDM2NTIzNDQsInkiOjgxLjAxMTkyNjY1MTAwMDk4fSx7IngiOjIyOS42MTkyNDc0MzY1MjM0NCwieSI6ODEuMDExOTI2NjUxMDAwOTh9XQ==" data-look="handDrawn" marker-end="url(#sketch-sync_flowchart-v2-pointEnd)"/><path d="M379.32401524489705 56.85606973483528 C384.40439910147893 54.58507210140486, 388.6442901788057 53.458919429568276, 394.92259373079366 51.03076650799599 M379.28069758683176 56.55907876413304 C383.97303655946035 55.049196949529296, 388.51538584566117 53.36324264650782, 394.3329029356891 51.46557374232227 M394.557 51.439 C410.0441390840344 47.007311690904785, 440.23579830417924 36.38392334914488, 469.68621892375813 32.53843168867759 M394.7328052738828 51.84134413606002 C410.2055428686478 46.54531003048411, 440.18594788345473 35.9387306641148, 469.02064832543465 33.012013760675934 M469.537 32.77 C498.6509019705034 29.37998302437616, 527.8140298251874 31.199563022694402, 542.3380719010684 33.00000394555262 M469.8763378152812 32.463707754194594 C498.5672290732788 28.83119082347721, 527.6295855333602 31.14285500047488, 542.8303908651765 32.581094106086816 M542.4099606895505 32.87496541744281 C545.8897889174423 33.30890658336129, 548.6881370670244 33.21043790630583, 557.3165128601692 33.66538898667362 M542.3270937363658 32.61016102339739 C547.2578867523277 32.91420528932153, 552.351226410232 33.668452184069004, 557.0168664793783 34.0139566408271" stroke="#000" stroke-width="1" fill="none" id="sketch-sync-L_push_action_0" class="edge-thickness-normal edge-pattern-solid transition edge-thickness-normal edge-pattern-solid flowchart-link" style="" data-edge="true" data-et="edge" data-id="L_push_action_0" data-points="W3sieCI6Mzc5LjQyODE3Njg3OTg4MjgsInkiOjU2LjQwODE1ODUyMzM5MzAzfSx7IngiOjQ3MC4yMDE2MTQzNzk4ODI4LCJ5IjoyNi41OTE5MzAzODk0MDQyOTd9LHsieCI6NTYwLjk3NTA1MTg3OTg4MjgsInkiOjM0LjE3ODk2ODE1NTM0NzM3fV0=" data-look="handDrawn" marker-end="url(#sketch-sync_flowchart-v2-pointEnd)"/><path d="M365.0171882055956 106.52078472340892 C368.9512971376909 108.58093192178515, 373.3461548650686 110.01436554098507, 382.28952293275955 113.30621861849596 M364.7255516272626 106.21345422025314 C369.7640100542294 108.55048550311874, 374.27846732254665 110.39595711572274, 382.1569089201463 113.66597436412046 M382.347 113.791 C399.51087280019493 120.79271179526076, 435.17814533775794 136.03959195339826, 470.87309090157373 142.85299072043043 M382.01001596550077 113.50059185355883 C399.8828360745197 120.61939706966021, 435.21646773026816 135.73700868756336, 470.4863254291411 143.95713976553563 M470.93 143.394 C507.28569392435514 151.226272449596, 543.5042141788389 151.14205116786275, 561.1914571761691 150.82588695390504 M470.4531121215309 143.77393877688388 C507.35867905518097 151.06217131674626, 544.0400271197578 150.68829402140494, 561.5107973438612 150.9562042331733 M561.5260320856843 150.97938364232803 C565.7447276634134 150.53146339478246, 570.7331123133038 150.66231677814943, 579.6212847109273 150.96067786249134 M561.4657250797793 150.91662580907598 C568.371302062672 150.91227641198427, 574.9762722652729 150.64735143031285, 579.7638367213219 150.52852182665745" stroke="#000" stroke-width="1" fill="none" id="sketch-sync-L_push_vercel_0" class="edge-thickness-normal edge-pattern-solid transition edge-thickness-normal edge-pattern-solid flowchart-link" style="" data-edge="true" data-et="edge" data-id="L_push_vercel_0" data-points="W3sieCI6MzY0Ljc3NTY0OTEyMDEyMTU2LCJ5IjoxMDYuMzg5OTQ5Nzk4NTgzOTh9LHsieCI6NDcwLjIwMTYxNDM3OTg4MjgsInkiOjE1MC43OTUyMDQxNjI1OTc2Nn0seyJ4Ijo1ODMuOTk2MDE3NDU2MDU0NywieSI6MTUwLjc5NTIwNDE2MjU5NzY2fV0=" data-look="handDrawn" marker-end="url(#sketch-sync_flowchart-v2-pointEnd)"/><path d="M560.6085927546017 61.375073185854035 C557.2166329972993 62.916179514743085, 552.5307056677401 63.616662620673445, 545.9519118049504 64.92656634772862 M561.1879833723298 61.80137229549724 C555.5272284890383 62.8732036905205, 550.3585597975555 64.03978611520739, 545.7971887571263 64.90692404656099 M545.846 64.939 C530.2843413933299 68.72679786093305, 500.7162797487792 74.55610149854473, 470.35905259526834 78.34243670432271 M546.3301419050545 64.96115375959548 C530.9944812224375 68.48658170234648, 499.8114236316757 74.78760475208539, 471.34449523789215 77.5644081150853 M470.868 77.797 C441.57677893175594 81.4931686567671, 412.6701865747586 81.24152190502141, 398.2016641145739 80.93946611734992 M470.32339005783604 78.18600045007462 C441.7300354002233 80.65873396184313, 412.3302766172625 80.34925297832092, 397.62934500600244 81.35683979758596 M398.21837355540254 80.91431745589364 C394.47101886872946 81.00486754459814, 391.3813043497306 81.33572013737846, 383.82010380864665 80.65182502799908 M397.75004485616137 80.94257830787895 C392.8707163661394 81.17824344860779, 387.6938265872405 81.11164753536022, 383.27073345323964 81.17571701507165" stroke="#000" stroke-width="1" fill="none" id="sketch-sync-L_action_push_0" class="edge-thickness-normal edge-pattern-solid transition edge-thickness-normal edge-pattern-solid flowchart-link" style="" data-edge="true" data-et="edge" data-id="L_action_push_0" data-points="W3sieCI6NTYwLjk3NTA1MTg3OTg4MjgsInkiOjYxLjcyNDA2OTY1MDYxODM0fSx7IngiOjQ3MC4yMDE2MTQzNzk4ODI4LCJ5Ijo4MS4wMTE5MjY2NTEwMDA5OH0seyJ4IjozNzkuNDI4MTc2ODc5ODgyOCwieSI6ODEuMDExOTI2NjUxMDAwOTh9XQ==" data-look="handDrawn" marker-end="url(#sketch-sync_flowchart-v2-pointEnd)"/><path d="M724.2046360132234 150.76883730502684 C725.5307481251127 150.7369509721088, 727.1873522021592 150.95754826090578, 732.1298954914881 150.64081666436655 M724.0649709569514 150.909052079277 C725.9416526320233 150.75548243760304, 727.7371636433123 150.85019842321577, 731.9678107232244 150.69507905083185 M732.032 150.795 C739.7212847852843 150.3567889570649, 755.6211372303408 150.70246981869374, 767.2343356789166 151.34898826247533 M731.7544929330853 150.49527005708453 C740.1773723305167 150.20063382116405, 755.845344518435 151.27094041467325, 768.212661005581 151.21334629267432 M767.546 150.795 C778.9047863563654 150.9295734939317, 786.2530916425055 150.37680357916963, 789.5616042607604 151.3699748146329 M767.5035002931844 150.43075670281405 C778.6162002698359 150.15440276310693, 785.5350464166787 151.40578580166886, 789.1743615226648 151.21389704829818 M789.4730599803453 150.75015294498806 C790.9924618708312 150.73753951046376, 792.1797569894306 150.86631601162878, 793.0138852130592 150.87707058024026 M789.5148007617728 150.75838875320918 C790.3598445261935 150.8105459051391, 791.164163017319 150.83040397014838, 793.0626253591888 150.83135932769798" stroke="#000" stroke-width="1" fill="none" id="sketch-sync-L_vercel_extract_0" class="edge-thickness-normal edge-pattern-solid transition edge-thickness-normal edge-pattern-solid flowchart-link" style="" data-edge="true" data-et="edge" data-id="L_vercel_extract_0" data-points="W3sieCI6NzI0LjAyODM4MTM0NzY1NjIsInkiOjE1MC43OTUyMDQxNjI1OTc2Nn0seyJ4Ijo3NzIuMDQ5MzQ2OTIzODI4MSwieSI6MTUwLjc5NTIwNDE2MjU5NzY2fSx7IngiOjc5Ny4wNDkzNDY5MjM4MjgxLCJ5IjoxNTAuNzk1MjA0MTYyNTk3NjZ9XQ==" data-look="handDrawn" marker-end="url(#sketch-sync_flowchart-v2-pointEnd)"/><path d="M1000.7776579195731 150.90817806481692 C1002.4138447652573 150.86790510373518, 1003.9177043849774 150.89087470635093, 1005.1217124091756 150.78843313120427 M1000.7882019015548 150.85295361112728 C1002.1765039158247 150.77854516652124, 1003.5631559776176 150.82866285275588, 1005.0521528841919 150.8215344438993 M1005.003 150.795 C1009.2328618412736 151.26917739897945, 1017.4793730190373 150.65947392324117, 1025.6917494760548 150.39906124551314 M1005.29693761882 150.69613998989553 C1009.4557120714045 150.50713912403543, 1018.1472594255481 151.45194247011267, 1025.2444133544484 150.8928989159494 M1025.17 150.795 C1032.2984505462016 150.2852936735262, 1039.359256881483 150.779288046832, 1043.1415726345695 151.0645681934755 M1024.924349011864 150.5392074443476 C1032.3203982528978 151.36416106790196, 1040.0019049358143 151.37475376024517, 1042.822502433377 151.0003217826332 M1043.2407120371083 150.72777381113195 C1044.5138716864906 150.84629047581825, 1045.7393928607964 150.84898937198048, 1046.8713577301205 150.82686032590908 M1043.3210871964352 150.82183113423915 C1044.5998617435523 150.7811644005431, 1045.918969317389 150.82383167452372, 1046.8221219415275 150.7510981160421" stroke="#000" stroke-width="1" fill="none" id="sketch-sync-L_extract_site_0" class="edge-thickness-normal edge-pattern-solid transition edge-thickness-normal edge-pattern-solid flowchart-link" style="" data-edge="true" data-et="edge" data-id="L_extract_site_0" data-points="W3sieCI6MTAwMC44MzY0NzE1NTc2MTcyLCJ5IjoxNTAuNzk1MjA0MTYyNTk3NjZ9LHsieCI6MTAyNS44MzY0NzE1NTc2MTcyLCJ5IjoxNTAuNzk1MjA0MTYyNTk3NjZ9LHsieCI6MTA1MC44MzY0NzE1NTc2MTcyLCJ5IjoxNTAuNzk1MjA0MTYyNTk3NjZ9XQ==" data-look="handDrawn" marker-end="url(#sketch-sync_flowchart-v2-pointEnd)"/></g><g class="edgeLabels"><g class="edgeLabel"><g class="label" data-id="L_change_push_0" transform="translate(0, 0)"><text y="-10.1" text-anchor="middle"><tspan class="text-outer-tspan row" x="0" y="-0.1em" dy="1.1em" text-anchor="middle"/></text></g></g><g><rect class="background" style="stroke: none"/></g><g class="edgeLabel"><g class="label" data-id="L_push_action_0" transform="translate(0, 0)"><text y="-10.1" text-anchor="middle"><tspan class="text-outer-tspan row" x="0" y="-0.1em" dy="1.1em" text-anchor="middle"/></text></g></g><g><rect class="background" style="stroke: none"/></g><g class="edgeLabel"><g class="label" data-id="L_push_vercel_0" transform="translate(0, 0)"><text y="-10.1" text-anchor="middle"><tspan class="text-outer-tspan row" x="0" y="-0.1em" dy="1.1em" text-anchor="middle"/></text></g></g><g><rect class="background" style="stroke: none"/></g><g class="edgeLabel" transform="translate(470.2016143798828, 81.01192665100098)"><g class="label" data-id="L_action_push_0" transform="translate(0, -10.7265625)"><g><rect class="background" style="" x="-65.7734375" y="0" width="131.546875" height="21.453125"/><text y="-10.1" text-anchor="middle" style=""><tspan class="text-outer-tspan row" x="0" y="-0.1em" dy="1.1em" text-anchor="middle"><tspan font-style="normal" class="text-inner-tspan" font-weight="normal">commits</tspan><tspan font-style="normal" class="text-inner-tspan" font-weight="normal"> drift</tspan><tspan font-style="normal" class="text-inner-tspan" font-weight="normal"> if</tspan><tspan font-style="normal" class="text-inner-tspan" font-weight="normal"> any</tspan></tspan></text></g></g></g><g class="edgeLabel"><g class="label" data-id="L_vercel_extract_0" transform="translate(0, 0)"><text y="-10.1" text-anchor="middle"><tspan class="text-outer-tspan row" x="0" y="-0.1em" dy="1.1em" text-anchor="middle"/></text></g></g><g><rect class="background" style="stroke: none"/></g><g class="edgeLabel"><g class="label" data-id="L_extract_site_0" transform="translate(0, 0)"><text y="-10.1" text-anchor="middle"><tspan class="text-outer-tspan row" x="0" y="-0.1em" dy="1.1em" text-anchor="middle"/></text></g></g><g><rect class="background" style="stroke: none"/></g></g><g class="nodes"><g class="rough-node default" id="sketch-sync-flowchart-change-0" data-look="handDrawn" transform="translate(93.80962371826172, 81.01192665100098)"><g class="basic label-container" style=""><path d="M-84.6603572655105 -23.243632042437067 C-84.6603572655105 -23.243632042437067, -84.6603572655105 -23.243632042437067, -84.6603572655105 -23.243632042437067 M-84.6603572655105 -23.243632042437067 C-84.6603572655105 -23.243632042437067, -84.6603572655105 -23.243632042437067, -84.6603572655105 -23.243632042437067 M-83.8573656920063 -16.253400491453984 C-81.86164554069249 -19.399895969838273, -78.91978733579556 -22.432778385466406, -78.23028703053019 -24.152035703813663 M-84.43537227434729 -16.256272641802912 C-82.7393330454593 -17.38638129626885, -81.36761683652293 -19.121632979620873, -77.54485326998167 -23.46741655104669 M-83.4497366397714 -8.453649280595618 C-81.16954154994971 -12.950305001713597, -77.1850692958992 -14.750381579506627, -71.08759215029364 -22.418033776562176 M-84.9226352083596 -8.906014502944545 C-81.0162959306616 -11.49971431773143, -77.44195114563745 -16.645688423434823, -71.7840302449383 -23.731366216498795 M-85.00824225014046 -1.349926619874847 C-77.08436739913547 -8.413114164351867, -71.36250225916864 -17.726308837279444, -65.60600400080865 -22.766771699818833 M-84.68416761044769 -0.9512984657482012 C-77.78062767764386 -8.40859421342822, -70.11660009127539 -15.895026668619467, -65.39774198050009 -23.506528927968034 M-85.90407268340562 7.033608094427562 C-79.86370730238052 -0.18812780709942478, -74.05280787863313 -5.5170434560327255, -58.30347281548476 -24.60728793616834 M-84.55431349529509 7.65643834629019 C-75.44224917844618 -3.204072925956739, -65.61165473908045 -15.28474561731514, -58.01084731700749 -24.00710338308249 M-85.20786065662708 15.230585757774046 C-71.79841653096827 1.0676097694689348, -62.05105347350894 -11.330754016034684, -51.088549136083984 -24.325468058235412 M-84.63365876090404 14.584698436745052 C-74.36744826184449 3.3311084671547126, -65.07770348709283 -6.791840651692381, -51.168145831099345 -23.115692509022235 M-84.35639831674851 20.811336980305853 C-68.60135934095838 3.754491299796749, -52.77920322841856 -14.092159560057933, -44.59124155104485 -22.46652228661021 M-84.12410302082189 22.249489524306167 C-76.20303544489718 13.158272292937568, -68.48288939593613 2.745142812426997, -45.27126392527686 -23.59019052494576 M-78.37757391412087 23.05561663967336 C-64.80227598496356 9.890791803657965, -52.36238132986275 -6.197243715423209, -36.554401149329664 -23.421606107967456 M-79.72605509548931 24.084046275305376 C-68.34177320846288 10.194082329063615, -57.28165518121312 -2.2477959512344667, -38.151200236478346 -24.032920715388467 M-72.10988030045344 24.77474193223196 C-62.89287067004642 14.804019466750136, -54.845957190235524 5.095215344227465, -32.398700121919966 -23.596025024240276 M-72.17381998934412 23.779875549956824 C-62.40229182087254 12.649605495887805, -54.295465156690376 2.617072146462242, -31.24613915178403 -22.79179927287518 M-66.99106818592466 22.44730963036411 C-55.71137721666742 11.944590727168968, -44.71563141700094 1.3496634931057194, -25.298136853482042 -23.69552718497278 M-65.47698682478867 24.096672143174327 C-56.97725058652959 12.470605397462245, -47.0079553702747 0.6608966799160845, -24.906826429931574 -23.77565191283134 M-59.850090097764785 23.757619059763112 C-45.70423495336137 8.453141410963884, -33.51568545424677 -4.619976618185614, -17.11257715848348 -23.83932151824072 M-59.2264280715172 23.733393637021553 C-45.830637754116594 8.352234940806945, -31.40517313277232 -7.501474371651533, -18.227286272156984 -23.565295156616394 M-53.61117860994247 23.727729794165064 C-38.26586280779448 6.399931441383083, -25.286648782513815 -10.13975848675923, -12.322385205246208 -23.93343280114596 M-52.758333396931405 23.985850668673997 C-42.20606908419464 10.773879127565786, -31.242989688751056 -0.7513133302471271, -11.532461566443155 -23.04734755372202 M-47.05889754672212 22.43215709223059 C-32.95793322202581 9.006741493843602, -18.18469075656733 -5.607869099614742, -4.366294935922243 -22.96538224120121 M-46.42114237124826 23.532089538228046 C-31.104192580573393 7.200553254385109, -16.906321694548605 -8.544035227018188, -5.7753988890181915 -23.619435578120456 M-39.48608735867535 24.524616635219914 C-30.049729469068765 12.803537793598167, -21.103322569302275 2.3290794160209924, 0.5841186935040794 -24.074288585461563 M-39.73770334879466 24.236200933282582 C-24.72278812447348 7.074064962512286, -9.418382144498821 -9.54374724257095, 1.676929120120481 -23.55709999532863 M-33.56653713319748 23.45401213344338 C-19.870149565452284 10.623784526157255, -8.22698977604664 -3.157704006589632, 7.7338306227565266 -23.103766781409718 M-33.15880771298111 23.32584408119168 C-21.047582180272045 11.183473449621602, -10.159336537915488 -1.0660754223080098, 8.2417988006434 -22.69696236799511 M-27.420492471979905 24.984576328656818 C-11.627701534036055 9.55893655940955, 0.889938311369562 -6.30512139027578, 15.10193758782171 -25.229747198122922 M-26.485256483039443 23.689954169219472 C-11.25917908688159 7.302823040355797, 3.290837155441566 -9.268372717920558, 15.75871606231224 -24.030399935060696 M-18.63067310756521 24.74524931004284 C-6.599546518130406 8.31214331177991, 6.176455390947539 -6.5993306793701425, 22.788174886093366 -24.834730616644364 M-20.258846392220804 24.433876583166064 C-5.5524421876778955 7.832427317736325, 7.577782578982049 -6.827680513795191, 22.034633846228996 -23.215582545802867 M-12.714441409278631 23.87570889995775 C-2.583510703605849 12.611395538749413, 8.063548642571673 -0.5548312259078968, 28.239785849110763 -21.952025434743934 M-12.437285401577306 23.13652938393382 C3.800243793279575 5.066429817729959, 18.608109025500323 -13.226605779027539, 28.293310666598405 -23.582807134944144 M-6.997873208172497 23.550696163330528 C4.856680705761608 10.91516535117375, 15.354024333642089 -1.0403588118958709, 33.8551818350342 -23.07191008738889 M-6.656509483192293 23.42764369912128 C3.5829462239913203 11.997882243829086, 12.921925784145348 0.5509939672910578, 35.28204079714977 -23.63420662521068 M-0.17925576622777284 23.089484857889577 C16.3611313366629 7.873226484437221, 28.903443718634687 -7.578683780945139, 40.80534950119894 -23.895082346355405 M0.9820296885431749 23.197360351872714 C10.200312538509507 12.15808311853492, 19.720760877263764 0.735102253743899, 41.22778638337064 -23.74101594423976 M7.489542623258627 22.670269523749507 C14.975834988049153 14.495970597081847, 26.028250167238014 2.535503754080675, 47.27974525412062 -22.61015279279361 M6.645114128160383 23.95839328058099 C22.02909462012922 5.220160676444752, 38.51702130874979 -12.472289721586284, 47.473068324722895 -23.13663392734481 M14.671387398404027 23.228444362657125 C27.60389033607585 6.379802645602773, 43.722197468695285 -13.155744105784205, 54.28142049135658 -22.90322909059736 M13.03441719408832 23.098710352871056 C22.048754444847983 14.133961109269396, 31.099772356954105 3.7707255665798534, 54.54163642529747 -24.08981218870544 M21.393074870615614 21.875371176173452 C30.024342338674135 14.33869751379735, 38.54130206904376 2.9834485444017496, 60.81036801760293 -24.397978328254265 M20.61724099308686 22.878396289667755 C30.53828858886522 12.573489246134383, 38.0722622543957 3.5022842843977093, 61.90093571340695 -22.85601791315305 M27.283956584908093 23.40233118502266 C39.40792832581663 9.049291374733649, 51.018010969161885 -4.094515857089851, 67.0140182222744 -22.775192297673144 M27.048601034687508 23.957099244149948 C41.98812502168083 7.538420378661912, 54.95245980205832 -9.670043518350083, 67.80260507046094 -22.575840460692 M32.9198709187997 24.110888467869767 C47.977194839751476 5.184282276666, 63.597757150881066 -11.866325909306479, 75.59463191622221 -25.03622972668384 M33.89628018430118 23.864645772389604 C44.46393377547386 11.118285953861722, 55.81917106094577 -2.8951480307691866, 75.30182498676993 -23.50382545687814 M41.755101028004866 23.518911975751557 C52.12733654134495 7.420973289390492, 64.29196095635481 -7.343188547140411, 82.43802722072103 -23.999591262438045 M41.08090907831813 23.602492863611495 C53.07519916730837 8.565728828736768, 66.57448320923841 -5.775670699908894, 81.48848357404637 -23.40800053130593 M46.80298448150717 22.884545003959317 C60.9479589585562 7.50341055291488, 77.30911849124169 -9.732459236080754, 85.16171981193598 -19.177828283018474 M47.043442520959935 24.063978511088052 C58.333342614525165 10.100235705820827, 71.23964024374942 -5.1125208179758035, 84.69897155818647 -20.525734144941605 M53.52815802567225 23.645612234944018 C60.93898433267362 15.227173336701322, 69.22852239441507 6.200237722357391, 85.36848645499653 -12.128404671233932 M53.512757758846206 24.122741745398073 C59.66119904982573 16.336786344354934, 67.70651327592353 8.248361074819709, 84.93184471752087 -12.571634512381628 M60.921474455210785 22.53047868670431 C67.33444444951074 13.696278252885698, 75.49864060531881 7.644094275074691, 83.95974239134709 -5.992876736509638 M60.18226463912122 23.184765364129966 C68.0886701530303 14.370770726710104, 75.46253875671835 5.838929920201258, 84.61565601073343 -4.331207551126177 M66.88759147141782 24.657298707254423 C73.6660216357407 17.053085111924574, 76.75564407252293 10.149392467749642, 85.4476627052251 1.4051961529721522 M67.07712793587292 24.02768527087714 C74.15235712560953 16.232459673587588, 80.24169689042382 7.927906951274795, 85.71517023422406 2.609150861987807 M72.50275226484356 24.46852069341624 C77.96807251189259 17.628284738093118, 81.93642526125483 13.212555824001333, 84.91480262667443 10.745423207940785 M72.9098895369392 23.227737323174125 C77.10566323114205 19.147460295958407, 81.33821199035019 13.634090976078404, 84.85757395391504 10.343074067950969 M80.47108061314137 23.222006333329603 C80.8820523102935 22.414170745325844, 82.39783145417121 20.659573828567275, 84.83536933042201 17.780186444200798 M80.11478591724935 23.140976058661856 C81.461901777136 21.92309498064264, 82.81228952137646 20.432637047322917, 84.89424154734289 18.095896857562167" stroke="#ffec99" stroke-width="4" fill="none" stroke-dasharray="0 0"/><path d="M-85.29951990631939 -22.168526035579514 C-18.52852403655803 -25.492053795972215, 49.23897047428081 -23.901875921038936, 85.22667052671792 -23.10754675009719 M-84.59669144246624 -23.89409138499547 C-30.991206284190255 -22.02161440479797, 22.535651370307875 -23.143358249449648, 84.69161370038958 -23.703033127794445 M84.9094962418425 -22.132320783928357 C85.56057428166856 -3.8899578742812, 84.0950398217225 14.742373424514046, 85.00379634826268 23.31956537229988 M84.62935401388086 -23.59338299093283 C84.83113086048711 -7.866567097309406, 84.05328416996568 8.304723117169083, 83.94458246411588 24.191441738014653 M83.63475269197077 22.646531651059266 C44.99949019171625 23.538010883371562, 3.3743570330202566 23.024676962438164, -85.63087824863864 23.96586484319319 M83.88398546547137 23.142003349713693 C27.733156928833747 22.708841939050703, -29.588111639665417 22.55119974214962, -83.87431076531718 22.885036957368712 M-85.45779986809875 22.1757828973725 C-85.02588337190342 8.473530197431476, -83.69431652825438 -3.3562163115544266, -84.82800478814168 -22.39777724565864 M-84.53814263783038 23.9728605387687 C-84.9608900228731 13.43409699411215, -84.1922258062843 2.5706291689579612, -84.76299175748932 -24.103318445155285" stroke="#1e1e1e" stroke-width="1.3" fill="none" stroke-dasharray="0 0"/></g><g class="label" style="" transform="translate(0, -8.5)"><rect/><g><rect class="background" style="stroke: none"/><text y="-10.1" style=""><tspan class="text-outer-tspan row" x="0" y="-0.1em" dy="1.1em"><tspan font-style="normal" class="text-inner-tspan" font-weight="normal">contracts/src</tspan><tspan font-style="normal" class="text-inner-tspan" font-weight="normal"> edit</tspan></tspan></text></g></g></g><g class="rough-node default" id="sketch-sync-flowchart-push-1" data-look="handDrawn" transform="translate(304.5237121582031, 81.01192665100098)"><g class="basic label-container" style=""><path d="M-73.32981010177821 -23.99424160759382 C-73.32981010177821 -23.99424160759382, -73.32981010177821 -23.99424160759382, -73.32981010177821 -23.99424160759382 M-73.32981010177821 -23.99424160759382 C-73.32981010177821 -23.99424160759382, -73.32981010177821 -23.99424160759382, -73.32981010177821 -23.99424160759382 M-73.81966387427828 -15.581346098934873 C-71.59610522759601 -18.01577188969395, -69.56299025285156 -21.648624396029707, -66.52612568819964 -23.152484261399046 M-73.18262632343666 -15.884623865787166 C-71.56959512687662 -18.960715164401364, -69.32990715414178 -21.054152734862164, -66.73071070189863 -23.848609240657673 M-72.29544614410703 -8.539992882427185 C-69.27185117119556 -13.35887106900405, -65.70277392510441 -16.680834626282486, -60.69410590682174 -24.655847692156325 M-74.21837926859102 -7.973648470696547 C-69.04642375194075 -13.356348012025837, -64.19824506104464 -18.168560688880497, -61.037483144855386 -22.951803761672256 M-72.7841386804963 -0.8785515338131942 C-69.39930623505519 -7.561517291173676, -64.37794828200128 -12.191312753377495, -53.86482795349907 -22.92574567355766 M-73.47640092880542 -0.07287130277035891 C-67.07623070256044 -9.45900276989362, -59.804094858659916 -17.1790186178351, -53.54703241567696 -23.313495523443514 M-73.63652662854261 7.28446125336288 C-64.8374648284313 -4.4157206263135675, -55.352939002109 -13.572264815097203, -46.60342597864419 -23.844632950082083 M-73.1698125134734 6.710619677726514 C-65.81534434549306 -2.8005322329658986, -58.021153504468856 -11.262992535195554, -47.04813505260388 -23.721652107260926 M-73.59177083109584 14.458404653300919 C-62.713881965646486 -0.9379781278700705, -50.559361095038085 -13.760187117717054, -39.96716314828459 -24.423003103752254 M-72.8893487116698 14.626837125477625 C-65.02018776626066 4.52553679148764, -56.502398649676515 -5.216639860669151, -41.10852328700266 -22.969616168863507 M-72.911586683353 20.992816964853628 C-60.67571854945589 6.981154215921032, -48.668389644488435 -7.267337158332249, -33.27911359952018 -24.44833587113641 M-74.25851184955201 22.709282462858802 C-64.8422561877726 12.127471476448006, -56.45061803779946 3.204375204589835, -33.957742135119034 -24.166028696787752 M-67.92732867394129 23.349644112626404 C-55.65457234091109 8.648571171472387, -38.658351143235066 -9.475983067365098, -26.793743853535346 -23.784383669619938 M-69.83983319372979 24.63723100578709 C-56.96853753349805 9.417277254070108, -43.3927582615459 -3.966327355730999, -26.985861309783292 -23.95421468550552 M-62.27450839498154 23.607431709683244 C-48.81866495835156 6.5454235113530554, -34.43766076199132 -7.793127618395599, -20.925046141578026 -23.952731616311997 M-62.1170116056242 24.512948898672583 C-47.55661511764697 7.931515881640798, -33.258505531573775 -9.438890290936895, -20.496187526980677 -23.847056832721705 M-55.27483450718715 23.224840774789367 C-45.623126892832275 12.091311992971697, -35.708228616024215 2.72611517418126, -13.339305167303063 -23.760945523672646 M-56.39451482789476 24.2310242046745 C-45.341683138006125 13.576211737457124, -36.18223287040592 1.245580754107193, -14.136752521827493 -23.466732919748356 M-49.92374021817438 25.706302824876097 C-38.518836436316874 13.244233135481949, -27.406347706680844 -0.6025160380411834, -6.196087119987595 -24.515587683007496 M-49.596662878153325 24.01872204131026 C-39.321879905954965 12.483218784813634, -28.287776919911707 1.3056077944392082, -6.978461312503161 -23.637664757678674 M-42.06737675912814 23.3289007597044 C-26.938635118268593 6.380080045713788, -13.48675946726919 -8.075407167426265, -0.6097128355705093 -24.639815045820804 M-42.778504017463355 23.718938965394155 C-30.7651189800892 11.135417659109304, -19.003682402454 -2.8934010187455974, -0.7541404484654282 -22.99985714413768 M-37.12581591598492 24.532474096340724 C-23.87932309783666 9.360734897948797, -9.40064667372261 -5.953929925923643, 4.804533751907723 -24.0220195670478 M-36.54666233675201 24.265335105318666 C-20.04303401367571 6.564492677117605, -4.875979926505741 -10.578812358014272, 6.539206841780564 -24.487977591123517 M-29.89294831660592 25.079172088993058 C-18.362735739343304 13.833493063886992, -11.446923825409007 2.597691827194205, 12.214958776086222 -24.928749925992737 M-28.78044639807742 24.401517200682424 C-19.2232927977633 13.504575307759897, -10.23434703050098 2.7686795401277977, 12.067007130963777 -24.27425815967559 M-23.02678000424607 22.79851585175946 C-5.47377910987969 5.7012489258639505, 8.491088536731773 -12.880476576055234, 19.99659863341816 -23.343692049660184 M-22.558945813493505 24.630622660668738 C-6.814018353551216 5.507835363272292, 9.309515442307916 -13.06996558202443, 19.525277298115604 -22.802401448610564 M-17.070164402835466 23.142551086453317 C-4.55996612822544 10.276335326295616, 7.017359466606391 -3.400680513666488, 24.609676610214017 -22.689697538338933 M-15.55026597652221 24.780199580497193 C-1.1851847304740408 7.799507516008706, 12.067740776993075 -8.371935435233505, 25.926451451020032 -23.378256205519072 M-7.812208621974099 23.841189489505574 C1.8085718448973007 11.972766325421658, 11.936392807114743 -1.2004070460123608, 31.792185758953217 -24.10519761298086 M-9.100416510460322 24.591411632927375 C3.6779158722840384 9.57319511646735, 16.781894637014346 -6.119353680475695, 31.88717893090996 -23.823469246791085 M-1.2352402757581695 25.380358114073562 C13.685805215288998 5.837432914589527, 28.00538129790705 -11.112155571876425, 40.48084637287797 -24.328507697640006 M-2.909337279612508 24.832248217617497 C9.936864624797717 11.556167456957578, 20.97870219514005 -2.1771246812529066, 39.06907901042491 -24.15891627178698 M2.9502823309220516 24.73941243632955 C17.457930005656372 6.954445689031547, 35.13130022595821 -9.36022672703108, 44.42704911878916 -24.40908299914919 M4.2178762252650115 24.422621902082295 C18.36828467428108 6.849007415193665, 33.73818117666067 -9.114433224575484, 45.26061911948077 -23.836196033254982 M11.272112181747433 24.939753116253918 C20.316109155047428 13.604999818834788, 31.163944702340892 0.24589515026124253, 53.31290686074903 -23.767702400275347 M11.309805941167694 23.3655869046153 C25.515890559999384 6.50953183095687, 40.813687960713565 -9.66199909345242, 52.7779742728106 -24.218822950210544 M17.979134866767925 25.465326004441668 C28.546956621974786 10.494424553604489, 41.72610146921353 -2.8498308330364286, 59.76056642064056 -23.629151528590512 M17.3000616923334 24.247744823583783 C30.273340012708026 9.36005456694499, 43.80444579147449 -5.430483320018275, 59.55479116177133 -24.115709189146543 M22.73850554754602 25.827296913178895 C39.45283411546992 8.190430159203093, 53.653960624384496 -9.26911726162447, 64.70418246254509 -23.425866993687816 M23.09640960894512 24.131067975410488 C36.836076801648694 9.014526651702536, 51.569210730956286 -7.164066306191501, 65.20521040494692 -24.116651307681252 M30.54687159033881 23.03479256870859 C41.10306583556781 14.013679524432495, 50.118409858558614 0.9525221417741455, 72.92713115724793 -22.791573830342443 M31.211694325720124 23.478905013687474 C44.44970221975796 7.42909964586923, 59.640649056289305 -8.439641827975988, 72.24047297691621 -24.201772276696328 M36.44041214927537 24.670660599874978 C48.01943970169428 12.910700764875722, 58.321711114992254 2.7096339572107064, 74.64466776845627 -19.463845035660743 M37.15737703964185 24.3971042400029 C48.09505450544561 11.84741358746056, 60.262988968396876 -1.2457032954854248, 74.04302548283864 -18.72596865282184 M42.780130954751236 24.806476570893153 C54.93469052201218 11.516978368731866, 66.31141281841269 -1.0162323813868754, 75.27394582139755 -10.413526184246166 M43.63477885504406 24.788701014301232 C52.215263719968604 15.069835816187778, 59.90184217649243 6.228499488340859, 74.52324874144601 -10.70694162800289 M49.266943752312066 24.690448558193864 C55.6802544539044 16.31473062207224, 62.429586655339975 12.398061915848858, 73.7977175182219 -4.292990174396241 M49.86903062311763 23.855667532228146 C59.52328202128212 13.741931801395127, 68.29696819694078 3.196663475648775, 73.71950804233063 -2.9809294420106958 M56.1452432268032 23.21410607498822 C61.660547864432885 16.71368806216371, 68.08131718092399 9.456589652057113, 72.8594713949374 5.495351776223608 M57.454390819418826 24.295423495478524 C61.01422086195453 19.6217980465171, 65.0519671035432 14.929350134393028, 74.33356899165577 4.565920974703638 M62.28759704944919 24.14393127110926 C67.16479246250228 19.738173350723265, 71.449535949509 15.926796077744312, 73.87243858706036 12.780783238376483 M63.44290479511674 24.508133076862915 C66.44950449627567 21.060762210978414, 68.58871048266022 18.115751108985062, 74.2388069866006 11.828828315040735 M70.54858867081303 23.81321794005124 C71.96935170529157 22.64337533053066, 72.98804251434593 20.755741600890506, 74.64057842448364 19.282991397124956 M70.44164166928513 24.176075680593602 C71.4681743904825 22.77059219315749, 72.88240036560232 21.150962625234495, 74.44871823606893 19.428083599247465" stroke="#ffec99" stroke-width="4" fill="none" stroke-dasharray="0 0"/><path d="M-74.53495311533452 -23.22319091386118 C-28.714063435350074 -24.352770277693054, 14.612174468313379 -23.428177425093708, 72.2946530853864 -22.91733210573898 M-73.72348233600911 -23.798312789281393 C-18.781750338208845 -25.04255134915059, 36.89011422398846 -24.810004568662958, 73.68461818054027 -24.198368277433996 M74.8931876473013 -24.313300401484714 C72.80480265351241 -5.128567904592652, 74.031999685535 14.845417150584229, 73.38533617455079 22.436487444996683 M73.00450897641282 -24.340149622862405 C74.0047667305138 -12.819924070877043, 74.23799543180358 -1.3204544868579373, 73.38162368015058 23.338723105924707 M73.67039217183998 24.581292181250657 C30.56610442615705 23.49131741307611, -12.964346747014142 23.594362216862713, -72.71437714897779 22.84317851461816 M73.92785124071588 23.074693393149268 C37.721363873507045 24.334549189930698, 2.056042942965919 24.30931946400612, -73.62131690192524 24.266141137299112 M-72.76493901694161 24.44969882458573 C-72.20688943497665 8.051202374958361, -72.6020885443183 -7.045179900252817, -74.01984251241576 -23.875367133271304 M-73.7540743122508 23.24143360064634 C-73.32019965534826 6.486587388748921, -73.537494461707 -9.375775451642893, -72.8702465390201 -23.104485903573927" stroke="#1e1e1e" stroke-width="1.3" fill="none" stroke-dasharray="0 0"/></g><g class="label" style="" transform="translate(0, -8.7265625)"><rect/><g><rect class="background" style="stroke: none"/><text y="-10.1" style=""><tspan class="text-outer-tspan row" x="0" y="-0.1em" dy="1.1em"><tspan font-style="normal" class="text-inner-tspan" font-weight="normal">git</tspan><tspan font-style="normal" class="text-inner-tspan" font-weight="normal"> push</tspan><tspan font-style="normal" class="text-inner-tspan" font-weight="normal"> main</tspan></tspan></text></g></g></g><g class="rough-node default" id="sketch-sync-flowchart-action-3" data-look="handDrawn" transform="translate(654.0121994018555, 41.9552116394043)"><g class="basic label-container" style=""><path d="M-92.1084591657642 -32.36819423292906 C-92.1084591657642 -32.36819423292906, -92.1084591657642 -32.36819423292906, -92.1084591657642 -32.36819423292906 M-92.1084591657642 -32.36819423292906 C-92.1084591657642 -32.36819423292906, -92.1084591657642 -32.36819423292906, -92.1084591657642 -32.36819423292906 M-92.94239736600207 -24.758826361271407 C-90.16107709520462 -26.896907377172006, -87.57540053869278 -30.589802780543067, -84.45421251863097 -33.4113315027013 M-92.35311899012862 -24.202686721409734 C-89.16860153690436 -28.136556451030792, -86.395644206598 -31.191674470850742, -85.2841744454349 -32.89408169048828 M-92.26892155351763 -18.192179329716602 C-87.07502657433133 -22.309522921211183, -83.70805151317037 -26.31410168302736, -78.57141612563882 -32.730230868529915 M-91.38509537774907 -18.102387539422807 C-87.29661674650352 -22.594877526525714, -83.97043562342772 -27.237582461548886, -78.84874433548302 -32.407942826756326 M-92.61163983835026 -8.839506126784407 C-86.47227408706223 -13.675162817917387, -83.78811496802078 -19.919473592006522, -72.77430403845347 -31.060910330858206 M-91.5653310606276 -9.307691086523512 C-88.02969110316414 -15.566552029490737, -82.4428246329636 -19.82060264105832, -72.03003627645965 -31.914059601642634 M-91.7171648349803 -3.2444322760354822 C-84.23343131722203 -10.348828124970105, -76.08535958669171 -18.831179769282205, -66.27126742868222 -31.991962570504672 M-92.75097139797296 -1.8379249176803438 C-82.67296285745012 -13.853741410757092, -71.84569963491477 -25.74201884393028, -64.93288128246857 -32.813966093493825 M-92.81207400612668 6.7601849068489726 C-85.47321753117825 -3.5586452195883442, -77.22628305580236 -11.730767892742636, -58.287213840909786 -33.90976261536458 M-92.69588911800741 6.481945055007629 C-83.06844068093848 -4.020161380979969, -74.45159586560735 -14.049998619496078, -58.56015236162706 -32.962618847502796 M-90.62255583374446 13.316408712793532 C-84.30782762567308 3.7133368777495877, -74.7455180865811 -8.002276265385785, -52.18281503760947 -30.955831338238486 M-91.30877657815066 13.491689881270077 C-79.96743012972136 0.2179228864516365, -68.54061997415121 -12.952360978067937, -52.269230678948915 -33.00823560771279 M-91.4526598153819 19.51241570870292 C-74.28813709902953 0.8115268608293821, -56.831823436730105 -21.801716283244033, -46.11922771869102 -32.92006170188255 M-91.37346375419918 20.825425466016245 C-78.04894126612992 4.484834431349232, -63.40282044490411 -11.359782023077113, -45.377021195591674 -33.31612938989641 M-91.17243978646759 28.92678089447236 C-81.44936011228889 14.628686062926116, -69.56793779747623 2.589623881308627, -39.54378844143393 -32.828469461190956 M-91.90423653687994 27.904959952122912 C-77.7785983429718 10.959408900471951, -62.202452135397024 -5.432675773245669, -38.46650499210158 -32.211162745555164 M-87.72547749527675 31.749474231606328 C-75.9572214527178 17.862366901527786, -63.037676558448766 4.236520963249193, -32.07922433299549 -31.04303116110333 M-88.40533462053648 32.997128793969125 C-66.11271345866058 6.975584488947081, -43.905888878216096 -17.85122969235145, -32.943083354663436 -31.728063688377805 M-82.03250111761844 33.803281118497566 C-67.38263237571172 13.7847086706608, -50.43761882217994 -4.491078932832623, -26.5745650554108 -32.52774825493073 M-82.37182395892566 32.74817779134535 C-60.80005786139975 8.481073759099973, -39.659193031735995 -17.264502483768034, -25.09460657175157 -32.87583176738046 M-74.3352572335608 33.12889541343011 C-54.74968125977209 9.617594498349582, -34.241939116025115 -14.817938080367131, -19.08393543249206 -31.25666648921577 M-75.63331758331752 32.0899109075399 C-57.41566985348669 11.346529661618577, -40.263517798729765 -8.45515791169356, -19.625908628297243 -32.77407319399676 M-68.7337061323811 32.147212320887014 C-55.40075916391261 17.631060678520488, -44.68636014264957 4.831108949200088, -12.959760716887061 -32.00031242568451 M-68.57220111967658 32.31618831604544 C-52.96143206569641 14.159428965441185, -37.39475251232365 -4.042940413872283, -13.090045537787457 -32.92278232538389 M-63.713813902173754 33.415242419691026 C-40.99206131720722 6.050813648969266, -17.026922647918912 -18.43590608609991, -4.489087623353594 -32.527639841327634 M-62.345156621706415 32.29584773389262 C-45.32431061135457 12.113866302760188, -26.42064650494621 -8.602540535516592, -5.785689007730573 -32.15110974047996 M-56.606858711426746 31.137026021622297 C-40.66648208419897 13.838708493149468, -25.37655331885133 -4.576824878130292, 0.6324671862579886 -31.859117702053677 M-55.332240923436935 31.814411023927725 C-33.59093496960879 7.619726623119105, -11.142571838575456 -18.635785784193224, 0.8517114107437498 -32.826834360405826 M-48.21355859421137 31.291096088273502 C-34.486860456171954 15.045831724060179, -16.524422602661364 -3.4651791954099993, 5.759687447747599 -31.47715008894813 M-49.38707722128426 32.110023550762435 C-33.232766697774075 13.308731259179902, -17.069225366786878 -4.885073029362767, 7.400097767638333 -32.02115245271474 M-41.9387042521791 32.86530118788121 C-22.949579532975402 10.129539608377348, -3.5015164206536147 -13.310979505184092, 15.07946279163418 -33.83314159953635 M-42.667820573852616 33.17387528808938 C-20.999500542642497 8.9247987225611, -0.004677741527008825 -15.628400284040264, 14.259888503633757 -32.23486149536304 M-34.96005063328463 31.87500852507047 C-14.277448052887527 8.108765987684556, 7.548696684845178 -16.752119282736956, 21.426539556598065 -32.41655201710027 M-36.24161797596902 33.104177584851556 C-19.492197653426057 12.919382701169587, -2.160258795527977 -7.887929163843292, 20.607788185011312 -31.810798545737192 M-29.400728067371453 32.64558404286174 C-9.921703905229057 8.791302502427596, 11.11226070422967 -15.12298703430554, 26.8354665636098 -33.55338986629579 M-29.217683464110205 32.852551890576365 C-14.696558928348338 16.37381705425948, -2.007163510687692 1.7030767639762274, 27.101790663693638 -31.8703680068108 M-22.08425966523935 31.931917284110927 C-6.792129712882232 15.678485885395567, 8.960782956046435 -4.561942647756798, 33.26670407414867 -31.981326940358716 M-23.729982900933006 33.128815947987434 C-10.692525213434974 17.29347466281572, 3.489181454988051 1.9875926394712997, 34.477537670982834 -32.02380383736203 M-15.911074388917946 31.849441939751998 C4.336835721884679 10.818998176554325, 23.046081209834885 -12.412003739872345, 39.356170741851145 -31.2661301345966 M-16.183412505413173 32.262739104275944 C-4.56797189052327 19.13233266809716, 6.654891741140607 5.769755648015806, 40.67078074652902 -32.925816974619806 M-10.400994315708555 33.42505585328008 C12.07543376745769 6.745752019903545, 34.757506560055766 -18.86246518829122, 46.508948925924194 -32.15686135968598 M-9.111387884631478 33.28557586159206 C2.7668383675232726 17.416917811579, 14.829431497515714 2.869021295472834, 47.297456639387875 -32.558079869011536 M-2.6037485135950145 32.83085305608504 C13.089499711627155 14.814182344240969, 29.657804217811044 -4.699816087442906, 54.92577422404887 -33.327565260036245 M-3.6490972671290622 33.34292287516221 C14.897508803396292 12.865382120794123, 31.756451718724062 -8.292206005180926, 54.17639331120182 -33.148951875202336 M4.9887917247317475 32.617636070962064 C22.412454056582938 12.534708503235366, 39.84068650458061 -9.216034207308399, 61.32221493212431 -32.55984312338965 M4.156501796074489 32.82946441636604 C21.16201624366244 11.975346503617967, 39.52219702991234 -7.9593862665337785, 59.820652000899486 -31.926705410297807 M10.90901565385083 34.00065711601562 C23.232818680908167 15.787587013059056, 37.152224806980236 0.42862148764474994, 67.17830444628936 -33.341361261974676 M10.21457114452356 33.033693444039 C27.51820064605702 11.026927453829554, 45.94144107263258 -8.714755209390345, 66.9071953603997 -32.58761488913707 M15.848610006284849 31.98638758950107 C28.322994775921 17.56827801537378, 40.926247626258686 2.8420162992789417, 73.21653320252975 -32.71906581604758 M16.113337937342752 32.76268119807134 C35.31822082365193 10.20080669186664, 54.59830002128174 -11.443590888152013, 73.9676913007393 -32.239527151796054 M24.19319882765642 32.080293061651766 C41.95409561354097 9.224364111025626, 62.13641094461789 -10.63377563039656, 81.13684217144286 -32.582723101898004 M23.205965095807617 33.18012111089135 C44.90765668408026 7.2113146003093735, 67.9345793978236 -18.312891294417764, 80.81690555467816 -31.960473177578343 M30.439880039749212 31.947200047100004 C43.44507953180872 16.471059415150776, 57.041095493547516 1.197010722357259, 88.4569660775051 -33.333611000368336 M30.07674816280646 32.48755347463791 C47.088010550314536 12.76904267893749, 65.63607593260306 -7.389012650417799, 87.32194815244476 -32.25584015767367 M36.06341856571729 32.8402138177857 C56.34187162856135 10.322803210142974, 74.91302113013442 -11.43415019938212, 92.21558001619967 -32.157758796774516 M36.00346323896484 33.35324992599 C54.36837009111007 11.307395882326622, 72.83708005445024 -9.639845698269582, 92.42887963400919 -30.56641730328106 M42.63563271688033 33.09211322844872 C60.418343718821525 10.934125263839451, 77.42563901142448 -8.652476379297985, 91.13228841465856 -23.677710041474302 M44.21482206445345 33.160594426496196 C56.91497901152791 17.359507075714497, 70.25312352821955 1.857734958449833, 92.58213351137613 -23.843308306095768 M50.00096718417847 31.637907458037073 C65.02507768092505 13.954492142755063, 80.36267154721101 -1.9944372849355465, 90.96915755522022 -16.30580359549933 M49.864320412089135 33.02351299900973 C61.7644328240023 18.505397189993516, 74.21415803763938 5.75559547244368, 92.57786066385168 -15.508771884756467 M55.844025255695385 33.13253515632511 C64.88710799965075 21.544525462010334, 76.70073833650765 9.625667359843353, 92.50152350986589 -7.684635116885042 M56.166344381667614 32.7861516339158 C64.20983614642637 24.251079898197556, 71.88731942163568 14.287692443138633, 92.2796380502663 -8.09769682590204 M63.52502888367687 31.590783218406465 C70.52922848999778 24.2843307870344, 77.33351488175524 16.223688418353525, 91.03294651751524 0.26603121168670396 M63.1368963927774 32.64186457734547 C74.36207633901955 20.214739021143792, 85.33913670156717 7.219850863892453, 91.64216605732858 -1.0866429763826526 M69.68870953386177 33.56245719793004 C77.1774055082724 25.317160483975687, 83.14304378159535 16.31561099555975, 91.17508352578623 7.2565409471881335 M69.20317117649022 32.2632482426255 C76.76928197615632 23.80767434963647, 85.61305253678844 15.404148329161075, 91.55007191172871 6.5335919763358845 M78.0880104815033 32.50691706123176 C80.08567025895569 26.926972114840044, 83.64064594674834 23.569888467103787, 93.01832600615599 13.802822168203184 M77.3103566674833 32.84979762269362 C80.81721774140912 28.054361982014278, 84.74123288195234 22.715843596793043, 91.7985920459999 14.464315330418875 M83.1367788562428 32.640770128319915 C85.81986641370752 28.794750029373983, 90.53416784118821 24.329070386693406, 92.41222376703715 23.103542631699185 M83.09716030383495 32.33922999506924 C85.1424273146957 30.55927205175782, 87.27240437110945 27.979412945359336, 91.92717769004896 22.95930852717154 M89.58512411806564 33.07748641264177 C90.5844087734956 31.97232464567429, 91.1579197708189 31.37245291924447, 92.1246710921425 30.131886352069177 M89.7624671370484 32.893563125322736 C90.38358095935554 32.110771061512146, 91.26520079018545 31.099033277978467, 92.42728183630797 29.80907906073813" stroke="#ffec99" stroke-width="4" fill="none" stroke-dasharray="0 0"/><path d="M-92.74760246438018 -32.15634195217081 C-31.757442642019065 -31.54481727175485, 29.16290679809951 -31.276010640629853, 91.90237729868693 -33.138298658012985 M-91.7147192033288 -32.990183371385136 C-44.34709789260893 -33.48805223653336, 3.071424053661839 -33.37369270728182, 91.43361380482416 -32.83486281532384 M92.762238643562 -33.42787000482718 C90.89964143794573 -9.576776756375743, 90.87573844646882 12.615974237666617, 91.82211719265717 33.42389511710166 M91.34356127726092 -32.169531549441054 C92.14216766590218 -5.920691212862866, 91.49055078153859 19.902782055258726, 92.39912605765666 32.0871314819202 M90.71348196343004 33.715449923047345 C23.987953657906623 33.83651698861136, -43.328773927346425 34.25952953271385, -92.27891829963687 31.890068401906493 M92.1157147826658 32.48288974143329 C38.700478278193046 33.8191384532307, -16.37720783298395 33.76857457524971, -92.42608293263244 32.1650680038443 M-91.21260122435208 32.16819282303871 C-92.20348312563208 14.357693682196073, -90.99880474366914 -3.8510177638509973, -93.05596867346945 -31.42726293901684 M-91.37260589689932 32.463856583278826 C-92.30616500334416 10.11500757417171, -91.2249881128432 -11.982658079626708, -92.45275239265648 -33.00400763606119" stroke="#1e1e1e" stroke-width="1.3" fill="none" stroke-dasharray="0 0"/></g><g class="label" style="" transform="translate(0, -17.510936737060547)"><rect/><g><rect class="background" style="stroke: none"/><text y="-10.1" style=""><tspan class="text-outer-tspan row" x="0" y="-0.1em" dy="1.1em"><tspan font-style="normal" class="text-inner-tspan" font-weight="normal">frontend-sync.yml</tspan></tspan><tspan class="text-outer-tspan row" x="0" y="1em" dy="1.1em"><tspan font-style="normal" class="text-inner-tspan" font-weight="normal">re-extracts</tspan><tspan font-style="normal" class="text-inner-tspan" font-weight="normal"> snippets</tspan></tspan></text></g></g></g><g class="rough-node default" id="sketch-sync-flowchart-vercel-5" data-look="handDrawn" transform="translate(654.0121994018555, 150.79520416259766)"><g class="basic label-container" style=""><path d="M-68.59064199208346 -23.849584601601016 C-68.59064199208346 -23.849584601601016, -68.59064199208346 -23.849584601601016, -68.59064199208346 -23.849584601601016 M-68.59064199208346 -23.849584601601016 C-68.59064199208346 -23.849584601601016, -68.59064199208346 -23.849584601601016, -68.59064199208346 -23.849584601601016 M-69.29639422379654 -16.16840943481809 C-66.92429896174866 -19.078097410731, -63.71810617003733 -21.533090722073926, -62.50029673952429 -24.11922263394906 M-69.0702357464512 -16.156283397486792 C-66.44845649799062 -18.817071640844674, -64.14103079325032 -21.25484981581484, -62.06780680697583 -23.36298360910333 M-68.08767258460708 -8.471883064395794 C-66.54984425596024 -10.485864588903329, -62.70439934437537 -15.39673227237631, -56.36119280736016 -24.50448978672472 M-68.42753828969865 -7.967003780508752 C-66.0308876178126 -11.968198316177299, -63.40266762861545 -14.943962719850479, -55.79928135850108 -23.386961732499895 M-67.8310436168652 -0.20588462462919654 C-61.6195240073942 -9.93338910680265, -55.57901864946808 -16.735757555762614, -48.08840863000912 -22.643857029427597 M-68.5645570272958 -0.08812378521960984 C-61.42849548533012 -9.097640520946145, -53.08428489844766 -19.187637898760038, -48.712982085356124 -23.500640178662163 M-67.70894001426184 6.066057962188212 C-64.45604387331298 1.0037494361318684, -57.893455252349135 -7.2477984482325075, -42.52370531642426 -23.186396976823964 M-69.25099110575708 6.709166908079608 C-62.21937879005955 -0.9013490890157516, -55.101400335087966 -9.385207296696086, -41.729607671320984 -24.189113057157975 M-68.74859187359199 14.752074591489027 C-55.77006690100729 -0.5725699705328748, -44.31404725535872 -13.25672824307863, -35.12487408575978 -24.172500714759906 M-68.59701334799392 13.933338753103957 C-59.93146157165326 4.089822286257028, -51.274671958798365 -6.17927060694984, -36.131577924704644 -23.72110328395866 M-67.79837880041876 22.98261920814136 C-58.29120812467701 10.48007051452455, -46.42931848104772 -2.862344976435223, -29.34771593728335 -23.898420150115076 M-69.48139152576981 21.737698050260025 C-56.450688952257984 8.208873873643878, -44.459776431992076 -5.948021020386703, -29.07956883430064 -23.452327296126864 M-63.18942437275157 22.082619794836575 C-54.01575625880313 12.085432518107796, -44.41529044884624 2.6619919302699584, -22.287143398094038 -23.3283381019558 M-62.88905567933697 22.702995904913216 C-52.16354791897073 9.756218550579451, -40.87273138732354 -2.510348038947529, -22.62692478775569 -23.457159079503654 M-57.237715191217774 23.374135421078737 C-43.03396263606602 6.670896656457121, -30.557895356462822 -6.111530782211032, -15.97926134669282 -22.02939142470372 M-57.16293266451401 23.184984734842207 C-42.836416655749424 8.234962790220418, -29.945181179741578 -8.016916588583193, -16.769822390245253 -22.88438264322467 M-49.046445970794146 22.465070615151706 C-40.25044645696282 11.658122825789876, -28.09283180659799 -1.5115710479777018, -8.186432040466903 -24.828458711537053 M-49.89544522699066 24.439724545031012 C-38.08110564467221 9.171503065110041, -24.80770322547324 -5.045446939289314, -9.146711727073574 -24.17828412688508 M-42.365164943303874 22.2933450148651 C-33.656451380735724 12.12454680875087, -23.856939161528775 1.50133254272332, -2.5742793815753244 -23.01572883409361 M-42.75455021236355 23.670923883272323 C-32.004969296283576 10.766433026108896, -21.948782662762593 -2.3612830667472657, -2.7406092964905473 -23.205871800573583 M-36.90378312271673 22.219160106323088 C-21.751475216596607 6.471057189416119, -6.052195341241441 -11.791488966487243, 5.101980349343475 -22.51029781961599 M-37.21564999437933 23.581663689028836 C-25.696301462167725 11.072691055582679, -15.301581510245482 -1.6272342719437032, 3.1782151868807538 -23.396308222988868 M-31.239854380182347 23.620524095203557 C-17.34905080109198 9.443514856518295, -2.768168677446664 -7.052758936524734, 9.82598142996588 -22.77518274943589 M-30.21082167638468 23.917051707413997 C-20.310823743888832 10.979793483073818, -8.25361106971767 -2.320588021075597, 10.844936914764109 -23.550157901321313 M-22.498609579459043 23.906276866627213 C-14.19110035345348 14.89706507643891, -6.753505200556976 4.340530210969878, 15.921090381756107 -24.48491000644548 M-23.11961398714124 23.854955075792187 C-8.778172083110581 7.821726991930271, 5.252516903722633 -8.88848804735614, 16.638116772198803 -23.179714322026385 M-16.942700664130527 22.85283378277534 C-0.26360203825273465 6.349720377883846, 14.784196037859228 -13.300457050813229, 22.32364806002051 -22.87450130233869 M-16.42363711377241 23.781003995538924 C-8.429101763909184 13.995965229196353, -0.16689290242888055 3.509536185013684, 23.859575263365723 -22.69251258603999 M-11.94777588789381 22.7794967781805 C1.1318421386638575 11.387275470679457, 11.022275143457303 -2.674441821693561, 29.654866247264085 -23.66226496412682 M-10.036132801366685 24.193973010684303 C5.05512075566238 5.253808219752694, 21.329999091526666 -14.113711520285214, 30.45438968515228 -23.46092948887112 M-2.6819688329038858 22.935548956879618 C10.786172598956309 6.762307943536174, 25.90600388253167 -11.059166074876684, 37.27909250650984 -24.721103959944333 M-3.4229925547467106 23.641811391305865 C9.726410947881199 7.270932850475244, 24.369476349530807 -9.236187098976522, 37.588551042221034 -24.06021806316694 M2.7931211149475863 23.364258097007518 C13.731079802858606 9.205950268864918, 26.027418255292694 -3.3254546099075455, 42.77962033050571 -22.497315767118007 M2.626506518093801 24.244240833561246 C18.21628738322507 5.930395678560456, 32.54458084514688 -10.667540695962318, 42.75959946485288 -23.674098392446126 M8.03407037256996 24.427351211150288 C24.307886214640437 4.3448106092639245, 41.80331216697964 -13.615395394430285, 50.23358304901732 -25.06160737599615 M9.75509899531766 23.791092370027705 C19.56424597535173 11.674585858205448, 31.348060483188796 -1.0540687601293741, 50.73580428520203 -23.65243614388691 M17.293083354096588 23.137099585353354 C26.985139581494042 9.29761627857405, 40.27211234142472 -2.6639680564894395, 56.0958613873763 -22.52430412971847 M15.6473883554225 23.02369407682651 C29.101810332728164 8.46529478246255, 42.05291891664391 -5.990807803272976, 56.64831869111446 -22.770159998037858 M21.853537982126173 22.282731780791437 C34.58161059026953 8.727241175072187, 48.39699459458411 -4.825789845892106, 62.08285639695036 -21.807318388200414 M22.828596395236705 23.59376886094088 C36.05275631488427 7.724930854535501, 49.590591349520004 -7.267733141376274, 62.90601495856438 -23.35179004029204 M27.785114431506504 22.63758539490079 C45.20441317947324 5.2307083667983, 60.57824674308854 -11.587132267950542, 68.27457455300777 -21.787385207352383 M28.716656453434766 24.28245911589751 C40.66747693937625 10.396389487400423, 51.47976164073804 -2.0424004486043255, 69.57002370217548 -22.647744419486564 M35.30001413888882 24.347113679227522 C48.53541783410475 10.09223582405731, 61.29815599265161 -5.636756527021362, 69.55713904067245 -12.98576992022732 M36.32388741673378 24.04476603680795 C46.404833556491894 12.521207504762309, 56.07427058564145 0.5552833341766519, 68.9112324822109 -13.652212142038328 M41.66985535987827 23.17176307718054 C49.80214468113418 13.23228240875527, 59.867752720804106 5.458474918917739, 67.55151131866663 -7.680667451312422 M42.20652901849914 24.157579339238005 C52.72917422067673 12.137771045644612, 62.745873800687264 0.5840050637931604, 69.09071014239917 -6.8957904441725155 M49.62173988976115 23.154736264261018 C55.24784888891874 16.552968152101904, 61.72170490608792 7.748756914889558, 70.26848199114244 0.6023265224255128 M48.214318780897685 23.921079983489268 C53.03364034671239 18.766851679341176, 57.443927993770664 14.381036097974645, 69.36601120519612 1.043432224678081 M54.608867290139735 23.06224428777954 C59.33366967986721 17.30102532871428, 65.22824469453333 14.521121788190607, 68.88519872614268 7.999857659243714 M55.78561784332427 24.06707096447584 C61.641705104627114 17.80152347383386, 65.9013470959907 11.111251942758805, 68.6660827402151 7.866508382145076 M61.72469145029927 23.83837474552293 C64.35421873305187 21.12595920686899, 67.28249082665262 18.22324508398685, 68.95145716471151 15.464874663405324 M62.631234450128055 23.905883657744436 C64.09524903763524 21.89050474896523, 65.0885836801072 20.677854390178293, 68.57398180899813 15.82424472581921" stroke="#ffec99" stroke-width="4" fill="none" stroke-dasharray="0 0"/><path d="M-69.76385840579209 -23.064922988334583 C-13.661250117473683 -24.80062767978018, 38.878821039992346 -25.283726615352055, 68.8296890683384 -22.250566859110535 M-68.66528544124684 -23.185320062634638 C-21.44826771900762 -23.845373998331137, 25.811750918230146 -24.141943939946206, 68.7167727444809 -23.47996325973868 M70.1035665260314 -22.98319156442987 C69.09044396646739 -14.047572372693592, 68.38633307672518 -2.815185271476201, 68.57919601932903 23.436600990976196 M68.24246009210769 -23.161638211988286 C68.81298857227647 -10.652227784425015, 68.10871839721383 1.519203987418436, 69.13564852570669 23.989433999972853 M68.06399269655951 24.659983899358 C19.4311129787049 22.99328324387089, -27.660384043806626 23.851938947852954, -69.50884765174457 24.707954915753472 M69.43629636696213 23.465826666551564 C18.116224968552768 23.06668370975699, -31.626172222745193 24.221835737346428, -69.4954187539177 23.828145827953353 M-68.53496090990603 24.245359475810684 C-70.26970089735497 11.712148117118412, -68.32916564948903 3.132205821458888, -68.58048551407305 -24.807491490766004 M-68.31329473427034 22.843289365891017 C-68.72890643860383 5.87261972163357, -69.41379482127091 -13.082279884151207, -69.34865455581097 -24.190272928890277" stroke="#1e1e1e" stroke-width="1.3" fill="none" stroke-dasharray="0 0"/></g><g class="label" style="" transform="translate(0, -8.5)"><rect/><g><rect class="background" style="stroke: none"/><text y="-10.1" style=""><tspan class="text-outer-tspan row" x="0" y="-0.1em" dy="1.1em"><tspan font-style="normal" class="text-inner-tspan" font-weight="normal">Vercel</tspan><tspan font-style="normal" class="text-inner-tspan" font-weight="normal"> build</tspan></tspan></text></g></g></g><g class="rough-node default" id="sketch-sync-flowchart-extract-9" data-look="handDrawn" transform="translate(898.9429092407227, 150.79520416259766)"><g class="basic label-container" style=""><path d="M-100.7618321562471 -31.94037865084013 C-100.7618321562471 -31.94037865084013, -100.7618321562471 -31.94037865084013, -100.7618321562471 -31.94037865084013 M-100.7618321562471 -31.94037865084013 C-100.7618321562471 -31.94037865084013, -100.7618321562471 -31.94037865084013, -100.7618321562471 -31.94037865084013 M-99.99802010384471 -25.293455214420202 C-97.74844738021034 -28.13396835294211, -95.70456129505617 -30.174251428971033, -93.08380122263327 -32.52828458468933 M-100.58674993129956 -25.199543388982818 C-98.69814272036712 -26.968368230872038, -96.97815971795525 -28.183199188802675, -93.87751686072252 -32.497448100883794 M-101.09262791125924 -16.116637918385543 C-97.36782624648767 -20.852956035506335, -95.14180628345052 -25.62905932244531, -86.24316390092199 -31.414825293696033 M-101.05025070687424 -16.41618779511888 C-97.93935938007516 -20.86210400791941, -94.31169232023895 -23.69362626443562, -86.92508421051615 -32.22154955760101 M-99.23765370984353 -8.979291869653334 C-96.6093183122011 -14.816640328735817, -89.59599172343 -19.555607984867386, -80.05111151835014 -32.27547529213245 M-100.41592650043147 -9.010981169883804 C-94.73419459785185 -16.478281105153684, -88.34359571983224 -24.216540451854314, -79.58106661835856 -32.01657759111941 M-99.53143497238543 -0.7120629791857902 C-91.12799598227573 -10.681058287860456, -82.50402620280778 -20.087376370845067, -74.57545913597477 -31.380990946699786 M-100.46116272357222 -1.7806514172770957 C-92.32765476723253 -10.096511723206467, -85.16187790085826 -19.61767094394053, -73.85867453171527 -32.76223747018186 M-99.85314768320431 4.715125460210403 C-91.40924133016624 -6.575759421389273, -81.00753420598691 -16.81122776651778, -67.65010647259308 -32.08427884483841 M-100.52074832172765 6.167354812911412 C-91.9332779805057 -3.6328437319041327, -84.5018734771453 -11.8712807395651, -67.81646412325398 -32.40843765276198 M-101.80448643308482 12.65557199383276 C-87.28794637087152 -1.501778748909032, -74.50208485600868 -15.193211039692642, -59.81156991741737 -31.69209280045194 M-99.861009718604 13.685701191815339 C-91.03017411945005 1.1882808610316902, -79.64764307847567 -10.010716398409675, -59.97628939473489 -32.11776100457615 M-101.03980559657049 20.811047157374723 C-90.64861007319348 7.717947272811498, -78.89057258384035 -4.123635452883949, -54.56349561296936 -32.729455698532874 M-101.1435606819842 20.82501094113294 C-88.90112722313971 7.418776231827682, -78.3907841572091 -4.843051477471986, -54.226991313496335 -32.176585736549264 M-101.43459623970669 30.200348805068064 C-84.26678572788288 9.051345124964168, -64.98173381454092 -9.272427064248912, -48.4809089020118 -33.250087911340216 M-100.94812045253174 28.47612239875448 C-82.3256928240787 7.214379128349757, -62.681636110515065 -14.765530378111308, -47.49296213869447 -32.52458236867211 M-97.44837473861526 33.09598235165584 C-79.00513740091438 12.587382986505109, -62.24139627997633 -6.93533356018321, -39.34978839874263 -32.67617703982151 M-97.55527445909921 33.58753687919903 C-74.56326707740757 8.0265210609244, -53.47317777322483 -17.188813277732503, -41.240795413757404 -32.86218015967693 M-89.47305824026172 31.572225568931053 C-77.99867172123179 18.8902954834984, -64.97020684809661 4.30380231781715, -35.52763327481376 -32.05691125629642 M-90.43959888720366 33.05140436235009 C-77.1939589518371 17.038639275762137, -63.64326027160476 1.9817538245774968, -34.61990342263308 -32.77025090725917 M-82.84095698745905 33.33647591836236 C-72.83324200337285 18.710512958778292, -59.28841981354743 4.41169232113034, -26.8686000514602 -33.32978404434563 M-83.95685804088643 33.3264331730056 C-67.4938763604971 13.319061688461328, -51.065059418430344 -4.8731644586818055, -27.49226107426677 -31.49743011449294 M-77.01343972721774 32.46054208327601 C-62.509621301510656 16.466044615677408, -48.694527261286645 -0.2350956320938744, -21.86027380966872 -31.852126031348956 M-76.7161555983231 32.63296775920633 C-64.09127293161683 18.402704883394954, -51.93873211871622 4.0533082478047024, -20.193976793951954 -32.16179304008929 M-69.57984971608528 33.32909475434693 C-56.796083182429356 16.214576462575977, -43.04258249153638 -1.4690629718079213, -12.915127878153086 -31.568601684247476 M-71.00801783462676 31.936326267885764 C-53.18676864772003 12.873694099714688, -34.79675393056607 -8.860615423883871, -14.551911130619118 -32.71698689595011 M-65.11622704252925 33.63314603204461 C-50.60197561147605 15.590738948135915, -35.39055758391482 -1.1421745230588147, -9.150255366142916 -33.079666610098506 M-64.03635176580201 32.629786624677564 C-42.319549890501094 7.913537238342765, -20.84565482601171 -18.17570500629776, -8.43943419325354 -31.60359689291792 M-56.68831742264186 33.6957379043251 C-35.94540841029849 5.734221474370751, -15.006568213498861 -18.9567293865505, -0.8591776582522921 -32.79621984912716 M-57.779132396419186 32.455723415811676 C-44.62843114289559 18.317775570622402, -32.8509987908481 4.440014858133784, -0.6779883907709224 -32.23495901231828 M-51.71025793600147 33.83904127843091 C-32.731828452833554 9.842757298522061, -13.351719192035489 -11.962942383498829, 4.581365692377768 -32.38539840346933 M-50.31924941339234 32.501521294262126 C-30.148580869925492 10.852369807244587, -11.750361753324169 -12.273231669842618, 6.220927235159401 -32.007250976191486 M-45.23187226232736 34.03198108071864 C-22.677927754782896 6.393147173276262, -0.36487049912039016 -17.29446676634178, 12.814439454390449 -32.49522535577129 M-44.45431759028294 33.034599559947345 C-28.68607998777264 15.215206443374543, -12.912121202559131 -3.6668699391751636, 11.308712565618961 -31.417829856165138 M-38.6998198580543 32.71961054469968 C-24.39548461330331 17.344888020017002, -12.413044818153915 5.178269473457513, 20.08944009673466 -33.28068801406488 M-36.83346766656775 32.69686946447723 C-19.833345432891562 12.31567089839298, -2.8596518502990596 -7.000860753537178, 18.70164192377044 -33.21636284567685 M-30.268651748311193 33.10170349013768 C-17.97667845865718 17.62268413723345, -2.6814414662708077 0.36356969976229336, 25.206807622876926 -33.50338625656657 M-31.240522308277058 32.1341064974275 C-11.739131327963863 11.11372187205045, 8.03946311739315 -11.270729917028651, 25.246141978099946 -32.85674513324288 M-26.008578702440467 31.835752982157544 C-2.1411562167882425 7.172155211682241, 19.562881493279487 -16.882103438716577, 31.555108429876345 -32.17791060848091 M-24.30934248780136 33.22793760930222 C-5.012440804181855 10.779630944673102, 15.377789921062432 -11.740708349001439, 31.39142184466775 -31.821721402025137 M-18.105794000656694 32.553010312695136 C-4.778873257596317 19.017134611232752, 7.581950224760635 5.397833577843737, 39.72745540572557 -31.20599560542402 M-17.163814034871457 32.77617974833317 C-3.5453568786168823 15.213738805605624, 12.00059974073088 -1.2908708008151981, 38.273685012602044 -31.825369159790153 M-12.436909401094239 33.439764356744035 C3.546982712543433 15.447173294381795, 19.860043566346118 -3.611510478497165, 45.38604228997775 -33.56629134755418 M-11.372214727429164 32.93402518622878 C7.902821204935485 10.974488667764222, 27.600587738188658 -11.070004726539855, 45.86042475433209 -32.62706495146928 M-4.979390431916214 33.9965298600183 C11.916886378421932 15.098327823240256, 28.790098608964303 -5.383768472915964, 52.1981024496203 -32.497707011632734 M-5.375416938695171 32.98880958091553 C7.851298795675525 19.077219053574357, 19.027059105357726 5.22176421685535, 51.70821800844774 -32.30175567376781 M1.1958176594907468 33.301056992627295 C17.013183773056575 14.60131950284747, 31.828481375043232 -1.7631143316398181, 59.846344119456205 -32.02373547430369 M1.6081198456582384 32.97018340191772 C20.803329619148176 12.029803132849562, 37.546025016980515 -8.671571631355793, 59.292834224481396 -32.90343302747061 M8.788660702747906 31.371826000392502 C22.026569846218003 18.107903828348846, 36.087924245985874 0.15801041206822375, 66.38110474211645 -32.189388268057705 M8.548590626891418 32.45811888027978 C30.29660027556579 9.423179282950931, 50.591201962520415 -14.981843048347901, 64.41071909218738 -31.961953346665965 M14.257254888401862 32.92632781919552 C35.56746295714912 9.88627789208198, 56.98510927414333 -12.944043164876627, 70.35608665069674 -32.85611899453764 M14.985778613154656 33.08210241547425 C31.56981150019553 13.545568814087448, 48.47818950683656 -6.868120903885308, 70.99414773509032 -32.26600981557331 M21.86998829488648 32.199183687516424 C36.582728064566595 16.55680209021999, 47.94171825145756 0.7534994811526141, 77.23060128649834 -32.7469245641592 M22.113785118447666 32.08410364463548 C38.887151857745664 13.008464209767697, 56.23748100312332 -6.644998126579961, 79.08188708982266 -31.885065661978025 M27.752149398927422 33.65605088975088 C49.73146501260432 8.886729415896301, 73.15356720207144 -17.632565650906326, 86.07105745302295 -32.92592000691613 M27.88296832783661 32.18942708077431 C50.88635148811874 8.109308811059508, 71.93318238243359 -17.21417117185593, 84.83242858715204 -32.54165099961761 M35.728235835913964 33.33970988452165 C51.82146541193418 15.582658128051275, 66.38252166944773 -3.7188590265857613, 90.97969207551171 -32.84216134849133 M34.63751941157672 33.55054728997803 C50.00226187157976 15.98962842195046, 63.97697885505684 -0.6617362893120977, 91.39885847176329 -33.088874495974295 M42.99107283049464 33.06078294230232 C60.54845960402633 11.606780114044156, 80.85718755711933 -11.593495535393945, 98.35895768642808 -32.08005685680741 M41.49203388221276 32.33000681873069 C60.87474317462613 11.167182419406858, 81.2152653535439 -10.739472737524922, 98.93858859636455 -32.68882284688813 M48.56722262676349 31.509016637956083 C62.54061054008171 17.30891844892057, 75.31487816898448 0.014357536610539068, 100.6148268990063 -26.29319015715614 M48.046320484978885 33.39790130685165 C65.12634122007044 14.362409968856825, 82.42411288653223 -5.939534807239012, 100.33970777597273 -28.149732812280437 M55.708297192626816 32.950215847919544 C63.6147732624994 21.44332594411304, 72.61754897552422 12.609261931149918, 101.98262800071853 -20.129835266973622 M54.502150727041254 33.08050794249098 C65.14649697728343 20.924146484329423, 75.95798061800376 8.333387459340717, 101.32001576291577 -20.095184107835617 M61.168782518365695 31.385992555534 C73.40559521261957 19.238945320752745, 85.17544064392266 5.901304938357373, 100.33177679632226 -11.60266731876683 M61.232564329767186 32.507219450245024 C75.58271293057791 16.845649420137136, 90.08658031529069 1.400527223163337, 100.95125791424681 -11.368142087279935 M69.16591109463052 31.90999271668293 C77.10335093411301 22.26435771060799, 86.88779838355097 10.265916872887992, 99.82929410188947 -5.093337807131513 M68.34903930425999 32.73614844678886 C78.1559594054824 22.708836233979106, 87.13054972161714 11.9597285570948, 101.44692529817476 -5.4248925287383 M75.85781221936273 32.038505465358796 C84.69927477671996 22.01958191722977, 94.57461862918737 8.642124773902495, 99.72768851413801 3.565060632721977 M75.01746757803502 33.359793899530615 C83.06615057089424 23.06787914950595, 91.07172128609422 14.842830341493592, 100.62054040886234 2.546460834322639 M81.07320091886632 33.2011618873031 C85.76430747513568 28.71943969052276, 91.4916832853379 21.490120792487236, 101.72353819836725 10.237811315804752 M81.39349867433853 32.39784941615463 C88.55799603097724 23.507543126375733, 96.10974629474208 15.425968064720998, 100.96616737747958 10.378941904471896 M87.60114898795275 33.90848236346484 C90.57382338823746 28.559032186444377, 94.40919199153151 27.329051221387104, 101.72626721981571 17.83256770468737 M88.66916316281274 32.65013952987757 C91.38430450793223 28.597987094439215, 95.65611295536954 24.169683101093913, 100.28884840200281 18.79747811510622 M95.10526363234558 31.781971428017222 C96.37332164993427 30.94178935061529, 98.73118363774778 28.385743486709814, 101.05701752713178 25.322172528151185 M95.27693459546622 32.27628611255522 C97.2450576814094 30.191207062921237, 99.12400832413441 27.693097248829346, 101.07504189002638 25.547525884334316" stroke="#ffec99" stroke-width="4" fill="none" stroke-dasharray="0 0"/><path d="M-99.91701578348943 -32.26181560132694 C-38.52005737112658 -33.54625683987141, 21.109107823945887 -31.25752402217889, 100.07393762309005 -32.16405588042977 M-100.42448845579008 -32.38012523537147 C-57.5052922847686 -32.447378265006684, -13.430396577164874 -32.471524877615344, 100.50241134969532 -32.76842008299997 M100.61575815031762 -32.3346953336654 C99.54327093672063 -11.447810357013465, 99.05089062526187 12.18928572196989, 100.13529854433422 32.72222974734144 M100.51097300162901 -32.92958074453717 C100.748997345307 -8.250463064113772, 100.4439124624369 15.63584266484802, 99.9430404873921 32.82989130805585 M100.69749089315704 31.62032911030447 C59.23647257794535 34.632655932402294, 18.292385263629384 32.7079744187786, -101.2354556185102 32.108266923887726 M100.99792236278205 31.827403495867202 C39.53931379715075 31.267006607709586, -22.468473675799032 31.585648217979582, -100.7428386664077 32.01802392498158 M-100.2707132923381 32.31070663775984 C-99.17955639260498 9.742032050835379, -101.37783560941244 -11.124133302142557, -100.02996928888265 -32.964131620427125 M-99.8966491939754 32.73522574574747 C-100.25240977612238 15.810772740011856, -100.96639341431151 -0.4743676168991601, -100.87843943334529 -31.928186490569917" stroke="#1e1e1e" stroke-width="1.3" fill="none" stroke-dasharray="0 0"/></g><g class="label" style="" transform="translate(0, -17.299999237060547)"><rect/><g><rect class="background" style="stroke: none"/><text y="-10.1" style=""><tspan class="text-outer-tspan row" x="0" y="-0.1em" dy="1.1em"><tspan font-style="normal" class="text-inner-tspan" font-weight="normal">extract-snippets.mjs</tspan></tspan><tspan class="text-outer-tspan row" x="0" y="1em" dy="1.1em"><tspan font-style="normal" class="text-inner-tspan" font-weight="normal">runs</tspan><tspan font-style="normal" class="text-inner-tspan" font-weight="normal"> before</tspan><tspan font-style="normal" class="text-inner-tspan" font-weight="normal"> next</tspan><tspan font-style="normal" class="text-inner-tspan" font-weight="normal"> build</tspan></tspan></text></g></g></g><g class="rough-node default" id="sketch-sync-flowchart-site-11" data-look="handDrawn" transform="translate(1159.8619918823242, 150.79520416259766)"><g class="basic label-container" style=""><path d="M-107.59344392438781 -32.578956185398866 C-107.59344392438781 -32.578956185398866, -107.59344392438781 -32.578956185398866, -107.59344392438781 -32.578956185398866 M-107.59344392438781 -32.578956185398866 C-107.59344392438781 -32.578956185398866, -107.59344392438781 -32.578956185398866, -107.59344392438781 -32.578956185398866 M-107.26601005680253 -24.321466403911437 C-106.0645092959035 -26.280071119265294, -104.37932187851465 -29.230134893155732, -101.61163667728349 -32.209563097532936 M-107.4613775432511 -24.458028031597124 C-106.54405198572697 -26.497140016814154, -104.81608657227382 -28.140475436682355, -101.41113911481254 -32.31888703217201 M-107.97688379998806 -16.62169215906996 C-104.89514834502296 -19.683353286849975, -101.30809438768402 -23.20691880345288, -94.69138316470892 -33.32901223173731 M-108.52138459344489 -16.839808730482268 C-104.62706662487362 -21.66950642050993, -100.3399550442778 -26.614041418391885, -95.14503610454916 -31.652129673567355 M-108.39967972854977 -8.596293610499435 C-100.87868322656557 -17.818452301805113, -92.13962396223607 -26.120556342272295, -86.64707579193274 -31.737275295611642 M-108.63101343757975 -9.16015937023446 C-100.98038639161052 -16.936372222340378, -94.77179306014773 -23.954442893761772, -87.43909267791678 -33.18634183058633 M-107.42755301755288 -2.3306256717773848 C-99.30663358923313 -10.665300607629346, -89.85888726625717 -21.65367915595384, -82.63768728006112 -31.84288800241609 M-107.87498619312653 -1.7939046944458994 C-98.84758526645189 -12.133666671036107, -89.64128257585891 -22.222968683158204, -80.90261876841186 -31.624001634776135 M-108.71933445468343 5.102247106515099 C-96.37263390720385 -6.288336366097223, -87.00768304761819 -20.182162993781215, -74.65723129832152 -31.791858821514783 M-107.63305039953244 5.903943840409407 C-97.9755818493011 -6.705903968135839, -87.02725262708708 -17.95854784167957, -74.31764055888931 -31.925679195431485 M-107.69605269349171 14.451487119922062 C-99.78833307701072 3.0779462924243677, -91.42662288838208 -6.377811170792544, -68.34656522493458 -32.591596119249274 M-108.00456526518713 13.961858130093066 C-93.1574437858741 -2.3726930159746518, -79.99813960683747 -19.80355627862312, -67.70751702429293 -32.020198380373074 M-107.19521173471065 22.44343455693324 C-98.15605439472456 10.013150890033145, -87.91000994641934 -1.7085084390922352, -62.33420146991034 -32.91426142502134 M-108.0743312790626 21.725964733422476 C-94.97291136828798 7.093029713607441, -81.49020556443195 -8.745226072522431, -60.83482832056312 -31.68527750948418 M-106.65515862899164 27.973331503057427 C-95.54876480164579 15.019167753147702, -83.76402209934193 2.295037288695742, -54.82416219002127 -33.06141658206205 M-107.81222849669619 28.195197924248102 C-88.72709232224916 6.365170695940623, -69.01945774350038 -14.840440743362366, -55.28590888857334 -32.09276354128784 M-104.0670055877317 32.0855246601632 C-85.0916577136701 10.353578009774242, -67.23986434314209 -9.760605856650992, -48.50276392588304 -33.45536300114257 M-103.94416708714425 32.86906808319451 C-86.57938056972203 12.2916059907171, -70.14200988005405 -6.82768739136456, -48.61445248414726 -31.795663171494905 M-97.82102652090825 33.056114855032945 C-79.71799705316397 11.825945337929166, -59.38390212989136 -12.617745640801115, -41.15605345002629 -31.020614593062426 M-98.30024712183412 32.00945559519712 C-79.09273114934774 10.631468357139417, -60.28086644267052 -10.666617918383952, -40.97409980481008 -32.893560554311584 M-92.69284543572883 31.57869299806494 C-78.8412093931995 16.776534424991798, -64.42164843288033 0.4739708790240488, -36.2211189189934 -30.84063129771327 M-92.20885493600473 32.555314744110106 C-74.04676382503209 13.323286653036174, -56.98617928152117 -7.514165110318161, -34.55554487937656 -32.61250113890118 M-84.2725720916183 33.18525555386034 C-69.56165154556324 16.645227885899327, -55.566338915003 -0.5889353595887343, -28.65352359124313 -32.537881191302525 M-84.61774425980141 32.82504126870466 C-64.78161221269345 8.71733678725005, -44.09703193656218 -15.098014641062102, -27.691926767802254 -31.955422802920232 M-77.69988326781218 32.426548663492525 C-57.383109580089126 8.934028794371155, -37.57481510382113 -13.16114548015914, -21.121239444883606 -31.156948399074988 M-77.6359152252614 32.14280066268851 C-54.989429499124 6.5929924677490614, -33.604249453585595 -18.175393942176004, -21.772669339943583 -32.02193899356471 M-70.639899377175 32.740817347842146 C-57.97626174281785 18.043884425719142, -46.374053243385376 4.298666303928329, -14.489665837539231 -30.821430419468353 M-71.5362200658538 32.765275800064046 C-54.31791268253938 12.209918930919013, -36.329780477048025 -7.362929214101905, -15.032211014886453 -31.986515404355444 M-64.25160410932358 31.207216394632237 C-53.73687542952109 19.50045985646714, -42.244954692161194 6.011796394721247, -7.719327939601688 -31.90550732704381 M-64.25044288526148 31.81648449284236 C-47.56212196932422 13.381344269671548, -31.97694854987491 -5.52061189649612, -7.804337841740805 -32.459746323786085 M-57.17634715525517 31.787580850151436 C-42.832738292137954 15.6619332045109, -28.446697124082533 -0.43073528835964314, -2.5647143634142693 -33.09313824678576 M-58.483230580052705 32.641770738015964 C-36.08751640001894 6.8995639383455325, -13.532540211509556 -19.288896310370543, -2.5999798815433017 -32.4245647517389 M-51.92194238335753 33.47724757868384 C-32.11510061257236 10.08378959773096, -11.96020400163019 -10.99407425679672, 4.105256362943572 -32.148416850103885 M-52.36579647860071 33.63205232373523 C-28.793047983270473 6.678232287779868, -7.253613763473325 -17.872655679411118, 4.6373728291946446 -33.150869162082785 M-44.755504907301656 31.951602568540476 C-29.559841144197197 13.074792156650656, -13.273897976633076 -3.167025049158334, 10.72078875507412 -33.73453145970716 M-44.90228438805339 33.10690244354548 C-25.274485726306523 10.36968569494756, -5.114692700770604 -12.608433011246635, 11.756560484766485 -31.97871285329023 M-39.570863961295885 31.838698922497667 C-19.48516576996383 11.589824902657089, -2.9827126034229616 -8.54899473856705, 17.261385228694923 -31.791451200413068 M-38.69056104577458 32.408223784983655 C-17.377980412496537 8.071972650667485, 3.1495821078173556 -14.994801375070923, 17.932141681084065 -32.45411339399281 M-32.08593510971436 32.63085781958667 C-13.278867676017597 10.91725209701859, 5.9329969716265945 -10.361322128984048, 23.919911782048754 -33.4626442752727 M-31.70422084921604 33.42032953525709 C-14.573904177320125 13.94347540946939, 1.9661811602406905 -5.719477335066577, 25.11892544911032 -32.51154664548929 M-25.117589257696853 31.928141280324926 C-4.864549288152556 9.292656934568992, 14.738360492420407 -11.460725269321033, 32.01810048190532 -33.67465548845843 M-25.25666739124297 32.976307663619686 C-12.25087996071828 18.106093178674836, -0.7540519268569619 3.984337586956813, 31.814089328458415 -31.897371625425397 M-18.56446206393539 33.51767539077377 C-0.43272612845910235 10.698712561259844, 18.37166050907032 -9.256107323328916, 38.973371615983545 -30.88024266451432 M-19.3011622005027 33.347370131202645 C-0.8017930633599147 12.209657387632898, 17.58191551741057 -8.801058689749471, 38.31412681510795 -32.33018555668466 M-13.660989588081435 33.986819573905095 C-1.076735923549827 18.76796873399584, 11.728785931377725 5.1689801880354045, 44.549557631137134 -32.692980122476484 M-12.906728154886526 33.09087527572878 C7.709765477377543 9.44015585958442, 29.08850545860518 -13.951131212097343, 45.486345137508145 -32.63861709122879 M-3.9343405006512207 33.622912238077646 C15.141177304595868 8.714209813242634, 33.52192813270266 -12.623945581198292, 50.44441633529716 -33.330003909300366 M-5.132444732753852 32.17162974790057 C10.784626202232724 15.337916993656671, 26.041910286757982 -3.1981238229024607, 51.80036059121457 -32.75551295071955 M-0.004880194275179273 31.604846805856994 C16.333121317265114 16.2370328085009, 30.732301557559783 -0.5556096057047508, 58.62371756723672 -33.03739367370414 M1.8086801327381972 33.31064625181375 C14.776246328737443 16.228729032061167, 29.88501451883777 0.7579847780358215, 57.4002249810257 -32.44238598931171 M8.325858848154997 32.79278841847475 C28.412855099967803 9.724285544424555, 47.91791207226558 -14.400146911796085, 63.9546215385261 -32.86024550949837 M8.139812698138492 32.256728612081915 C27.95574751214314 10.132525649148926, 47.57500654563731 -13.08834060923297, 65.15965310217838 -32.71561839559292 M14.263641528718727 31.626775210968788 C25.33119791301561 17.63633450081584, 38.085925538732745 4.827259336366089, 69.82833304603491 -31.22605447444869 M15.251213921628935 33.231653338719354 C27.635197971303242 18.1547794330362, 40.3421011608617 4.306025062108899, 70.89156443744389 -32.59389642934025 M19.780476413349678 33.218904796692016 C34.00911952586842 17.983292928216365, 46.60817681727037 4.8750939799675255, 76.1428752063003 -33.163841263911394 M20.516358604748895 32.32610243967475 C37.19774564687009 14.278097196973913, 54.679057165375944 -5.224126392351303, 78.0991476286937 -32.13897814841381 M27.852702691396864 33.27431355749722 C46.24808892075977 11.407735660486232, 63.653019937177625 -9.840866901986244, 83.37664406866496 -31.622044992281673 M28.293323836732586 32.663704746555545 C44.092196684058216 12.743807791808768, 60.163511839819016 -5.347460214718786, 84.32795847377226 -32.79027503076554 M34.94740997937243 33.89264813659249 C55.343462471138764 8.795165703325289, 75.8684073842474 -13.027872791440622, 89.99416068469556 -32.35345004206904 M35.108846555584094 32.47802486928311 C52.99110583974586 10.995005053931909, 72.56099145513835 -9.80275392754147, 91.05741721152388 -32.42874394642422 M41.67356987011727 32.227478486684056 C55.344906016731834 16.464018730405172, 69.33036647992125 0.43629540502690567, 96.30611257172819 -33.381905476421466 M40.93181643071665 32.92817960721023 C57.94636645329533 14.92924615542681, 73.65292649213242 -4.018464740732256, 97.25183768169569 -31.569867769165704 M46.60071088083274 32.61887051105139 C63.77387056999009 14.738868184318168, 78.50779269940331 -1.2365634065216495, 103.05715483019225 -33.483836184305005 M48.3076121755809 31.730039359706105 C69.70157146496682 6.704121354119028, 90.6743785235129 -17.85217660954625, 104.283777601024 -33.07298757058894 M53.82414873690699 32.068572868042715 C65.95825923970536 20.08273468022598, 79.97794989441314 4.9645623130919585, 107.20272044469232 -28.02312938816958 M53.67042988183172 32.93706712371047 C66.77140151108684 17.613983447380384, 79.62813585157105 3.7856860030960666, 107.54493090490823 -29.846572710025338 M62.12158245570023 33.525479886632326 C75.08846038091032 14.268958317186483, 93.03233099185167 -3.333422263556953, 108.87460237114266 -20.29495766817136 M60.160194035971564 33.47347288071262 C76.15122372434772 13.713808451951714, 93.38660014483207 -4.333230157915989, 108.1749730724363 -20.95809465299589 M67.62272653530839 31.96801122203661 C81.54014643088469 16.535014231316634, 94.06838372118065 2.2438421617345123, 107.88440595697874 -12.672758513629192 M67.70111550828263 32.394753088673305 C82.76216094445594 15.313882400585326, 96.3262739845098 -1.4078175854081594, 107.6588950154591 -14.25154456552289 M74.37493348780345 31.76849175460622 C83.99496224680665 21.371912180619407, 91.67065818845371 12.007919341877225, 107.20901579311591 -5.645289272145042 M73.70089989878957 33.294134097831495 C83.17650457769663 21.002337268662075, 93.80933248694865 10.18029387669038, 108.58365663761573 -6.439937473126521 M79.67944008965945 32.39277012129785 C86.0882706695507 26.758550238152328, 92.73008287692777 18.504873177914057, 107.40853491648664 -0.016168272305919773 M81.20657350883418 32.27662904464561 C88.20857637231322 24.48126045990303, 94.73656422826699 15.32918639973526, 108.03449717081558 1.1936961587195294 M86.40482025059909 33.48513038866672 C95.92130627720765 23.380911527894735, 104.12738036681914 13.085137791822788, 109.20083958521923 8.721919003864377 M87.15177921701324 32.98013359601814 C91.70332501431996 27.769723739082647, 96.61629113346424 22.00719350021033, 107.53510410410148 8.697803927337553 M92.84789101878552 33.13894582200957 C98.45610402656932 28.50270371161373, 101.11901540916836 23.35473315983551, 106.76291524907703 17.373955136456896 M94.72647433139404 32.269143792809466 C99.44896743638313 27.277298803057814, 103.72359815584224 21.46171447387638, 108.42315992463594 17.337303651427767 M100.43780127092431 33.098507559666686 C102.51801782387905 31.27072577514282, 103.99944266424771 27.745394792918827, 109.1012319189365 24.036668901503738 M100.19398234319871 32.626030763103316 C102.65068465816077 30.36062772249603, 105.58362971021562 27.505138338244862, 107.93346044065345 23.5003727461249 M107.41182199557396 32.46794876173111 C107.69713076533921 32.239198279423455, 107.75391691076175 32.05493155778096, 108.18438951013417 31.686195484840184 M107.46656974183196 32.46235120571718 C107.73544136207835 32.176000822988584, 107.98021330461316 31.966040866144066, 108.14045561571834 31.69174570659701" stroke="#ffec99" stroke-width="4" fill="none" stroke-dasharray="0 0"/><path d="M-107.47739889529778 -31.294602717554472 C-35.72275544403075 -31.900023782005185, 35.3543099967343 -32.3911703932502, 108.55843670484185 -32.22245046581196 M-108.1484957811939 -32.89710009959793 C-35.56272114124822 -32.011280316808254, 36.655024237030936 -32.818457280843475, 107.92802890378434 -32.44316546630618 M107.55439192156226 -32.01999956973088 C109.4879644156651 -10.645938361884522, 108.36785276907588 9.864441047094386, 108.99589014608529 32.315543675763436 M108.34792725452472 -32.73091848415666 C108.37517639090463 -6.174377301030409, 107.34720806969314 19.030676991611116, 107.9261421991827 32.915831353033845 M108.00527898891912 33.286660417218044 C62.29367884016943 32.824477720907595, 16.90879357891202 32.02291839030721, -108.85018964664296 32.03083125021255 M107.96541310239671 32.19133767440897 C55.70726784468094 32.68834882481647, 4.516762030666411 32.76939342657302, -108.17769476896619 32.65121500428172 M-106.44956214936664 31.588687539817602 C-107.03366860105628 6.59307376838933, -106.43476252586987 -17.158785194317403, -107.45619401757298 -33.69137667233194 M-107.2805443531282 32.27310842870621 C-108.25191540467368 7.398245161052513, -108.23882773749446 -16.938955794391013, -107.23862950419716 -32.615377590704156" stroke="#1e1e1e" stroke-width="1.3" fill="none" stroke-dasharray="0 0"/></g><g class="label" style="" transform="translate(0, -17.299999237060547)"><rect/><g><rect class="background" style="stroke: none"/><text y="-10.1" style=""><tspan class="text-outer-tspan row" x="0" y="-0.1em" dy="1.1em"><tspan font-style="normal" class="text-inner-tspan" font-weight="normal">learn</tspan><tspan font-style="normal" class="text-inner-tspan" font-weight="normal"> page</tspan><tspan font-style="normal" class="text-inner-tspan" font-weight="normal"> shows</tspan></tspan><tspan class="text-outer-tspan row" x="0" y="1em" dy="1.1em"><tspan font-style="normal" class="text-inner-tspan" font-weight="normal">current</tspan><tspan font-style="normal" class="text-inner-tspan" font-weight="normal"> code</tspan><tspan font-style="normal" class="text-inner-tspan" font-weight="normal"> +</tspan><tspan font-style="normal" class="text-inner-tspan" font-weight="normal"> line</tspan><tspan font-style="normal" class="text-inner-tspan" font-weight="normal"> links</tspan></tspan></text></g></g></g></g></g></g><defs><filter id="sketch-sync-drop-shadow" height="130%" width="130%"><feDropShadow dx="4" dy="4" stdDeviation="0" flood-opacity="0.06" flood-color="#000000"/></filter></defs><defs><filter id="sketch-sync-drop-shadow-small" height="150%" width="150%"><feDropShadow dx="2" dy="2" stdDeviation="0" flood-opacity="0.06" flood-color="#000000"/></filter></defs><linearGradient id="sketch-sync-gradient" gradientUnits="objectBoundingBox" x1="0%" y1="0%" x2="100%" y2="0%"><stop offset="0%" stop-color="hsl(0, 0%, 83.3333333333%)" stop-opacity="1"/><stop offset="100%" stop-color="hsl(0, 0%, 88.9215686275%)" stop-opacity="1"/></linearGradient></svg>