<svg id="sketch-architecture" width="100%" xmlns="http://www.w3.org/2000/svg" xmlns:xlink="http://www.w3.org/1999/xlink" class="flowchart" style="max-width: 987.29px; background-color: transparent;" viewBox="0.337554931640625 0.18921661376953125 987.28955078125 201.18093872070312" role="graphics-document document" aria-roledescription="flowchart-v2"><style>#sketch-architecture{font-family:Excalifont;font-size:16px;fill:#1e1e1e;}@keyframes edge-animation-frame{from{stroke-dashoffset:0;}}@keyframes dash{to{stroke-dashoffset:0;}}#sketch-architecture .edge-animation-slow{stroke-dasharray:9,5!important;stroke-dashoffset:900;animation:dash 50s linear infinite;stroke-linecap:round;}#sketch-architecture .edge-animation-fast{stroke-dasharray:9,5!important;stroke-dashoffset:900;animation:dash 20s linear infinite;stroke-linecap:round;}#sketch-architecture .error-icon{fill:#552222;}#sketch-architecture .error-text{fill:#552222;stroke:#552222;}#sketch-architecture .edge-thickness-normal{stroke-width:1px;}#sketch-architecture .edge-thickness-thick{stroke-width:3.5px;}#sketch-architecture .edge-pattern-solid{stroke-dasharray:0;}#sketch-architecture .edge-thickness-invisible{stroke-width:0;fill:none;}#sketch-architecture .edge-pattern-dashed{stroke-dasharray:3;}#sketch-architecture .edge-pattern-dotted{stroke-dasharray:2;}#sketch-architecture .marker{fill:#1e1e1e;stroke:#1e1e1e;}#sketch-architecture .marker.cross{stroke:#1e1e1e;}#sketch-architecture svg{font-family:Excalifont;font-size:16px;}#sketch-architecture p{margin:0;}#sketch-architecture .label{font-family:Excalifont;color:#1e1e1e;}#sketch-architecture .cluster-label text{fill:#333;}#sketch-architecture .cluster-label span{color:#333;}#sketch-architecture .cluster-label span p{background-color:transparent;}#sketch-architecture .label text,#sketch-architecture span{fill:#1e1e1e;color:#1e1e1e;}#sketch-architecture .node rect,#sketch-architecture .node circle,#sketch-architecture .node ellipse,#sketch-architecture .node polygon,#sketch-architecture .node path{fill:#a5d8ff;stroke:#1e1e1e;stroke-width:1px;}#sketch-architecture .rough-node .label text,#sketch-architecture .node .label text,#sketch-architecture .image-shape .label,#sketch-architecture .icon-shape .label{text-anchor:middle;}#sketch-architecture .node .katex path{fill:#000;stroke:#000;stroke-width:1px;}#sketch-architecture .rough-node .label,#sketch-architecture .node .label,#sketch-architecture .image-shape .label,#sketch-architecture .icon-shape .label{text-align:center;}#sketch-architecture .node.clickable{cursor:pointer;}#sketch-architecture .root .anchor path{fill:#1e1e1e!important;stroke-width:0;stroke:#1e1e1e;}#sketch-architecture .arrowheadPath{fill:#333333;}#sketch-architecture .edgePath .path{stroke:#1e1e1e;stroke-width:1px;}#sketch-architecture .flowchart-link{stroke:#1e1e1e;fill:none;}#sketch-architecture .edgeLabel{background-color:#ffffff;text-align:center;}#sketch-architecture .edgeLabel p{background-color:#ffffff;}#sketch-architecture .edgeLabel rect{opacity:0.5;background-color:#ffffff;fill:#ffffff;}#sketch-architecture .labelBkg{background-color:rgba(255, 255, 255, 0.5);}#sketch-architecture .cluster rect{fill:#f5f5f5;stroke:#1e1e1e;stroke-width:1px;}#sketch-architecture .cluster text{fill:#333;}#sketch-architecture .cluster span{color:#333;}#sketch-architecture div.mermaidTooltip{position:absolute;text-align:center;max-width:200px;padding:2px;font-family:Excalifont;font-size:12px;background:#b2f2bb;border:1px solid #707070;border-radius:2px;pointer-events:none;z-index:100;}#sketch-architecture .flowchartTitleText{text-anchor:middle;font-size:18px;fill:#1e1e1e;}#sketch-architecture rect.text{fill:none;stroke-width:0;}#sketch-architecture .icon-shape,#sketch-architecture .image-shape{background-color:#ffffff;text-align:center;}#sketch-architecture .icon-shape p,#sketch-architecture .image-shape p{background-color:#ffffff;padding:2px;}#sketch-architecture .icon-shape .label rect,#sketch-architecture .image-shape .label rect{opacity:0.5;background-color:#ffffff;fill:#ffffff;}#sketch-architecture .label-icon{display:inline-block;height:1em;overflow:visible;vertical-align:-0.125em;}#sketch-architecture .node .label-icon path{fill:currentColor;stroke:revert;stroke-width:revert;}#sketch-architecture .node .neo-node{stroke:#1e1e1e;}#sketch-architecture [data-look="neo"].node rect,#sketch-architecture [data-look="neo"].cluster rect,#sketch-architecture [data-look="neo"].node polygon{stroke:url(#sketch-architecture-gradient);filter:drop-shadow( 1px 2px 2px rgba(185,185,185,1));}#sketch-architecture [data-look="neo"].swimlane.cluster rect{filter:none;}#sketch-architecture [data-look="neo"].node path{stroke:url(#sketch-architecture-gradient);stroke-width:1px;}#sketch-architecture [data-look="neo"].node .outer-path{filter:drop-shadow( 1px 2px 2px rgba(185,185,185,1));}#sketch-architecture [data-look="neo"].node .neo-line path{stroke:#1e1e1e;filter:none;}#sketch-architecture [data-look="neo"].node circle{stroke:url(#sketch-architecture-gradient);filter:drop-shadow( 1px 2px 2px rgba(185,185,185,1));}#sketch-architecture [data-look="neo"].node circle .state-start{fill:#000000;}#sketch-architecture [data-look="neo"].icon-shape .icon{fill:url(#sketch-architecture-gradient);filter:drop-shadow( 1px 2px 2px rgba(185,185,185,1));}#sketch-architecture [data-look="neo"].icon-shape .icon-neo path{stroke:url(#sketch-architecture-gradient);filter:drop-shadow( 1px 2px 2px rgba(185,185,185,1));}#sketch-architecture :root{--mermaid-font-family:"trebuchet ms",verdana,arial,sans-serif;}</style><g><marker id="sketch-architecture_flowchart-v2-pointEnd" class="marker flowchart-v2" viewBox="0 0 10 10" refX="5" refY="5" markerUnits="userSpaceOnUse" markerWidth="8" markerHeight="8" orient="auto"><path d="M 0 0 L 10 5 L 0 10 z" class="arrowMarkerPath" style="stroke-width: 1; stroke-dasharray: 1, 0;"/></marker><marker id="sketch-architecture_flowchart-v2-pointStart" class="marker flowchart-v2" viewBox="0 0 10 10" refX="4.5" refY="5" markerUnits="userSpaceOnUse" markerWidth="8" markerHeight="8" orient="auto"><path d="M 0 5 L 10 10 L 10 0 z" class="arrowMarkerPath" style="stroke-width: 1; stroke-dasharray: 1, 0;"/></marker><marker id="sketch-architecture_flowchart-v2-pointEnd-margin" class="marker flowchart-v2" viewBox="0 0 11.5 14" refX="11.5" refY="7" markerUnits="userSpaceOnUse" markerWidth="10.5" markerHeight="14" orient="auto"><path d="M 0 0 L 11.5 7 L 0 14 z" class="arrowMarkerPath" style="stroke-width: 0; stroke-dasharray: 1, 0;"/></marker><marker id="sketch-architecture_flowchart-v2-pointStart-margin" class="marker flowchart-v2" viewBox="0 0 11.5 14" refX="1" refY="7" markerUnits="userSpaceOnUse" markerWidth="11.5" markerHeight="14" orient="auto"><polygon points="0,7 11.5,14 11.5,0" class="arrowMarkerPath" style="stroke-width: 0; stroke-dasharray: 1, 0;"/></marker><marker id="sketch-architecture_flowchart-v2-circleEnd" class="marker flowchart-v2" viewBox="0 0 10 10" refX="11" refY="5" markerUnits="userSpaceOnUse" markerWidth="11" markerHeight="11" orient="auto"><circle cx="5" cy="5" r="5" class="arrowMarkerPath" style="stroke-width: 1; stroke-dasharray: 1, 0;"/></marker><marker id="sketch-architecture_flowchart-v2-circleStart" class="marker flowchart-v2" viewBox="0 0 10 10" refX="-1" refY="5" markerUnits="userSpaceOnUse" markerWidth="11" markerHeight="11" orient="auto"><circle cx="5" cy="5" r="5" class="arrowMarkerPath" style="stroke-width: 1; stroke-dasharray: 1, 0;"/></marker><marker id="sketch-architecture_flowchart-v2-circleEnd-margin" class="marker flowchart-v2" viewBox="0 0 10 10" refY="5" refX="12.25" markerUnits="userSpaceOnUse" markerWidth="14" markerHeight="14" orient="auto"><circle cx="5" cy="5" r="5" class="arrowMarkerPath" style="stroke-width: 0; stroke-dasharray: 1, 0;"/></marker><marker id="sketch-architecture_flowchart-v2-circleStart-margin" class="marker flowchart-v2" viewBox="0 0 10 10" refX="-2" refY="5" markerUnits="userSpaceOnUse" markerWidth="14" markerHeight="14" orient="auto"><circle cx="5" cy="5" r="5" class="arrowMarkerPath" style="stroke-width: 0; stroke-dasharray: 1, 0;"/></marker><marker id="sketch-architecture_flowchart-v2-crossEnd" class="marker cross flowchart-v2" viewBox="0 0 11 11" refX="12" refY="5.2" markerUnits="userSpaceOnUse" markerWidth="11" markerHeight="11" orient="auto"><path d="M 1,1 l 9,9 M 10,1 l -9,9" class="arrowMarkerPath" style="stroke-width: 2; stroke-dasharray: 1, 0;"/></marker><marker id="sketch-architecture_flowchart-v2-crossStart" class="marker cross flowchart-v2" viewBox="0 0 11 11" refX="-1" refY="5.2" markerUnits="userSpaceOnUse" markerWidth="11" markerHeight="11" orient="auto"><path d="M 1,1 l 9,9 M 10,1 l -9,9" class="arrowMarkerPath" style="stroke-width: 2; stroke-dasharray: 1, 0;"/></marker><marker id="sketch-architecture_flowchart-v2-crossEnd-margin" class="marker cross flowchart-v2" viewBox="0 0 15 15" refX="17.7" refY="7.5" markerUnits="userSpaceOnUse" markerWidth="12" markerHeight="12" orient="auto"><path d="M 1,1 L 14,14 M 1,14 L 14,1" class="arrowMarkerPath" style="stroke-width: 2.5;"/></marker><marker id="sketch-architecture_flowchart-v2-crossStart-margin" class="marker cross flowchart-v2" viewBox="0 0 15 15" refX="-3.5" refY="7.5" markerUnits="userSpaceOnUse" markerWidth="12" markerHeight="12" orient="auto"><path d="M 1,1 L 14,14 M 1,14 L 14,1" class="arrowMarkerPath" style="stroke-width: 2.5; stroke-dasharray: 1, 0;"/></marker><g class="root"><g class="clusters"/><g class="edgePaths"><path d="M154.7675418249456 42.70241650862168 C162.4886609081078 42.433165891574134, 170.38941148076012 40.795670401874055, 174.79374267969422 40.25511696157809 M154.9452442983095 42.74456650087947 C160.82519105106505 42.22090447856039, 167.47380294104568 41.26096522691782, 174.6359471215596 40.52753085710941 M174.798 40.57 C194.84686574758265 38.51770439452891, 235.3497764147266 34.30501391092112, 273.1605348111922 35.304500646243966 M174.7607575979382 40.179701174187635 C194.27652033621453 38.77417372781842, 235.8002258628849 33.60904970273299, 273.25956199906915 36.00401210643458 M273.314 35.484 C310.8680238517977 36.436297943949896, 346.90658091164255 44.05637710004793, 365.72247142409236 48.00457643827239 M273.04288158622256 35.042769847567165 C312.0725976586557 37.53096585016503, 347.35104827447543 44.81627978975121, 365.3981815775455 47.6086238872155 M365.5745312251534 48.472322149353815 C368.76126349712615 49.490468365819936, 372.9789986108285 50.12237050781409, 382.97737778299717 52.027853780761184 M364.96940327312154 48.341795655661144 C371.05719373909636 49.54204731785663, 377.11942082472916 50.812312201936, 383.13586157274494 52.07635729452848" stroke="#000" stroke-width="1" fill="none" id="sketch-architecture-L_wallet_basket_0" class="edge-thickness-normal edge-pattern-solid transition edge-thickness-normal edge-pattern-solid flowchart-link" style="" data-edge="true" data-et="edge" data-id="L_wallet_basket_0" data-points="W3sieCI6MTU0LjY1MTQ4MTYyODQxNzk3LCJ5Ijo0Mi43NzIxNDYxMTA1MTIwOH0seyJ4IjoyNzUuNTMwMDc1MDczMjQyMiwieSI6MjkuNTYyMDY1MTI0NTExNzJ9LHsieCI6Mzg3LjAzMDA3NTA3MzI0MjIsInkiOjUyLjY5OTEzNjI2MzM3ODkwNH1d" data-look="handDrawn" marker-end="url(#sketch-architecture_flowchart-v2-pointEnd)"/><path d="M164.24692457253556 150.26349270144044 C171.11236316091544 151.02856970772788, 178.12225156695993 151.0881962432157, 182.4090204750667 150.42728198711336 M164.27542218191044 150.9640885056414 C168.13097359722116 150.95577293002427, 172.3009368021056 150.7963703574556, 182.36181681856922 151.00494786256945 M182.613 150.819 C201.16407510614053 150.9000958836294, 238.26160453155913 150.8642409397439, 275.3062272927509 143.17784745678068 M183.0187880835742 150.77049408631999 C201.7160103584088 150.50351078354404, 238.1837610130453 151.29146419631502, 275.04624878060696 142.74987823710805 M275.474 143.409 C312.4178954390156 136.14816532398947, 349.40260353578134 121.6325891188185, 368.421485033555 113.81019340062555 M275.0209396541608 144.00876511688648 C311.9174714461455 135.45228475272685, 350.3071498340107 121.38151799444695, 367.8115486986169 114.04440831807572 M367.8240738908256 113.8851660139455 C372.8673308033186 111.21475675503454, 378.51396379510663 109.3573656555484, 386.37463383554 106.67948073970828 M368.3718214593903 113.63162704997735 C372.11323123513466 112.36138578252661, 376.2306683079109 110.46442021594137, 386.73154330233257 106.38421595427234" stroke="#000" stroke-width="1" fill="none" id="sketch-architecture-L_factory_basket_0" class="edge-thickness-normal edge-pattern-solid transition edge-thickness-normal edge-pattern-solid flowchart-link" style="" data-edge="true" data-et="edge" data-id="L_factory_basket_0" data-points="W3sieCI6MTY0LjAzMDA3NTA3MzI0MjIsInkiOjE1MC44MTg2OTEyNTM2NjIxfSx7IngiOjI3NS41MzAwNzUwNzMyNDIyLCJ5IjoxNTAuODE4NjkxMjUzNjYyMX0seyJ4IjozOTAuNDA1MzcyOTI1Njc1NiwieSI6MTA0Ljg3NTM3MDAyNTYzNDc3fV0=" data-look="handDrawn" marker-end="url(#sketch-architecture_flowchart-v2-pointEnd)"/><path d="M563.1182401729088 57.54246222894951 C569.4365993413622 56.55457965218728, 574.2279144591242 55.19980980184391, 580.1132136640762 54.880740097804434 M563.0300762285905 57.13923912603538 C568.3026577028402 56.66620676154021, 573.6399493618297 55.48721187608619, 580.0342219607321 54.64255085835083 M579.842 54.681 C596.1366489695298 51.68112408309991, 629.6839654317253 46.956810059785155, 661.4860216201448 43.78978720291365 M580.4001182528158 54.1078042388566 C596.3585680124207 51.56179559631189, 630.081033371983 47.140093230336134, 662.3094888087552 44.769039844686965 M662.069 44.355 C694.9009474841343 41.264278401175254, 726.3811020303572 41.95906079658741, 741.9600112739816 41.716316304153054 M662.578946089352 44.36334993241278 C694.0212842031859 41.46525214128501, 726.6210098893843 41.70848268287275, 741.6896507373605 41.5143164982487 M742.3595305203515 41.504739129289874 C746.474365530089 42.17104906245068, 749.6159113240365 41.81911904569605, 758.4230381515881 41.42655149826153 M742.2039382360604 41.819405827881226 C746.1783400778459 41.96199851886778, 750.6761638583257 41.91431500343338, 758.3390256549926 41.79147171529073" stroke="#000" stroke-width="1" fill="none" id="sketch-architecture-L_basket_tokens_0" class="edge-thickness-normal edge-pattern-solid transition edge-thickness-normal edge-pattern-solid flowchart-link" style="" data-edge="true" data-et="edge" data-id="L_basket_tokens_0" data-points="W3sieCI6NTYzLjI2Mjg5MzY3Njc1NzgsInkiOjU3LjI2MjkyNDQ3NDQwNjgxNn0seyJ4Ijo2NjIuNzM1NTQ5OTI2NzU3OCwieSI6NDEuNzczNTc0ODI5MTAxNTZ9LHsieCI6NzYyLjIwODIwNjE3Njc1NzgsInkiOjQxLjc3MzU3NDgyOTEwMTU2fV0=" data-look="handDrawn" marker-end="url(#sketch-architecture_flowchart-v2-pointEnd)"/><path d="M546.777411745396 104.57179530810747 C554.3283219520026 108.42529617853486, 560.9829669787391 111.42102590062223, 566.3877891602127 114.40822757524906 M547.3940552909274 105.01449849317162 C550.7391648286227 106.73810899525498, 554.86684736559 108.53636726729884, 566.1586504435269 113.75932838412743 M566.389 113.949 C586.11048553353 123.46903086449996, 624.3278618447306 141.2148154359344, 666.9565313820589 150.61144531969333 M566.1195577986616 114.11894565686067 C585.394990201967 122.52197239402587, 623.6898859673463 140.79776313073117, 666.9715272138745 150.92338487410603 M666.462 150.244 C708.4701986049067 159.2119553904744, 754.3943267227911 159.19816619521202, 777.6352240165975 159.547271463177 M666.3787178539326 149.67164082221635 C708.4349431874493 159.54392397995616, 754.8461055175997 159.80692973621242, 778.3902843433021 159.0465287660661 M777.9800004924032 159.66744455483814 C783.7536480306898 158.9637589865566, 790.0891868896765 159.13990240451758, 800.5373119750724 159.00606402169043 M777.4352750153174 159.32780097157035 C782.9050758203564 159.14150921120986, 788.5635758519734 159.54516556044905, 800.7548256596936 159.36085630373168" stroke="#000" stroke-width="1" fill="none" id="sketch-architecture-L_basket_feeds_0" class="edge-thickness-normal edge-pattern-dotted transition edge-thickness-normal edge-pattern-solid flowchart-link" style="" data-edge="true" data-et="edge" data-id="L_basket_feeds_0" data-points="W3sieCI6NTQ3LjExOTMyMzY4NTUyNTIsInkiOjEwNC44NzUzNzAwMjU2MzQ3N30seyJ4Ijo2NjIuNzM1NTQ5OTI2NzU3OCwieSI6MTU5LjMxODExOTA0OTA3MjI3fSx7IngiOjgwNC43MDkzNjU4NDQ3MjY2LCJ5IjoxNTkuMzE4MTE5MDQ5MDcyMjd9XQ==" data-look="handDrawn" marker-end="url(#sketch-architecture_flowchart-v2-pointEnd)"/><path d="M386.8012211283077 70.7240046395667 C380.1474482484111 70.98285582016779, 372.6752967115311 70.74627355211689, 368.27283213040295 71.46994488814234 M387.1054358143867 70.84718649591645 C382.3850062647148 70.84116196815728, 377.60415515116375 71.21794432447115, 368.58855399750973 70.8867018976214 M368.447 70.984 C349.9982591358292 70.59433254017775, 312.9409771438841 71.02637518859889, 274.97265196914077 68.58364827306335 M368.9682107055758 70.96671937452724 C349.5605715712335 70.6833393708092, 312.17748723677187 70.35174025539384, 274.82208880036046 68.78707399717314 M274.63 68.855 C236.34637282379356 66.1403837112548, 198.16300285976183 61.89409274707732, 178.62514983473272 59.85244476813703 M274.35215090543994 68.5151841049762 C236.6722929191887 66.54423346715487, 197.94494460989785 62.71229929865691, 178.64809563752857 60.874651588383585 M177.97701710891627 60.21406052337601 C171.59096379136562 59.78673178358121, 164.54580009751314 58.905267739263756, 159.09440786267655 58.718659642582615 M178.1056506246156 60.5028382499643 C173.73783803671176 59.78891372090246, 169.52401248495477 59.61812907814455, 158.63297714457994 58.44746334865655" stroke="#000" stroke-width="1" fill="none" id="sketch-architecture-L_basket_wallet_0" class="edge-thickness-normal edge-pattern-solid transition edge-thickness-normal edge-pattern-solid flowchart-link" style="" data-edge="true" data-et="edge" data-id="L_basket_wallet_0" data-points="W3sieCI6Mzg3LjAzMDA3NTA3MzI0MjIsInkiOjcwLjk4Mzk0MDEyNDUxMTcyfSx7IngiOjI3NS41MzAwNzUwNzMyNDIyLCJ5Ijo3MC45ODM5NDAxMjQ1MTE3Mn0seyJ4IjoxNTQuNjUxNDgxNjI4NDE3OTcsInkiOjU3Ljc3Mzg1OTEzODUxMTM1NX1d" data-look="handDrawn" marker-end="url(#sketch-architecture_flowchart-v2-pointEnd)"/></g><g class="edgeLabels"><g class="edgeLabel" transform="translate(271.69142, 29.98157)"><g class="label" data-id="L_wallet_basket_0" transform="translate(0, -10.7109375)"><g><rect class="background" style="" x="-86.5" y="0" width="173" height="21.421875"/><text y="-10.1" text-anchor="middle" style=""><tspan class="text-outer-tspan row" x="0" y="-0.1em" dy="1.1em" text-anchor="middle"><tspan font-style="normal" class="text-inner-tspan" font-weight="normal">approve</tspan><tspan font-style="normal" class="text-inner-tspan" font-weight="normal"> +</tspan><tspan font-style="normal" class="text-inner-tspan" font-weight="normal"> mint(shares,</tspan><tspan font-style="normal" class="text-inner-tspan" font-weight="normal"> to)</tspan></tspan></text></g></g></g><g class="edgeLabel" transform="translate(275.5300750732422, 150.8186912536621)"><g class="label" data-id="L_factory_basket_0" transform="translate(0, -10.7265625)"><g><rect class="background" style="" x="-75.0859375" y="0" width="150.171875" height="21.453125"/><text y="-10.1" text-anchor="middle" style=""><tspan class="text-outer-tspan row" x="0" y="-0.1em" dy="1.1em" text-anchor="middle"><tspan font-style="normal" class="text-inner-tspan" font-weight="normal">createBasket()</tspan><tspan font-style="normal" class="text-inner-tspan" font-weight="normal"> deploys</tspan></tspan></text></g></g></g><g class="edgeLabel" transform="translate(662.7355499267578, 41.77357482910156)"><g class="label" data-id="L_basket_tokens_0" transform="translate(-0.05078125, -10.5)"><g><rect class="background" style="" x="-74.421875" y="0" width="148.9453125" height="21"/><text y="-10.1" text-anchor="middle" style=""><tspan class="text-outer-tspan row" x="0" y="-0.1em" dy="1.1em" text-anchor="middle"><tspan font-style="normal" class="text-inner-tspan" font-weight="normal">transferFrom</tspan><tspan font-style="normal" class="text-inner-tspan" font-weight="normal"> /</tspan><tspan font-style="normal" class="text-inner-tspan" font-weight="normal"> transfer</tspan></tspan></text></g></g></g><g class="edgeLabel" transform="translate(662.7355499267578, 159.31811904907227)"><g class="label" data-id="L_basket_feeds_0" transform="translate(0, -10.7109375)"><g><rect class="background" style="" x="-60.6484375" y="0" width="121.296875" height="21.421875"/><text y="-10.1" text-anchor="middle" style=""><tspan class="text-outer-tspan row" x="0" y="-0.1em" dy="1.1em" text-anchor="middle"><tspan font-style="normal" class="text-inner-tspan" font-weight="normal">latestRoundData()</tspan></tspan></text></g></g></g><g class="edgeLabel" transform="translate(275.5300750732422, 70.98394012451172)"><g class="label" data-id="L_basket_wallet_0" transform="translate(0, -10.7109375)"><g><rect class="background" style="" x="-61.0859375" y="0" width="122.171875" height="21.421875"/><text y="-10.1" text-anchor="middle" style=""><tspan class="text-outer-tspan row" x="0" y="-0.1em" dy="1.1em" text-anchor="middle"><tspan font-style="normal" class="text-inner-tspan" font-weight="normal">redeem(shares,</tspan><tspan font-style="normal" class="text-inner-tspan" font-weight="normal"> to)</tspan></tspan></text></g></g></g></g><g class="nodes"><g class="rough-node default" id="sketch-architecture-flowchart-wallet-0" data-look="handDrawn" transform="translate(86.0150375366211, 50.27300262451172)"><g class="basic label-container" style=""><path d="M-66.96895576423228 -23.764887264179567 C-66.96895576423228 -23.764887264179567, -66.96895576423228 -23.764887264179567, -66.96895576423228 -23.764887264179567 M-66.96895576423228 -23.764887264179567 C-66.96895576423228 -23.764887264179567, -66.96895576423228 -23.764887264179567, -66.96895576423228 -23.764887264179567 M-66.46548474733412 -15.983010211149146 C-65.39091279386076 -18.19019309813479, -63.8268152163629 -20.74841106840516, -60.86177309275558 -23.417502817089094 M-67.23529444923534 -15.742332289047953 C-64.59148957395468 -18.96275433291864, -62.16168564752317 -22.051029954457153, -60.91313414261285 -23.632582439771618 M-66.69613520773807 -7.8842356145805494 C-62.76585114277641 -12.546420324116777, -59.19796814417466 -18.174227191904492, -54.98768819535549 -22.151901517559914 M-67.67451954762446 -7.657081915635153 C-64.21509865717576 -11.479655075041451, -61.42495319965168 -16.416302746947224, -53.563659087126425 -23.615044058794474 M-66.60429536419542 0.16832935250865655 C-58.82432896827092 -9.898703558055836, -50.73647226355987 -18.684672588310082, -47.9932866014223 -24.00690155149107 M-67.98987245993483 -0.13748753310963174 C-60.27894816896818 -9.516932192001216, -52.015672913390226 -17.078554622460615, -47.66553213291184 -24.383347324475558 M-66.49786431543542 6.83866901787547 C-57.77684839123459 -4.193125770664855, -48.647691834387295 -14.018583836962437, -39.37537365755132 -23.130742810361777 M-66.67444918979805 6.73981081560789 C-61.150177068700096 -0.3423421865218545, -54.0483622832323 -7.612185357493241, -40.82338005785604 -23.952887551157144 M-68.06813134439348 13.49058866605168 C-58.79301057434853 4.950775649020539, -50.10771226648937 -3.239802258225221, -34.098239214410206 -21.934822358535833 M-67.5951882280442 14.703098648028384 C-56.430954752077376 2.989742228851182, -47.04498288519673 -7.9355384120614385, -33.71312225323319 -23.1862546141553 M-67.7842280834193 21.247881134783018 C-52.83862294580133 4.8160648752404835, -38.709748922151704 -9.618774001058044, -27.72613826705835 -23.84673963630059 M-67.6955624366591 22.210793312718145 C-51.921675040571905 4.412648737603417, -35.6001528971744 -13.84012992466551, -27.751390205921886 -23.286604184722822 M-61.186225882050714 24.733438224209657 C-50.97685629472093 11.504452060360482, -42.23684556400273 1.3111897015701826, -21.494223185068556 -23.604346733078312 M-61.279344505354295 23.175207193427177 C-49.8050807567827 9.243685464544816, -38.10746220518477 -4.347407507206267, -20.263945714721807 -23.60528548883661 M-56.349963515544665 22.29393525867721 C-40.54234247421624 6.1323925472535, -24.581963456904486 -11.09768894928942, -14.938163310620173 -22.231919654270545 M-55.42402488965701 24.281989967037227 C-42.024714863264634 8.871867777997984, -30.664128060435022 -4.6259818206306225, -13.795970812191007 -23.75837337015557 M-47.6384029290333 24.6102257906121 C-37.478098251047925 11.954294035282661, -26.28663009596513 -2.170700065450615, -6.897016303044222 -25.05975996934221 M-48.91701783205892 23.833393435621236 C-36.79527459771274 11.010154187567013, -26.36784052006173 -1.444306303324507, -7.562258691448098 -23.266687244964537 M-41.928997715003256 23.329948948923377 C-26.904634935783033 6.960572431124842, -15.426095868955798 -9.712555201271929, -1.7288908021778262 -23.082288098829483 M-41.80960472739748 23.20906579596161 C-27.591179371279427 5.79878762798519, -12.929866818204982 -11.459509499798857, -0.8196586262875278 -22.888590447172255 M-34.9232600594817 24.225997844865176 C-24.339381151412564 9.86737644992833, -12.923636421950512 -2.251486264903585, 5.929060349122604 -24.36169269111931 M-34.94549082269272 23.77055399999273 C-26.948391412451564 13.877848241646657, -17.73071874186062 3.2519693830791745, 5.949077537123252 -23.241819121972554 M-29.154887373320893 25.29710820884865 C-13.787088662514664 4.246594601675708, 3.276596177187099 -13.996151877413121, 11.740426195132112 -24.72940330082267 M-28.923313270426508 23.758295625050906 C-20.497785176446094 14.718788288098565, -12.139691464588912 4.978253866162686, 12.652974408145393 -23.46166088942663 M-20.749173599500605 22.346253195890206 C-12.41765532105344 12.839948913122422, -2.0215273147699655 1.5652457773563513, 19.40708094702745 -23.662466586632302 M-22.393503112642087 23.25271137928264 C-6.876637015894695 5.998548979823672, 8.595225441142945 -10.902120765114715, 18.38961155651086 -22.792110985683966 M-16.675893650246316 22.306586754631674 C-3.9439909633052808 9.44429076052969, 7.001552033511631 -1.8087407671567526, 24.24823219685394 -22.176806778622147 M-15.269832520979381 24.138162897070384 C-6.405932394899124 14.431058482414931, 1.7050369837731478 4.436701751552254, 24.612721599103786 -22.469555010097828 M-7.945128476785119 23.413645274511097 C3.9217867281625507 7.08312863848556, 19.075757242420323 -9.414801338050847, 31.713251857961748 -24.321954169056568 M-9.350900426343198 24.469477193475182 C5.566028816943633 7.823775075366219, 18.80227938682961 -7.782722330231621, 32.88766101885028 -24.206362455241642 M-3.2680063730852638 22.787598026170812 C10.373370031764225 9.888936279205799, 20.830678492434735 -4.53611770748357, 37.812142666704645 -23.682269704635743 M-2.6563151209014246 22.993237027957854 C13.85887501109086 5.056292273808906, 30.03631095857218 -13.291342804372078, 38.92771775248539 -23.120809429551826 M5.382461864806216 23.57940338811786 C19.239073237104687 5.762115535574026, 34.75468699952631 -10.949930982559511, 44.71473372924796 -23.941352947707994 M4.547476865838522 23.713997682136615 C18.09344107439052 6.731364145320785, 33.033630120645526 -8.864292344087694, 46.086401399037065 -24.153736877167596 M9.840368252416418 24.250497473946922 C26.942623476951052 5.828536105277845, 41.95125516366669 -13.55930594260581, 53.525132754153226 -22.485501185616688 M10.425036278286573 24.136473831319506 C21.144105342250132 11.37638864724462, 31.77583007647571 -0.5431635783689654, 52.744532309165976 -23.203639887593116 M17.176771146401677 22.568038537725922 C31.494436967740782 7.5842243271006815, 43.28821262116017 -7.141299093602659, 57.30914875845066 -22.52172622337237 M18.292406692440995 22.85683834271325 C32.549162379606344 6.76765865203345, 46.276142068826644 -10.229623039751841, 58.96994410665644 -22.80981684551821 M24.986016965249146 22.915235367479845 C34.85049420858818 11.777415706101136, 45.96180035277115 -1.7009165080609001, 66.47790368312106 -23.449033712946278 M23.842058662815315 23.465446134054126 C39.85363778148224 6.476176639455935, 54.787702000235754 -10.169113443664335, 64.95136161664794 -23.582485159991275 M32.31261889431112 23.762447209642158 C38.05660534047238 13.434544320932245, 47.10264599991488 4.4778971805247245, 68.6116561294171 -18.056641500500515 M31.366117239852336 22.913136214641085 C39.173387888650645 14.43766180098683, 46.7143124553707 4.961953782235939, 67.368001970158 -17.969238382018695 M39.052730111720585 22.257440906968068 C48.77876231163348 10.940638701926384, 57.98600964852865 0.6127099726890758, 69.16043226443972 -12.589493030104556 M37.51009295689036 22.880366266531716 C49.8894813884665 10.688468227166346, 60.799420598312665 -3.002171087545994, 67.4851268852911 -11.063909068799058 M45.29857120506823 23.439531677160474 C51.51181520815941 15.929018558816175, 57.75388363175061 5.998435669955037, 69.09945489107926 -3.9276275608672666 M44.69305381628366 24.412415659188333 C53.08680221106922 13.4959036826014, 61.06342194430217 3.369478782624868, 67.16019199610989 -2.8806090240193303 M52.0759297411868 23.00954718779524 C55.12357978437838 16.16887028019653, 62.785249945225644 10.562820627288476, 66.71563302809653 4.827412749637044 M50.81503212082676 23.893661222435668 C56.279651961956425 17.130195964887346, 62.7171027447731 11.034365320741003, 67.36848001452441 3.878838043814666 M57.39161290343652 24.078678432379615 C59.93059311220171 20.11480136676192, 62.85827398948231 15.894059770528427, 68.31915530396743 11.656085764699105 M57.84935410240864 23.522391285578877 C59.71500940752438 20.510737995525083, 62.69570715906317 17.707769886467524, 66.89530754612635 11.891645239600882 M63.63586801177064 23.718793390561707 C64.94809666461654 22.982952537977372, 66.06735859809467 21.58607369826898, 68.05675652062523 19.330955433375895 M63.82219886621151 23.64240107382581 C64.92558562461484 22.590959096275924, 66.09497746881304 21.552434637009036, 68.05849545380718 19.26701984602247" stroke="#a5d8ff" stroke-width="4" fill="none" stroke-dasharray="0 0"/><path d="M-68.1124498316297 -23.49435329252459 C-21.436159545012 -24.759162546365392, 27.718927492204323 -25.42669310866275, 68.585566426491 -22.247107454741762 M-66.51296722736234 -23.278012910931004 C-26.51905901236791 -23.441077046966296, 14.098352037741938 -23.310093146588667, 67.34789535211054 -23.234757259102988 M67.60170168291648 -24.5008296855601 C66.77523269801179 -6.34195866436955, 68.73081559148879 13.333948017520214, 67.38307206329259 24.69226527057171 M67.15896368827435 -23.333715165613036 C67.51054138738529 -10.153871787922743, 66.76651006696089 3.877052309007328, 66.67841437307978 22.971835046132348 M67.82849100970424 22.380887508684392 C23.003921139114077 24.02341865698902, -22.30674542456047 23.387911904612654, -66.06886773245176 24.67496487346604 M67.24855662910477 24.18184561401175 C22.351077591051407 23.132746205266834, -21.337493254721952 22.632863363190044, -67.54388345102045 23.289012093338645 M-67.75238169712634 23.461922517033514 C-67.59018516775363 9.100261279109882, -67.83681814408989 -4.464722191823473, -67.62815786291968 -23.005495409364272 M-67.73482482957363 24.137611178390664 C-67.71325264036592 8.628958911490326, -67.35442838657713 -6.489475924395288, -66.5547740372681 -23.521570055559447" stroke="#1e1e1e" stroke-width="1.3" fill="none" stroke-dasharray="0 0"/></g><g class="label" style="" transform="translate(0, -8.5)"><rect/><g><rect class="background" style="stroke: none"/><text y="-10.1" style=""><tspan class="text-outer-tspan row" x="0" y="-0.1em" dy="1.1em"><tspan font-style="normal" class="text-inner-tspan" font-weight="normal">Your</tspan><tspan font-style="normal" class="text-inner-tspan" font-weight="normal"> wallet</tspan></tspan></text></g></g></g><g class="rough-node default" id="sketch-architecture-flowchart-basket-1" data-look="handDrawn" transform="translate(475.146484375, 70.98394012451172)"><g class="basic label-container" style=""><path d="M-86.51614313441011 -32.806920046591145 C-86.51614313441011 -32.806920046591145, -86.51614313441011 -32.806920046591145, -86.51614313441011 -32.806920046591145 M-86.51614313441011 -32.806920046591145 C-86.51614313441011 -32.806920046591145, -86.51614313441011 -32.806920046591145, -86.51614313441011 -32.806920046591145 M-87.3447333319926 -25.11713978614892 C-84.89263870631822 -26.71769047550178, -83.19001472311685 -29.317240642962908, -79.8521152033324 -32.69131315231571 M-86.93443584417878 -24.953646542929086 C-84.77397329273114 -27.3864555899688, -81.87585112022099 -29.870533212623922, -79.84553677732578 -32.7343776774634 M-86.78562926184624 -16.844356825638616 C-82.21465918262565 -20.411611010027787, -79.14984398460837 -24.13604217371726, -73.87985012209232 -33.046018698827694 M-86.34080672985407 -16.74542570238033 C-82.26546972895548 -23.248638533446947, -77.57769562859454 -27.99305969030982, -73.80946958615988 -32.349926773809834 M-87.94143721863095 -10.134882937125083 C-82.32371196891022 -15.209301230455381, -74.38150720685896 -23.81174116204066, -65.63630071461847 -31.59805783822038 M-87.26075916679932 -9.175805807773006 C-80.7628252978228 -16.52121187761785, -75.06223055454355 -22.5897797181988, -66.90704000495361 -32.17650624774554 M-87.06808709753298 -2.804480860556278 C-76.17095075850906 -14.328117520238315, -66.12830161976466 -24.297049005976934, -61.654230293849984 -32.954382055498975 M-86.73001663231459 -2.43846741923098 C-79.82548103112175 -10.560604280713566, -71.82608446273682 -19.60316765727194, -60.80228112080804 -32.71489942191949 M-87.19572334098208 4.642329989798908 C-75.36192096017557 -7.065732835153626, -65.78451389203235 -21.423143717587337, -53.55503751768114 -33.5886619794906 M-87.25163453089789 5.440944276384099 C-79.46450422329215 -3.411835115823481, -72.34067081997063 -10.591208049255664, -53.715632040434514 -32.80641259877747 M-87.37902222857562 13.60845476260658 C-71.11541179548892 -3.721144956914013, -54.27988692398069 -23.0250912932304, -46.22512631692689 -32.9586275367098 M-86.45725187445154 12.825624734776994 C-77.11458248415572 1.3845771686160213, -65.99656503576347 -11.174120764727183, -46.691201484652744 -33.041135357153564 M-86.95092690433762 20.16429805434798 C-73.89944687936236 6.690647912807688, -60.42283586349332 -8.620242376041544, -39.22854535201343 -33.776904568376025 M-87.12733147922211 21.289251940517836 C-68.41984350452464 0.9236019293434222, -51.36087633163814 -19.599103614111126, -40.29748347390246 -32.25968824896611 M-86.7287204560359 28.73670358835799 C-65.64384555633816 6.792593229807181, -48.18220587356264 -17.35547663803579, -33.82987987038677 -32.09328677675545 M-85.96269718184605 27.499986724676557 C-69.621989218747 10.464235829223623, -54.15478314368514 -9.353485304398966, -34.5055880550526 -32.332433757964886 M-84.86175581456564 32.68459940038541 C-72.77534453214874 20.125041972110193, -60.92693429908015 4.444208788082612, -27.163971802552787 -32.93579521770033 M-83.51563377673273 32.77423391751679 C-62.2783746450834 8.600258060920563, -40.23631371777205 -16.559975261958744, -26.850927026125092 -33.28670354031463 M-77.23017868779341 31.37855502313341 C-61.51583690201826 14.730549895337678, -45.87978065872019 -3.2939470760695286, -21.779121086677097 -31.090803529231373 M-77.68164631404838 31.79839422595285 C-58.880354593239545 10.08518833986037, -39.6191829450122 -11.532791552351568, -20.534956417182 -31.815859171797495 M-70.65384786859956 33.66113752085623 C-48.967304714732165 7.855206422886358, -28.80624190514917 -15.537749904221384, -13.69449676431171 -31.93924382170825 M-71.20895856019985 33.408902556129796 C-53.43977671784094 11.771424024280511, -35.69146641530488 -8.837407831724693, -14.287080335155135 -32.79480566850452 M-63.36074665763542 32.016268264865154 C-48.2944109123383 12.594534467354382, -30.134583451831833 -6.5914602208311655, -7.774430032728878 -32.782814797002494 M-63.80999755843638 32.33885615041564 C-52.19207625828111 18.324816267627938, -40.136721184012316 4.440277470569088, -7.225842320106083 -33.2307058772231 M-58.10489530770243 32.65115971824172 C-42.380953978706806 16.62500958662465, -28.20879866396926 0.4333959924602383, 0.3299330671120695 -33.03647421539983 M-57.27040833665194 32.777198073422284 C-34.818803491156956 7.300828852077413, -12.297694850187801 -18.910413657248064, -0.40978137871941167 -32.57585609211907 M-50.6297066275148 33.645790265915586 C-39.70718443830395 18.817148385997875, -27.662065167841654 6.254292389957486, 6.239118507836091 -30.868105424304854 M-51.4162002021166 32.54319606129438 C-37.85526888923933 18.422564977179917, -25.077051111601623 3.054318222429921, 5.310706849523204 -31.477692608470164 M-43.810687472357436 32.01666599656193 C-23.7106793525793 9.873979847716946, -5.309911808087305 -11.20078837783688, 11.341000618580285 -32.37504908854878 M-43.93144589461498 33.05193985881438 C-25.65111355365769 12.01034091691869, -7.700453372210477 -9.849241157432655, 12.326018262924894 -32.583783473176034 M-37.36052015622206 32.755159126679 C-17.796724994419105 11.40052083576792, 0.510887417683766 -10.686474540643763, 18.500137414994555 -31.94952766860816 M-37.64705727304665 32.97954974239416 C-24.930069613587616 17.23437462904874, -12.808654286455768 3.2394115337015403, 18.60358637534668 -32.46636105302435 M-32.28824366756806 33.744202295867055 C-12.525266638394188 11.621777703466373, 7.011717603716687 -11.754083539814495, 26.502410058328014 -32.60322960236258 M-30.549180535641277 32.75691992417525 C-15.413797166674755 14.558627849478095, 0.35847946942537445 -3.0690057968437743, 25.779821828147995 -32.370774715087585 M-25.126859771355754 33.946900101828156 C-9.905324811790765 16.699898684599393, 5.736879387479788 -1.4647104258955606, 32.833083798165504 -33.76491156453699 M-24.37477774968072 32.44960381311086 C-5.39597396208441 10.34883717552847, 14.09284223280326 -11.752364485575763, 32.53490284411927 -32.55352657547152 M-18.40653759968707 32.779126232932555 C-0.5112431442973455 12.784986972970282, 16.103197861659783 -6.42496981245868, 39.3269959038758 -33.34443374131092 M-18.069281351164932 31.925130043420957 C0.5747703817336507 11.519642232254503, 20.44743787324874 -11.171371884120257, 38.461876485557525 -32.97530333508118 M-10.738717430626192 31.680178857319472 C6.894882408430867 12.031440781325609, 24.33960905076371 -7.0579226030568725, 46.52321240062925 -33.42867653461378 M-10.91665301260221 32.73575505836274 C9.4844225575757 9.183453103501174, 31.32118401882369 -15.414727496845865, 46.228128007420096 -33.09618731494879 M-3.6048558541687976 32.618362706976924 C18.298542591103388 7.535981724349723, 40.426330048920384 -17.196413533367338, 52.07929954532761 -31.397056914426745 M-5.138004129113506 32.372743838361586 C15.146355312623523 10.21428061309517, 34.14235438892983 -11.77185506330085, 52.003362252988005 -33.07579837104423 M2.5273418035187314 33.1165544392926 C20.35690355284251 12.75669450071271, 35.518164326737384 -6.484743763229641, 59.50025974678796 -32.214002763106684 M2.535305676548702 32.757228880663504 C24.02609319832526 6.1696074491755954, 47.14804409258109 -19.269928443917433, 58.38931467520324 -32.843665000229166 M10.017812576261512 32.44046800671247 C20.276399141528003 20.121230995599692, 31.906026606487316 6.213005801231875, 65.58220403714692 -32.40945521093624 M8.454451297604338 33.38648826625065 C25.176599944703565 14.201884972689468, 41.19954435962431 -4.807908036364979, 65.89490325888788 -32.987864723144746 M14.287747084600326 34.005941934140004 C30.162485954448243 14.766410794053144, 45.79329543763754 -1.7658334824733566, 72.392289817121 -33.15027717279244 M15.697972877542771 33.62868097452724 C35.62957734102756 7.95582525988769, 57.24340191605351 -15.099700900571783, 72.80448764986102 -32.23184695000922 M22.745238608838253 33.62792142087128 C43.87570985735651 9.55745869895468, 63.72766637642152 -14.327592106913075, 78.56658092591385 -32.27131425179237 M22.111582168851413 32.054387536297305 C43.13060004344051 8.00642514558422, 64.36108838095363 -16.161377610818075, 78.84062421855774 -31.72917690965482 M27.703577007771454 31.905280595398562 C44.812937150107004 15.153340353141829, 58.943541722339894 -2.044217150933271, 85.18353520691731 -32.17965487116067 M28.134708146903574 32.54777157304752 C49.62714419464335 9.585698044049886, 70.40301050573872 -13.974345791880399, 85.65554788081712 -33.36074276194556 M34.748808721663494 32.99248544685198 C52.94648942158257 13.90879847455696, 68.12205138131091 -5.641714666872083, 86.11793404958186 -26.366784973867187 M35.19622147720852 32.167803742101206 C49.059415845578684 17.56797932772178, 62.088694922435664 2.690439417932028, 86.76421964679913 -27.19549483614436 M42.94285010862073 31.462927624992982 C50.75755924688385 20.68509280375697, 59.61135956898243 10.392504403468163, 85.98726594047305 -17.72323321948907 M42.050095367257036 32.62754481526051 C54.00740442976373 18.77725596230874, 65.744610466703 5.974332979998924, 87.30062962747535 -19.38293767379745 M49.482696371506755 33.19639541438335 C62.891180919356 18.1004639024092, 76.67993741130995 2.4012848777230147, 87.39929517056385 -10.154366003619963 M47.90545244695132 33.22514710489125 C61.8632185008273 16.749788061827307, 76.2577466858512 0.6092857839227885, 86.87427043037205 -10.371665997877647 M55.720364740530826 31.374759106307884 C66.4608155582813 19.859343673819044, 77.52373496382127 8.259284369249023, 88.29138198145259 -4.398645896451038 M55.5389845138941 33.01173830717967 C66.18291799016838 20.85131320305553, 76.61956189256843 8.15513108796955, 86.82241860948221 -4.21929644411316 M62.5150739133173 31.65972263388604 C69.42983749510272 23.090885319151987, 79.79850639978993 13.95288325023495, 87.84640194304937 2.983672685265418 M62.56662317304949 33.185380086425425 C68.64325176962524 24.317124503246585, 76.4896264064801 16.890306740806338, 87.47020374882261 3.6774410873622196 M67.74855980257044 33.58738141240528 C72.38425260081856 27.40987057193879, 79.27246449434598 21.69855683270384, 87.15809575027285 12.520711903046486 M68.64632516692542 33.21467510111168 C74.832076314023 26.11274071496473, 80.73480377459327 17.925065705487782, 86.08461912056728 12.041100024468037 M76.24917587561941 31.27863755683933 C79.38887748724488 28.962468677855778, 82.88269076159196 23.468824495221206, 87.14835633728819 18.856473739697126 M75.40732689064745 32.06145591230719 C77.90537390662008 29.842800618971108, 79.30111764304478 27.101226002622468, 86.32157962974374 19.198451086765207 M81.64426079014737 32.52919049217991 C83.6894503984794 30.949789138674465, 85.44043958713671 27.968670278284943, 87.25429295283725 26.424430027929766 M81.66299474700816 32.75131091208544 C83.06330536727232 31.362582466873402, 83.97887023796007 30.158410307762594, 86.88101985836262 26.82053820348291" stroke="#a5d8ff" stroke-width="4" fill="none" stroke-dasharray="0 0"/><path d="M-86.48909016738908 -33.633509021229855 C-38.72569239392532 -32.3437252633052, 9.472529094598148 -33.858738391236855, 87.45274463355301 -32.284569788626484 M-86.47636694158248 -32.95972282729095 C-45.88583097600577 -34.02860678377376, -4.8779017538794855 -32.92574052705053, 86.66051462683083 -32.44611959738412 M85.91129014746599 -33.20637744682359 C86.60284160435485 -8.457858712989834, 87.77007251546338 14.875203675710488, 87.68089315092764 31.88688437709163 M87.30178352961926 -32.25253250928394 C86.87067164700697 -11.126582887480861, 86.85962773182708 8.589196289958945, 86.98593967002839 33.078529544691754 M88.13864500822655 31.27819255439586 C48.02032689572247 32.3480518755721, 7.735934925477603 31.660814835948866, -86.86307920159923 32.92335887281732 M86.49716983076148 32.196382967434864 C23.026820177241063 32.58158669584965, -41.6356851775117 32.73087167581811, -87.00578572941541 32.36712349038272 M-87.55274630709621 33.552021489206794 C-85.35170929352066 8.806071564788434, -86.34875948463153 -16.195661035308927, -87.05631026844434 -33.28236761757921 M-86.17461865360538 32.46137187219028 C-87.48543998469836 14.083591280566559, -86.4660351891141 -4.475042496706912, -86.22024222011282 -32.75027561568186" stroke="#1e1e1e" stroke-width="1.3" fill="none" stroke-dasharray="0 0"/></g><g class="label" style="" transform="translate(0, -17.510936737060547)"><rect/><g><rect class="background" style="stroke: none"/><text y="-10.1" style=""><tspan class="text-outer-tspan row" x="0" y="-0.1em" dy="1.1em"><tspan font-style="normal" class="text-inner-tspan" font-weight="normal">BasketToken</tspan></tspan><tspan class="text-outer-tspan row" x="0" y="1em" dy="1.1em"><tspan font-style="normal" class="text-inner-tspan" font-weight="normal">Tech</tspan><tspan font-style="normal" class="text-inner-tspan" font-weight="normal"> Trio</tspan><tspan font-style="normal" class="text-inner-tspan" font-weight="normal"> (TRIO)</tspan></tspan></text></g></g></g><g class="rough-node default" id="sketch-architecture-flowchart-factory-2" data-look="handDrawn" transform="translate(86.0150375366211, 150.8186912536621)"><g class="basic label-container" style=""><path d="M-76.15044253954619 -23.79615399130216 C-76.15044253954619 -23.79615399130216, -76.15044253954619 -23.79615399130216, -76.15044253954619 -23.79615399130216 M-76.15044253954619 -23.79615399130216 C-76.15044253954619 -23.79615399130216, -76.15044253954619 -23.79615399130216, -76.15044253954619 -23.79615399130216 M-76.31101236855757 -15.676704778624872 C-73.44008375816695 -19.310860440197686, -71.68698587905742 -21.671266149631048, -69.88354192831623 -23.35401744733991 M-76.16393635373181 -15.721462152901207 C-73.92104509484992 -18.524311300741953, -71.04556974005071 -21.934597430283187, -69.44646460076369 -23.673407830505802 M-77.67748108823967 -8.209439656671089 C-73.09664048547994 -13.438015987488848, -69.94421184328667 -17.60979907837991, -63.375338617029534 -24.92200926623266 M-76.25678371564587 -8.789710251265614 C-71.04733321514681 -14.814418995776863, -64.94696956077334 -20.560383687262863, -62.02956706344975 -23.898755227741063 M-77.04704980775314 -2.4039184148559043 C-68.95806519776811 -10.48862115197998, -61.910924485909675 -16.330299744219946, -56.968359067980245 -23.732842625562974 M-76.62723268904784 -1.0331276574112456 C-67.91748629824151 -10.447212339814708, -59.867696981370216 -19.20772897178158, -56.34129435056137 -23.1614277023742 M-76.09384816088316 7.02215277014825 C-71.17550073122098 1.6969821124389304, -64.6880928225175 -6.515763005747354, -49.03891619957364 -23.85036800574594 M-76.33922849112781 6.845225145903243 C-69.87617488445885 -0.2489954367035322, -63.94163336892406 -7.414352474763368, -49.63697279140684 -23.14979283997875 M-75.99383397668288 14.203078276283415 C-66.52664196520772 2.605760789554868, -56.87791327015997 -5.7301853653080155, -41.86905331414927 -24.879564020579277 M-76.57866290786887 14.426089917397004 C-64.04361266182936 0.09251477835130656, -52.03071848686731 -13.607921713677582, -42.19929587726732 -23.498947376933476 M-77.37343844007506 21.674266702673386 C-62.189734436526074 4.919835661972808, -45.70458619535868 -10.871894580361671, -36.90217025666699 -24.047758787731357 M-76.75826280242798 22.930367512884086 C-63.45029038622836 8.624156045888371, -51.23138731990823 -6.531166281303973, -35.99064599635862 -23.12923942328414 M-71.25703968414977 24.287848619951088 C-56.9533602453259 9.23350996752106, -42.73846274810769 -6.753017429169468, -30.81255152357772 -22.19090434727598 M-71.27397796408246 23.916034614657985 C-60.47230492729786 11.802422170850203, -48.97933580722724 -1.3394745117669105, -29.378803056369573 -22.784499860627466 M-64.0476582803329 24.637123988729652 C-56.47539397163302 14.932819564627467, -47.47367648597276 5.541127144541772, -22.60273824647209 -23.75345534348719 M-64.77323474904384 24.02727279531798 C-49.311223599766684 6.310585274765861, -33.71383620270704 -12.483400584700348, -23.43359604507511 -24.070291584183188 M-57.445790286492624 25.451633658052625 C-48.42174313968554 11.0943494910225, -35.449516339236496 -1.5095379106273044, -15.915140864301867 -23.79148590147726 M-58.152758018073904 25.08440079269976 C-45.36946943315921 8.850892875217555, -31.226089957578015 -8.55938972483078, -16.853207949579218 -24.194641043400516 M-52.27280409665432 24.63764661199022 C-39.32144387838043 10.754494447362635, -30.193405879696797 -2.2111853392128076, -9.379567462639503 -23.741778488998516 M-51.5575283647718 24.673777982727177 C-42.10204655166547 13.436729952431778, -34.411054475379245 3.431006531158859, -9.855651552152011 -23.46700377061261 M-46.531840138347604 23.43164494322479 C-33.27763323662095 10.163919638815738, -21.260950567116865 -1.1397784075876958, -3.3938116921933785 -24.434441135434817 M-45.69330868834774 24.873812833918223 C-34.34350517147472 12.748332398289744, -25.102190412643978 0.6469736041258238, -3.841949764049347 -23.717426063289565 M-38.83260849110312 25.228265641357346 C-29.715816997312537 11.87257830254039, -19.065671054939898 -1.274058995386967, 2.41496485803225 -23.041355625115955 M-38.06969600317049 24.412063947805972 C-24.483000905799145 7.759059478573702, -9.686369173565387 -9.858782393700757, 2.686744805953266 -23.4781667543644 M-32.49983821492661 24.75419216435984 C-22.83893988093888 13.271597997546671, -13.848688310006624 3.6544431200264476, 10.463787432374204 -22.066116690566336 M-31.565856086340236 23.870354837390064 C-18.395979441204524 9.003030810116016, -5.99686129784732 -6.188713268011199, 9.880870317274372 -23.94178424234666 M-25.32272271672183 23.424554799190716 C-15.079658261769348 13.165691796626113, -3.590517744650316 1.0178469864388593, 17.383938131342582 -23.090971558286686 M-24.67136080821695 24.302608648042266 C-12.723042369539701 9.936792742462002, 0.5630785342334471 -4.761786780409608, 16.45305510301618 -23.340559742130687 M-18.20780643530609 23.647337150922546 C-10.301546085254488 15.167472487237173, 0.9689457148430864 4.156339572277278, 23.30694900837504 -23.436871487481525 M-19.482492524417232 24.407112245795172 C-4.292298941224428 8.259602165837505, 10.61976133250198 -9.38150806447738, 23.193905827831088 -24.34780943266898 M-11.571227337127247 24.681320745319088 C-0.2396813149756991 10.37588353583895, 11.130331332905747 -1.0337116507810202, 28.149334282228796 -23.992009033545646 M-11.737113930707508 23.496708565652487 C-3.688741110512014 13.805317943525932, 5.416768852936052 4.3570697207357485, 29.02087187071465 -23.42632734629374 M-6.627732154347235 24.995406430381937 C6.779160598363924 10.747735357037522, 18.245485391234425 -1.7550096333069083, 35.71768680508858 -23.066229277968006 M-5.151424750471726 25.066468877956954 C10.27105992521024 5.849674700828775, 25.95574838477088 -11.730151749339669, 37.02918759073075 -24.528370380270474 M2.244676746613865 22.975704545144005 C14.936503537289148 6.619274594381172, 30.556679000162266 -11.397647838366854, 44.17339674155257 -24.031893250603403 M1.0267729590391825 24.2326400550791 C11.734488813874357 12.609624455641915, 21.318218598532216 1.9571220834458303, 42.313270072685974 -23.65145397665778 M8.07703429912087 23.82976162009357 C16.985979742600932 14.630965362713791, 24.904007406990427 5.2194762309370555, 49.377002214380866 -23.51421019333793 M8.61997161113596 24.44656437049023 C20.549229454507245 9.158782527698893, 33.70985377520311 -6.700843722288977, 48.902018038875966 -23.67847123011509 M14.4529430217943 24.267038727300907 C28.51907030273955 7.906917520757205, 43.34577652437593 -7.0197476715962175, 57.35713484990555 -24.22334782273728 M14.699189037833793 23.93179821657419 C27.021027312306853 9.46771331736965, 40.12743966253501 -5.197888090403111, 56.40910988690903 -23.24654021614908 M21.320498756385657 23.838363732894322 C34.92920519604658 8.204203233548316, 48.8872346331105 -5.412546879263625, 61.64099610619123 -24.424003781002725 M21.151521503753827 23.84282739607598 C32.46381767200978 11.280030509874985, 43.56157008427894 -0.6645419842709068, 62.177526507356426 -23.114267014989668 M27.053434411648386 23.587576855338664 C42.060655755165925 6.841858624883068, 54.80699869113461 -8.966421466139723, 69.46370424482488 -23.929640772462676 M27.20224449849912 24.438520479514914 C44.94898059476195 4.838811128586906, 60.818141994552114 -13.017094820237451, 69.41503719310255 -23.555410947726315 M35.53123823166848 25.81249906997085 C47.766513630120265 9.239044348655918, 57.4242227300714 -3.708344423468576, 74.96628265387348 -23.666765325914756 M34.82766894026142 24.962866277351765 C48.63908956650955 8.216029621176824, 63.56869737184948 -9.377556571066124, 76.67513296448402 -23.3429912464815 M41.84795560248713 22.91937540539897 C48.308927055235166 14.324488486357614, 54.56262563323076 6.8786402568546166, 76.03235542528263 -18.136467830580468 M40.76878947850271 24.239175440558295 C52.379489767336345 10.76112653696545, 64.386235020859 -2.74117434369931, 76.53863760144276 -16.74983911199546 M48.53154131604128 25.326660444127395 C58.24668992831698 14.336333813727988, 65.67483626391761 4.511527349387807, 78.35259571681787 -9.951824272216193 M47.88395991840056 24.649764191106605 C54.34965759105773 16.415352426791248, 60.22206843892577 10.5907020178949, 77.170842837931 -9.978139987985788 M53.28420274311341 24.98138267778312 C60.542489982573414 16.33416027029529, 69.40937957224244 9.094995525244403, 77.95959809954695 -2.0496710638250537 M54.75569533432379 24.29703396992638 C61.24135445448959 16.236962520203637, 68.51263452960715 7.9231548288561395, 77.24765001731095 -2.1421339423012444 M60.88263924338728 24.208795019563514 C67.33892416691285 16.742356745567907, 73.34694041616494 12.433872072141936, 77.93648851456383 5.6888342659883655 M61.6868998748328 24.650193961870766 C65.4071604285248 20.018361804587183, 68.67188823929364 14.773300919985395, 77.43735700082912 5.239481282883676 M67.65286205483974 23.9554714970012 C69.90173011439975 21.52050909135384, 72.3414447822996 19.590730476569263, 76.5665199398371 14.423567780608693 M67.60440279696125 24.758736752930176 C69.69509408977014 21.661261506176718, 71.59297070054963 19.334268185308115, 76.89984216293423 13.545180557322068 M74.0032869685968 24.71551663952894 C74.78782835868205 22.955459453442575, 76.46991868521732 22.07208549008368, 77.17126051520626 20.933869310531417 M73.95177131012619 24.62064241144816 C75.05716576312749 23.142638532407297, 76.49442402271647 21.54938768450142, 77.2681531313321 20.933564592023398" stroke="#a5d8ff" stroke-width="4" fill="none" stroke-dasharray="0 0"/><path d="M-74.85882636049742 -22.366444289347392 C-15.565187050512344 -23.012618623247242, 43.64316691285719 -24.72526215842312, 75.6978699927263 -24.643455134592184 M-76.17086713134015 -23.406171990642257 C-31.26337160140531 -23.453988939054117, 12.662797039082777 -23.23784564162935, 76.69035122208584 -24.08524232222452 M76.49697755887229 -22.60457480303867 C76.5603355321522 -8.286032798110515, 75.29218424726363 8.638498075612226, 75.39445137290198 23.736511539546306 M75.60319995946958 -24.170059188972832 C75.39865173910955 -7.739826658957965, 76.18196087417004 9.196225411235172, 76.27727299022784 23.374977181242734 M77.38018226460123 24.929601001467148 C16.205207650290696 24.621607054892262, -43.703588432795485 23.046590009919324, -77.43922213572414 23.94327607789786 M76.84689665830317 23.33114495640832 C43.103472119755644 23.847299301233523, 9.310256983232534 23.34369589022912, -76.75389068579699 24.125790791999837 M-77.47625496999943 22.950418099841688 C-77.16177275975976 7.5529907565102645, -77.07828557540827 -7.548359828033383, -76.61871173148455 -24.555131147666845 M-76.52006632670792 24.1371391524709 C-75.25554593588116 12.452654925294336, -75.57895119876262 2.710557432780747, -76.65823107456923 -23.256361994405594" stroke="#1e1e1e" stroke-width="1.3" fill="none" stroke-dasharray="0 0"/></g><g class="label" style="" transform="translate(0, -8.7265625)"><rect/><g><rect class="background" style="stroke: none"/><text y="-10.1" style=""><tspan class="text-outer-tspan row" x="0" y="-0.1em" dy="1.1em"><tspan font-style="normal" class="text-inner-tspan" font-weight="normal">BasketFactory</tspan></tspan></text></g></g></g><g class="rough-node default" id="sketch-architecture-flowchart-tokens-5" data-look="handDrawn" transform="translate(870.666015625, 41.77357482910156)"><g class="basic label-container" style=""><path d="M-107.05945653331278 -32.11476802817626 C-107.05945653331278 -32.11476802817626, -107.05945653331278 -32.11476802817626, -107.05945653331278 -32.11476802817626 M-107.05945653331278 -32.11476802817626 C-107.05945653331278 -32.11476802817626, -107.05945653331278 -32.11476802817626, -107.05945653331278 -32.11476802817626 M-106.98960011015784 -23.77285410676091 C-104.75283202499774 -26.884815314677915, -101.50812049989881 -30.32383841627226, -100.68314613875762 -32.42791910788594 M-107.0226475888367 -24.254889222414594 C-104.71676890357436 -27.79800377165395, -101.93761096704458 -31.162530272139, -100.01134208842302 -32.53491264620336 M-105.45265726569694 -18.310230813341587 C-103.09314391562717 -21.955133284475345, -99.5566597919648 -22.783740232528597, -92.39114217955161 -33.584358789499184 M-107.32554524011435 -17.432763582003325 C-103.07193815894571 -22.289056574820204, -98.171969402526 -26.459372369894975, -93.52494295185053 -32.171085404724714 M-107.02866604998329 -8.979767145224685 C-98.57897047693582 -16.93647859241471, -92.63901302087876 -26.406771979574465, -88.3789948834514 -32.826985123984834 M-107.25699092647851 -9.019028003052338 C-98.46100065693373 -18.505746988525935, -91.41343509572012 -26.934017867720897, -87.72514850924148 -31.633322683372604 M-107.31569075503604 -2.676617911067553 C-97.90079241185887 -13.486926327730663, -88.13301699054846 -23.476976337611895, -79.94078891895084 -31.367098978314544 M-106.69070357488954 -1.6579506441756977 C-98.67200999748012 -10.09413812439099, -91.37624305138448 -19.943539566709347, -79.70117938854786 -32.61529267235015 M-107.9545250596957 7.4947373975930685 C-100.03528053742718 -2.9575421348288673, -90.93897328117433 -12.219842621228974, -73.03251153079378 -31.105288254162414 M-107.21809647227752 5.73102449827489 C-98.63530249483136 -3.2132696523461037, -90.69839668571953 -12.977927013850644, -73.21132882837001 -32.05394339806051 M-107.22023998981764 12.924631679487351 C-97.0694750611989 3.1119611843523645, -87.52399811938254 -7.046339331453927, -66.2417338249818 -33.39547122922918 M-106.18915841285013 12.897920385472512 C-92.2569035461549 -3.740884652059415, -78.94438008866602 -20.041981840967317, -67.20111558138397 -31.419113533528304 M-106.56131087935037 21.135513427147526 C-91.01633803857402 2.0485048970689004, -73.92424819080236 -17.935907702927807, -59.342140900430785 -31.950663692479743 M-106.60506030888324 21.21089995057079 C-94.16347796343369 5.733937933744912, -80.8694741860529 -9.129094289608652, -60.12378482417473 -32.08975119635997 M-107.17858581257161 28.577313648634604 C-88.60572377625454 7.385087445362634, -70.14795594557533 -14.716642236214986, -53.236546331786734 -32.570669053450466 M-107.60542402600876 29.44789077972687 C-89.09912060561025 8.837663324257228, -71.59503558523816 -12.438593442242167, -53.75162375491325 -32.432315759046226 M-104.05424394018932 31.80387719877465 C-88.65068015750889 16.216985862717713, -72.45027241431099 -2.396858442776111, -46.26649990592764 -32.12627413301295 M-103.90366883053804 32.49633636688038 C-86.77733017093088 13.485336686990028, -69.9091440152303 -6.018712677444295, -47.940387379955354 -32.097273573491925 M-96.82453489971266 32.85486841048705 C-79.8042565745454 13.278694017920628, -62.89309676432637 -5.997576008201081, -39.41462943429216 -32.525683778804286 M-97.0653928607515 31.746735112875335 C-77.9300622526664 9.806238195912545, -57.83356774598258 -11.607753903507678, -40.891557304564884 -31.90221201027292 M-90.51109369079235 31.70026064564832 C-77.81533739010563 18.52113753297507, -64.06306466573422 4.516877062090267, -33.95422747576276 -30.963773573596125 M-90.77153273228315 33.03826373161052 C-70.23126317989049 9.333720479244601, -49.13815253714525 -15.302857958978064, -33.84802777779468 -32.44694790779577 M-82.87284036501381 32.885128844095675 C-62.365772347636245 8.452256435144609, -43.81765746511341 -13.51622297263969, -28.234002605178254 -32.47159376916684 M-83.93772702340364 33.08771559489841 C-68.92140772873526 15.824774216768798, -53.324483440173125 -1.8241823210210366, -27.18900363308353 -31.734891198607254 M-77.46709058603705 31.08732471073492 C-64.73385328500032 17.923324875040638, -53.63574022180857 4.463947461038803, -21.862663399498874 -31.94256890392673 M-76.61929872060107 31.944764937133368 C-62.70094835998113 16.430034430618644, -49.06802573413299 -0.8956615680234205, -20.580781486499536 -32.08373597487176 M-69.70714205274776 33.31385724696619 C-53.59270411866351 15.101867086067477, -39.94931701664863 -3.147640863538735, -15.599377325338386 -32.60410513321124 M-70.69171544012309 31.991920700284954 C-49.99396402346089 7.461582110235406, -29.18170402136973 -15.953186777458981, -14.15559978334222 -32.27223258083717 M-65.45493676032586 32.99737873541823 C-42.03588315731354 6.1077949539939365, -21.04329300647483 -19.196294485298626, -6.759330378022044 -33.17800377743326 M-64.46813127651379 33.54612384475506 C-49.17998861731239 14.576644092094012, -32.88336302273137 -3.2413282379963513, -7.175496725249968 -32.46924863629025 M-57.520739835135906 31.91489030897181 C-36.15713072235973 10.037715922816869, -17.75704330890251 -12.978796504756355, -0.818729510888142 -31.591656309315912 M-56.827532513845846 32.96155685813596 C-35.570795980864986 7.390541847105284, -13.90667014854174 -17.75555007622689, -1.2478785432832225 -32.50605277884672 M-50.22694358979153 32.532303725683555 C-35.743025337708985 14.770009874586673, -21.170500585578726 -2.3553176260358417, 6.7823645614536465 -33.355490390096556 M-51.44041338439309 33.27913509639483 C-37.802175494713865 18.239159745073646, -26.147586854353293 2.699289486828122, 5.724607537385301 -32.62458148391072 M-45.749874618230244 32.676478743226184 C-31.88124982794029 15.732761764497377, -16.536725617933353 -0.11529747798511925, 13.263131498059114 -31.368122762993913 M-44.82268421655469 32.35482022730939 C-23.32281461879402 8.431908895125488, -1.972568495300568 -14.874553762588876, 12.306648128078647 -31.980665927486267 M-36.78879605448989 31.61457854655778 C-16.2091995880956 7.780300699731095, 1.1179664590510079 -14.816075921829263, 20.181466670130412 -32.61895365543625 M-37.843838467559756 32.52845746477378 C-21.580887446653417 14.54355346621174, -6.835122846701198 -3.004887716376885, 18.536760225056767 -33.06329854971582 M-30.043352382903162 33.18376375318223 C-9.87756577738576 10.359187516156974, 9.335752252165426 -15.042997919394052, 25.511389908642624 -33.07232481567926 M-30.88509121539619 33.10668322219408 C-10.562678045625992 8.376907577558333, 9.883305613045795 -14.930551141510314, 25.01082006107204 -32.758996225912185 M-24.18632177761285 33.465453684855824 C-5.613657916097982 13.806400831608673, 10.115208492443164 -6.735914485471781, 33.54994753920126 -31.566982816344183 M-25.01339077614809 33.08151823941722 C-7.087748327160396 13.055545669889232, 10.709917510891557 -6.79261676226016, 32.68941981145357 -32.38651994610198 M-18.607578462951125 32.928075094810204 C-4.37049410758488 17.079090954131, 8.442411788068192 2.1625555388694773, 38.536603101835624 -32.4007685971369 M-17.882601187231806 32.18475491843197 C2.6638928396201322 10.666703454967527, 21.467554344969233 -12.504365787666035, 39.12110836916155 -31.790945311610024 M-11.378379005264193 33.96279134685917 C0.923737494738569 19.11157020958478, 13.531107930332508 5.83443161080959, 45.702809399117356 -33.19785304304075 M-11.569851832297458 32.62058184617432 C3.314708898635558 15.451008302981888, 19.384728934652955 -2.071359222464358, 45.60352442464313 -32.05736205853531 M-5.113657922354044 31.634587245507614 C6.477192933807307 18.683483472499084, 17.89919440033301 6.148688542860844, 51.604648979553474 -31.335145896785427 M-4.219430073222185 33.276047014118284 C8.718606596672249 17.201666463245378, 22.240400615441743 1.2972555880121457, 52.04301319093854 -32.64976079789569 M3.026048783621503 32.610745350668076 C13.348486343331498 20.49208863915709, 26.71170285966928 5.115453694568872, 57.62558754670376 -31.690356708503703 M2.302473453255548 32.53129311675369 C17.87079086789595 13.761897911881709, 33.56962563029345 -3.6946106694360643, 58.543328180099664 -32.46576318393567 M9.432788675259111 32.39130341111914 C29.18298642686512 9.21881711893398, 50.909199887739554 -14.306002589433533, 66.42190041834839 -31.508222909755364 M8.63871590952139 33.08632448504502 C29.81689329513373 7.499353900202789, 52.43023700665915 -17.13333015018793, 64.70960457421488 -32.42904212023663 M14.288719113059365 32.84829400471839 C34.16931720202262 10.955216187266005, 54.51574067975024 -14.280340646934313, 71.24207070288055 -31.9477398859564 M15.637212915131588 33.5458097448201 C29.738422805353093 16.5792010414504, 43.469521160281786 0.6686278434286232, 71.80434318961461 -32.29567666443716 M23.458048535679094 33.461846557325096 C44.51103966931259 6.095701761034537, 66.3514835638773 -17.87924052649398, 77.2684047686821 -31.40918252217639 M21.959967553758315 32.0528811730103 C41.225303977267764 11.209711538729135, 60.4729679417812 -10.934952871859842, 78.18985314683091 -32.735813293410295 M29.318148505321716 33.92571166893914 C51.808023203594665 7.13675268570128, 73.34513790604329 -18.469183945244772, 85.8147401932427 -31.317829433039638 M28.31071468195092 32.18621680587137 C51.80441383865094 6.025980856083805, 74.52066992257619 -18.89100938840894, 84.47560627086914 -31.779629114759395 M36.53753174800792 33.620882412637016 C52.60093595346195 11.303312508324723, 69.42581292204365 -8.8902103638697, 91.15085224224453 -31.4739417867101 M36.03915650412494 32.59983551469981 C51.971705211317676 13.096314980588556, 68.02700891993894 -4.683897833628055, 91.8882358577794 -32.67105075810571 M40.81262114089797 31.791219913512236 C53.914050458402706 20.63501838450997, 66.41211699347876 6.551139958614113, 98.97744869255071 -33.159270464622594 M41.63787464876389 32.67903045206365 C59.603666683612225 11.232115645350873, 78.36120163549904 -8.257264381677407, 98.85721738449155 -32.797860250012256 M48.25243718107784 32.61568289754812 C61.84835620251029 15.958687176683657, 76.44184899279303 0.6269843622326987, 104.60976164224705 -32.483539171660524 M49.02385460807902 33.30629478228208 C70.66373826168295 8.504666250489784, 91.46236021758006 -17.014970660887347, 105.5293813263278 -32.33350569845291 M56.000224655041336 31.12561257763212 C70.49114852563362 16.980868150609325, 83.15679301548184 -0.08138033073444921, 107.53619735804831 -27.870694723437488 M55.0083404902468 32.52504797585961 C74.4398975753259 9.732328595513835, 95.17806359484763 -12.35621821096371, 107.90365819831764 -27.77051092135996 M61.49902661316602 33.02889138294992 C76.3755682514185 16.229929242678303, 91.15138489119202 -2.5450027164816262, 107.87753653144847 -18.190673080695728 M62.011885733668926 33.12739519145686 C73.82677807507307 19.09461889439613, 85.6792955249597 5.859194396932255, 107.19602426315987 -19.947500011497105 M66.96868819477763 31.96294559711371 C82.96078665662209 18.58773921765829, 94.4481689891632 0.8718270478179022, 108.73201248986119 -11.705853632509328 M67.8882967858518 33.41850306577305 C80.91861514404653 19.012875968752937, 92.39674052766021 4.6844232914376995, 107.77436695734878 -13.08696977696887 M75.09286205290604 31.913637910902633 C85.22572572210994 20.73844974300083, 95.75173321899598 10.973402087626567, 107.88365600453139 -5.594512252439548 M75.51350518830321 31.839644208025756 C82.48083203135394 24.67532429522951, 89.93965575664686 15.978681230911908, 107.24971304616449 -3.8961038352064574 M83.12320225912659 33.37980745039338 C88.80587232274088 26.009751816080573, 94.3117507361156 19.47860147903683, 106.44543388037366 4.371775246918902 M81.58371491229109 32.69097799015654 C90.13671690804799 22.580677279826944, 98.85814533059938 13.027235240325481, 107.01443877428257 2.9968611537246055 M89.29116473797946 32.95439325400044 C91.86380745907755 28.304181374906047, 96.78056577324408 22.986921038708097, 107.33520140818011 11.300108606178506 M88.39155796149544 32.85122155736704 C95.38554573836407 24.665403444692767, 102.77018626759308 15.655481891656265, 106.96526888205028 10.426629629789074 M95.31753207876325 31.722308710937217 C98.66814651562969 25.87687869886918, 105.16008017215962 23.265351218920507, 108.9610901639935 18.157498150380828 M95.10374435056885 32.7909848607146 C99.16210338983232 27.890303480339515, 102.69019476978904 22.802219671731194, 107.24475272292788 17.708335863727704 M101.16106962559479 32.43009738456975 C103.07891183389235 31.31159030355137, 104.16690030248459 29.37645975338613, 107.55514260332065 26.323126723310928 M101.74632486075318 32.386061745298775 C103.95236258793277 30.34048153325542, 105.6442697328226 28.138863217546408, 107.37311035177116 25.840641606465283" stroke="#a5d8ff" stroke-width="4" fill="none" stroke-dasharray="0 0"/><path d="M-107.73012395724024 -31.861468449750905 C-49.514614262179734 -32.50804774800608, 5.681884609287644 -33.039744304054764, 106.99679488906648 -31.580613345145302 M-107.28241548467679 -32.67701768372525 C-45.98668793796909 -33.4347155294006, 14.613403865334481 -33.76054847180457, 106.5447488227705 -32.902658625978084 M105.88789216631369 -31.790856404155292 C108.1481634749891 -14.687055454489695, 106.19777769651046 4.063674803438805, 105.80903303207236 33.37781162760448 M106.23899349996056 -32.66681030192662 C106.03274957967695 -6.657138287749192, 106.9950192382125 18.134124932050735, 107.44125436186951 32.079455936611915 M108.06530046431445 32.06542436987974 C52.079423681799014 32.885155944775335, -0.9832704182128562 31.171954004068283, -107.73479445439318 31.529383347352546 M106.52443253004506 32.780853777452016 C45.181533403317715 32.18314466786087, -15.504407026518802 32.21219876262393, -107.4148489201796 32.49460639044318 M-107.08172239223258 32.974322393536006 C-107.28904501670233 11.669179778149273, -106.16435854471659 -7.939339656328547, -107.84730510933292 -33.47753256482184 M-107.01245004254983 32.197417907407285 C-106.8772176015918 14.658367741456003, -106.07471531995205 -1.3887454401074382, -107.44637012072612 -32.59104016839854" stroke="#1e1e1e" stroke-width="1.3" fill="none" stroke-dasharray="0 0"/></g><g class="label" style="" transform="translate(0, -17.299999237060547)"><rect/><g><rect class="background" style="stroke: none"/><text y="-10.1" style=""><tspan class="text-outer-tspan row" x="0" y="-0.1em" dy="1.1em"><tspan font-style="normal" class="text-inner-tspan" font-weight="normal">Stock</tspan><tspan font-style="normal" class="text-inner-tspan" font-weight="normal"> Tokens</tspan></tspan><tspan class="text-outer-tspan row" x="0" y="1em" dy="1.1em"><tspan font-style="normal" class="text-inner-tspan" font-weight="normal">TSLA</tspan><tspan font-style="normal" class="text-inner-tspan" font-weight="normal"> ·</tspan><tspan font-style="normal" class="text-inner-tspan" font-weight="normal"> AMZN</tspan><tspan font-style="normal" class="text-inner-tspan" font-weight="normal"> ·</tspan><tspan font-style="normal" class="text-inner-tspan" font-weight="normal"> NFLX</tspan></tspan></text></g></g></g><g class="rough-node default" id="sketch-architecture-flowchart-feeds-7" data-look="handDrawn" transform="translate(870.666015625, 159.31811904907227)"><g class="basic label-container" style=""><path d="M-64.76271870649158 -32.44713859619738 C-64.76271870649158 -32.44713859619738, -64.76271870649158 -32.44713859619738, -64.76271870649158 -32.44713859619738 M-64.76271870649158 -32.44713859619738 C-64.76271870649158 -32.44713859619738, -64.76271870649158 -32.44713859619738, -64.76271870649158 -32.44713859619738 M-64.92224770326523 -25.06246041951966 C-62.20217051479424 -26.88803434319782, -60.280128121933494 -30.730840696648798, -58.569919564738456 -31.77362497742408 M-64.95313284096584 -24.50969513037613 C-62.75079769659461 -27.646682543930638, -60.11736546150663 -30.107219042598476, -58.61640536154086 -32.420297107904894 M-65.97935473096122 -15.721257446837514 C-61.774418989811224 -21.896463318223468, -58.394963487470605 -23.890290220389378, -53.350897531658234 -31.960221060107923 M-65.17601647482508 -16.712223110126374 C-61.273680569421124 -20.4406554686996, -58.40906382439538 -24.218899186614305, -51.995407788959355 -31.41394562128671 M-63.80582269682814 -9.808337455632895 C-58.327707749608805 -16.488393676046055, -51.21831528155432 -25.524359227634175, -45.62169308147871 -33.469617819121865 M-64.47574943655188 -9.490421522949712 C-60.213172349285315 -14.96786083143454, -55.67012626382852 -20.561282584533654, -45.343642041454025 -31.796559340228004 M-65.23143573201884 -0.7198307516262885 C-57.78923618795164 -10.702757703280119, -48.767396355241566 -19.58833982189782, -38.28856558094934 -30.7689718496847 M-64.35402005145198 -2.4281317552984802 C-56.45568922483983 -11.135008374249395, -48.26401487985738 -21.86707063133105, -38.58256418258769 -31.722445151952876 M-64.5569577629135 6.516902927641601 C-55.22931488292162 -5.294656174690273, -45.51778217719837 -15.601080861164638, -30.870802051573172 -33.310690027095156 M-65.17007171049383 6.206790026857012 C-57.63445903173338 -3.1032748093909626, -51.38553881713047 -10.67638909767678, -30.779797536247184 -32.64008107995241 M-66.15779850632825 13.26224753103605 C-49.15308606485152 -2.965020190269894, -34.177967474827874 -22.67116107011136, -26.17214534837765 -31.627579690123444 M-64.79597394663742 13.641668207596101 C-57.716004798449035 5.180428363423214, -49.31844453495186 -4.75265471939975, -25.23606543802117 -32.54427240479807 M-64.65201925846685 21.285356845970647 C-50.151052608202306 2.6889849223268314, -34.48762430944062 -12.804360384775377, -19.539991837873988 -31.38797666592694 M-63.94981611261298 20.982496854009497 C-54.9094669502311 10.075214883210439, -44.70176515190477 -1.3425231156739925, -18.84251458096962 -32.50546563883912 M-63.99643654231928 28.631776092838823 C-46.618356838778425 7.341758193597632, -27.743144776047647 -13.824919489699232, -11.279796433026952 -33.42655443496547 M-64.12657866697764 28.217370733032418 C-53.72766771025685 15.623405420094269, -42.192678283559125 2.1816301129655153, -11.902798377219458 -32.907092484798135 M-60.27581158761615 33.22356189082394 C-48.43753959787514 15.713311791994677, -33.63428076126564 0.3898768451375296, -4.526854632934221 -32.07396566027403 M-61.520166999474114 33.09118392719984 C-41.36139047246472 8.841380004681545, -20.7842451728958 -14.521978235496363, -5.360961250196179 -32.41329521622377 M-55.39620490083097 33.14010724611302 C-44.11470723755801 19.781574166308936, -34.13476577274644 7.538131407692266, 1.1591561778337267 -33.48989629542293 M-54.69932684822137 32.240257310023395 C-40.22677329682194 15.120471869075677, -24.51173505417333 -2.2248064384565462, 1.5842820476653254 -32.214229728637086 M-49.71100190824335 31.75189389233202 C-33.07397580771256 13.382018969452385, -15.57535832559665 -4.584022411118907, 6.970537730201756 -33.19797578683222 M-48.3971937952909 33.64587510668077 C-30.85247353036158 12.554391967591286, -12.185904752712545 -7.67898962531479, 7.5688923610367524 -32.427288233205225 M-41.096124424024076 32.13525456693706 C-21.244407377583727 8.762959098152603, 0.12322797483046606 -15.848375496814796, 13.249424616766495 -31.58226503668906 M-41.22142246843925 33.21393023284069 C-21.34392455637828 9.551177761833749, -2.4868018629414603 -13.076700431719402, 14.52047201914272 -31.64359368409111 M-34.862689943842916 31.92643745500464 C-15.058996976462579 8.608040517442092, 4.596692757219576 -13.498331397738342, 21.78302073299514 -32.93433275404155 M-36.002017302388744 32.69320865666014 C-21.119302895866582 16.656152487340588, -5.80777145885153 -0.6369704463130514, 21.57346029433568 -32.115537529860994 M-28.35718580807441 31.355678167613966 C-13.038327640006388 12.862987468515598, 1.8026055077542382 -5.154830060835048, 29.262614912231506 -33.0172019631954 M-28.580952456558276 32.22531722100581 C-12.60555688751003 14.68921467610254, 2.621632376682297 -2.3034699917214247, 28.701371409702624 -32.10904041074478 M-22.19747366629123 33.975128374445084 C-5.694239362850389 12.771590174375953, 11.456885073921248 -5.7016603865044955, 33.46816939599769 -32.35726470697213 M-21.398024631899805 32.09656575203686 C-1.3745441479414513 7.690195018969223, 19.90982329653519 -16.237885174110684, 33.96531890649412 -32.37440955690629 M-15.198735634856689 34.05204575272122 C-0.10029090792033957 13.638975522227748, 17.58192655275049 -4.385016276118625, 40.60579087915377 -32.714716446411394 M-15.542161694003234 32.93359876509112 C2.6025114363400745 11.189012912065644, 20.83954688498182 -10.246478050813412, 40.23028369131339 -32.724731307083196 M-7.255723155591244 33.34848096726781 C3.4690564611250125 18.80431964277782, 15.019684410556222 7.312871019008379, 46.856914555175436 -31.71908965782637 M-8.072719806361073 32.59956672822596 C8.978132540886893 12.81431594322683, 25.84508135427041 -6.308043364519239, 47.448224338929435 -32.07144906816176 M-1.4191532910165414 33.220625514305176 C20.59109354475625 7.502702056977666, 42.110492865024376 -18.66742125019664, 53.09720137453359 -33.43201100593889 M-2.1817571900951442 33.3083572548876 C10.883780616945959 18.304874457630145, 22.689622848207307 2.980726831320645, 54.69180493748042 -32.58097943180467 M2.934624791700559 33.51591081027251 C16.871497212149315 17.263225801258905, 27.81671635880617 5.550197283859529, 60.750675059628335 -33.31017237056781 M4.275312866002671 32.56618481065212 C22.708555677639932 12.579950567108666, 40.08146248378103 -7.718154558382166, 61.01233368278503 -31.763084603156635 M12.621778235737015 33.33878329256925 C27.177764626097012 13.417154679840863, 43.83165967235974 -5.095593722804976, 65.19734605577705 -28.772157435664102 M11.263942707468349 32.18296819268744 C22.263143758158495 19.757050982511217, 33.7195419767358 6.234814617115182, 64.63515331092911 -29.926153892185614 M17.77769321451952 33.7724198759144 C32.02507048032323 17.715743493182607, 45.55083070914944 0.8317000597354371, 63.75742821001167 -20.605226559766937 M17.43961490433248 32.41582733614324 C34.619010406045795 12.683717538971615, 52.69510010133946 -7.310840735968952, 64.51877834190265 -21.122706585032496 M24.66280785947579 33.600115503834004 C35.367698458105245 21.24166773408159, 45.23815715838198 9.621899316677261, 64.8907911548088 -13.60561940259693 M23.814686043001803 33.245387493966874 C39.36335536880074 14.300847125005651, 55.77309983455068 -3.2454222268760327, 64.53257620329624 -14.415147513918429 M30.376092365513575 31.457784391813707 C40.27166883427368 22.32594070961172, 48.19147804861664 11.983753918745192, 65.75550338175866 -5.607802379802496 M31.59986945678031 32.852004517655125 C43.46199768623518 18.984726737106154, 56.40627980304356 4.753120891756646, 64.80988476702423 -6.654541246136593 M36.809698783753205 33.249797035519094 C45.55112457102632 22.831886496843286, 53.37600000704411 13.725202960618667, 64.44007704295338 0.3764610802011783 M37.78061005136722 32.90731418263082 C46.589799449588654 22.437698377639652, 55.255831408833636 12.535380681426815, 65.74484895763152 0.8699172907633722 M42.979151487943454 32.57974180091594 C51.99769971857833 22.676536328482772, 60.76859634605889 14.472017045363314, 63.73323685386377 9.107269122718193 M43.65380779433205 32.290763477896895 C50.7605991470888 25.3632799980462, 57.8446054117454 17.106299168299287, 64.98864986240363 9.306285200139666 M51.987573413328214 31.999277217293432 C53.68033298310187 29.5550421154529, 59.5232274063702 23.19547350187269, 63.75695849034432 17.609054386598395 M50.48058463065529 31.81069870298074 C55.30575000075347 26.285088916197623, 61.11272128343041 20.904161322668276, 64.4349708299951 16.322906977376864 M57.79888125842277 32.130468433921266 C58.42846051140412 31.49440760869354, 60.13474186176365 29.17220533687721, 64.32064232429124 23.954119587601213 M57.67511121655966 32.71201341220953 C59.96359094057498 30.081475470305378, 61.68318099308385 27.727218604531632, 64.70215821079682 24.798006511913748 M63.74216546692564 33.0198021644282 C64.04964878478977 32.711378952259395, 64.4892444934917 32.23852302230471, 65.2045217742769 31.563428757267804 M63.81256755454228 33.00065860938477 C64.25437800864842 32.43278872779108, 64.6568299686386 32.0013702207106, 65.20958731037332 31.48828455293478" stroke="#a5d8ff" stroke-width="4" fill="none" stroke-dasharray="0 0"/><path d="M-64.07578116021014 -33.42286145708119 C-38.54371697144605 -32.3356223784143, -13.787449178014679 -32.32566981029852, 65.14057351949481 -32.240777815581495 M-64.8106863898662 -31.719881371815333 C-30.902754724541747 -33.68680061273936, 2.3250426108257973 -32.705527838304896, 65.423919839419 -31.7486453398485 M65.50442469776245 -31.302033769143517 C65.89432267564814 -17.639236300659434, 64.13636677564753 -0.37014850119412634, 65.4729188171127 33.263487944123085 M65.004704545763 -32.59973432367893 C65.36633272562013 -13.929238221044898, 65.68321559042485 5.715655001010202, 64.95485478193622 32.58110515283052 M65.66762027763731 33.66867880380304 C33.07157809485177 33.10656009141729, 1.5961377257558886 32.26726342753708, -65.07478173508072 31.974614618502372 M64.57003715259373 32.54913409214248 C21.476113556388608 31.747108364309714, -21.18567847006237 31.961821617859236, -64.95551381939535 32.0808262477505 M-64.58584599735852 32.41170606947266 C-63.215653309289735 7.95015628688559, -64.51685342000722 -16.320595655518915, -65.71852178493717 -32.143123752645685 M-64.66702876064507 32.71405365400438 C-65.1710496012906 14.149711785013881, -64.20755536035328 -2.1114471797054337, -65.16621550545896 -32.962383768980054" stroke="#1e1e1e" stroke-width="1.3" fill="none" stroke-dasharray="0 0"/></g><g class="label" style="" transform="translate(0, -17.299999237060547)"><rect/><g><rect class="background" style="stroke: none"/><text y="-10.1" style=""><tspan class="text-outer-tspan row" x="0" y="-0.1em" dy="1.1em"><tspan font-style="normal" class="text-inner-tspan" font-weight="normal">Chainlink</tspan></tspan><tspan class="text-outer-tspan row" x="0" y="1em" dy="1.1em"><tspan font-style="normal" class="text-inner-tspan" font-weight="normal">USD</tspan><tspan font-style="normal" class="text-inner-tspan" font-weight="normal"> feeds</tspan></tspan></text></g></g></g></g></g></g><defs><filter id="sketch-architecture-drop-shadow" height="130%" width="130%"><feDropShadow dx="4" dy="4" stdDeviation="0" flood-opacity="0.06" flood-color="#000000"/></filter></defs><defs><filter id="sketch-architecture-drop-shadow-small" height="150%" width="150%"><feDropShadow dx="2" dy="2" stdDeviation="0" flood-opacity="0.06" flood-color="#000000"/></filter></defs><linearGradient id="sketch-architecture-gradient" gradientUnits="objectBoundingBox" x1="0%" y1="0%" x2="100%" y2="0%"><stop offset="0%" stop-color="hsl(0, 0%, 83.3333333333%)" stop-opacity="1"/><stop offset="100%" stop-color="hsl(0, 0%, 88.9215686275%)" stop-opacity="1"/></linearGradient></svg>